<!-- Generator: Adobe Illustrator 19.0.0, SVG Export Plug-In  -->
<svg version="1.1"
	 xmlns="http://www.w3.org/2000/svg" xmlns:xlink="http://www.w3.org/1999/xlink" xmlns:a="http://ns.adobe.com/AdobeSVGViewerExtensions/3.0/"
	 x="0px" y="0px" width="236.403px" height="283.534px" viewBox="0 0 236.403 283.534"
	 style="enable-background:new 0 0 236.403 283.534;" xml:space="preserve">
<style type="text/css">
	.st0{fill:#F08123;}
	.st1{clip-path:url(#XMLID_127_);fill:#FFFFFF;}
	.st2{clip-path:url(#XMLID_128_);fill:#FFFFFF;}
</style>
<defs>
</defs>
<polygon id="XMLID_126_" class="st0" points="0,0 6.064,48.243 129.851,44.983 66.174,243.534 175.489,43.708 231.583,42.007 
	236.403,11.14 "/>
<g id="XMLID_71_">
	<defs>
		<polygon id="XMLID_72_" points="0,243.534 236.403,283.534 236.403,0 0,0 		"/>
	</defs>
	<clipPath id="XMLID_127_">
		<use xlink:href="#XMLID_72_"  style="overflow:visible;"/>
	</clipPath>
	<path id="XMLID_73_" class="st1" d="M214.431,24.577c0.216,0.009,0.325,0.143,0.325,0.403v3.601c0,0.156-0.031,0.262-0.091,0.319
		c-0.061,0.056-0.156,0.093-0.286,0.11l-0.429,0.039v0.988h3.094v-1.04l-0.741-0.039v-3.146c0-0.355,0.121-0.663,0.364-0.923
		c0.242-0.26,0.569-0.39,0.981-0.39s0.691,0.115,0.839,0.344c0.147,0.23,0.221,0.583,0.221,1.06v2.678
		c0,0.156-0.031,0.262-0.091,0.319c-0.061,0.056-0.156,0.093-0.286,0.11l-0.429,0.039v0.988h3.094v-1.04l-0.741-0.039v-3.393
		c0-0.754-0.18-1.32-0.54-1.696c-0.36-0.378-0.869-0.566-1.527-0.566c-0.434,0-0.837,0.093-1.209,0.28
		c-0.373,0.186-0.672,0.439-0.897,0.76v-0.845h-2.197v1.04L214.431,24.577z M209.296,26.371c0.026-0.537,0.169-0.999,0.429-1.385
		c0.26-0.385,0.632-0.578,1.118-0.578c0.52,0,0.78,0.264,0.78,0.793c0,0.269-0.135,0.5-0.403,0.695
		c-0.269,0.196-0.561,0.321-0.878,0.378C210.026,26.33,209.677,26.362,209.296,26.371 M208.568,24.343
		c-0.564,0.693-0.845,1.551-0.845,2.574c0,1.023,0.247,1.826,0.741,2.412c0.494,0.584,1.269,0.877,2.327,0.877
		c0.528,0,0.999-0.082,1.41-0.247c0.412-0.165,0.704-0.325,0.878-0.481l-0.494-1.053c-0.538,0.381-1.075,0.572-1.612,0.572
		c-0.538,0-0.936-0.141-1.196-0.422c-0.26-0.282-0.403-0.653-0.429-1.112c0.728,0,1.382-0.087,1.963-0.26
		c0.346-0.104,0.641-0.238,0.884-0.403c0.242-0.165,0.446-0.392,0.611-0.682c0.164-0.291,0.247-0.627,0.247-1.008
		c0-0.572-0.191-1.016-0.572-1.332c-0.382-0.317-0.897-0.475-1.547-0.475C209.92,23.303,209.131,23.65,208.568,24.343 M202.38,28.9
		c-0.061,0.056-0.156,0.093-0.286,0.11l-0.429,0.039v0.988h3.484V29.01l-1.131-0.052v-3.016c0-0.381,0.11-0.695,0.331-0.943
		c0.221-0.247,0.505-0.37,0.852-0.37c0.138,0,0.255,0.022,0.351,0.065c0.086,0.043,0.13,0.152,0.13,0.325v0.598l1.209-0.091v-1.937
		c-0.39-0.191-0.8-0.286-1.229-0.286c-0.429,0-0.808,0.11-1.137,0.332c-0.33,0.221-0.572,0.5-0.728,0.838v-0.975H201.6v1.053
		l0.546,0.039c0.121,0.009,0.206,0.041,0.253,0.098c0.048,0.056,0.072,0.153,0.072,0.292v3.601
		C202.471,28.737,202.44,28.843,202.38,28.9 M196.998,26.371c0.026-0.537,0.169-0.999,0.429-1.385
		c0.26-0.385,0.633-0.578,1.118-0.578c0.52,0,0.78,0.264,0.78,0.793c0,0.269-0.134,0.5-0.403,0.695
		c-0.269,0.196-0.561,0.321-0.877,0.378C197.728,26.33,197.379,26.362,196.998,26.371 M196.27,24.343
		c-0.563,0.693-0.845,1.551-0.845,2.574c0,1.023,0.247,1.826,0.741,2.412c0.494,0.584,1.27,0.877,2.327,0.877
		c0.529,0,0.999-0.082,1.411-0.247c0.411-0.165,0.704-0.325,0.877-0.481l-0.494-1.053c-0.537,0.381-1.075,0.572-1.612,0.572
		c-0.537,0-0.936-0.141-1.196-0.422c-0.26-0.282-0.403-0.653-0.429-1.112c0.728,0,1.382-0.087,1.963-0.26
		c0.347-0.104,0.641-0.238,0.884-0.403c0.243-0.165,0.446-0.392,0.611-0.682c0.165-0.291,0.247-0.627,0.247-1.008
		c0-0.572-0.191-1.016-0.572-1.332c-0.381-0.317-0.897-0.475-1.547-0.475C197.622,23.303,196.833,23.65,196.27,24.343
		 M191.967,28.756c-0.234,0.204-0.529,0.306-0.884,0.306c-0.936,0-1.404-0.728-1.404-2.184c0-0.711,0.132-1.296,0.397-1.755
		c0.264-0.459,0.682-0.689,1.254-0.689c0.347,0,0.676,0.069,0.988,0.208v3.367C192.318,28.304,192.201,28.553,191.967,28.756
		 M188.919,24.317c-0.559,0.676-0.839,1.577-0.839,2.704c0,0.867,0.182,1.599,0.546,2.197c0.399,0.659,1.092,0.988,2.08,0.988
		c0.789,0,1.378-0.316,1.768-0.949l0.039,0.013v0.767h2.106v-1.04l-0.455-0.026c-0.208,0-0.316-0.1-0.325-0.299v-7.904h-2.418v1.027
		l0.559,0.039c0.225,0.017,0.338,0.121,0.338,0.312v1.313c-0.338-0.104-0.693-0.156-1.066-0.156
		C190.255,23.303,189.478,23.641,188.919,24.317 M180.657,24.577c0.217,0.009,0.325,0.143,0.325,0.403v3.601
		c0,0.156-0.03,0.262-0.091,0.319c-0.061,0.056-0.156,0.093-0.286,0.11l-0.429,0.039v0.988h3.094v-1.04l-0.741-0.039v-3.146
		c0-0.355,0.121-0.663,0.364-0.923c0.243-0.26,0.57-0.39,0.982-0.39c0.411,0,0.691,0.115,0.838,0.344
		c0.147,0.23,0.221,0.583,0.221,1.06v2.678c0,0.156-0.03,0.262-0.091,0.319c-0.061,0.056-0.156,0.093-0.286,0.11l-0.429,0.039v0.988
		h3.094v-1.04l-0.741-0.039v-3.393c0-0.754-0.18-1.32-0.539-1.696c-0.36-0.378-0.869-0.566-1.528-0.566
		c-0.433,0-0.836,0.093-1.209,0.28c-0.373,0.186-0.672,0.439-0.897,0.76v-0.845h-2.197v1.04L180.657,24.577z M177.771,22.64
		c0.295,0,0.535-0.089,0.722-0.267c0.186-0.177,0.279-0.405,0.279-0.682c0-0.277-0.093-0.509-0.279-0.696
		c-0.187-0.186-0.427-0.279-0.722-0.279c-0.294,0-0.533,0.093-0.715,0.279c-0.182,0.187-0.273,0.419-0.273,0.696
		c0,0.277,0.091,0.505,0.273,0.682C177.238,22.551,177.477,22.64,177.771,22.64 M176.367,23.498v1.079l0.455,0.026
		c0.122,0,0.206,0.026,0.254,0.078c0.047,0.052,0.071,0.152,0.071,0.299v3.614c0,0.251-0.125,0.39-0.377,0.416l-0.429,0.039v0.988
		h3.094v-1.04l-0.741-0.039v-5.46H176.367z M169.828,28.9c-0.06,0.056-0.156,0.093-0.286,0.11l-0.429,0.039v0.988h3.094v-1.04
		l-0.741-0.039h-0.013v-1.443c0.304-0.043,0.598-0.104,0.884-0.182l1.482,2.704h1.898v-1.04l-0.793-0.039l-1.274-2.288
		c0.65-0.511,1.032-1.209,1.144-2.093l0.624-0.026v-1.053h-2.691v1.014l0.494,0.026c0.165,0,0.247,0.074,0.247,0.221
		c0,0.052-0.013,0.121-0.039,0.208c-0.13,0.407-0.372,0.737-0.728,0.988c-0.355,0.251-0.771,0.399-1.248,0.442v-5.629h-2.314v1.079
		l0.455,0.026c0.122,0.009,0.206,0.039,0.254,0.091c0.047,0.052,0.071,0.147,0.071,0.286v6.331
		C169.919,28.737,169.889,28.843,169.828,28.9 M161.223,28.9c-0.061,0.056-0.156,0.093-0.286,0.11l-0.429,0.039v0.988h3.484V29.01
		l-1.131-0.052v-3.016c0-0.381,0.11-0.695,0.331-0.943c0.221-0.247,0.505-0.37,0.852-0.37c0.138,0,0.255,0.022,0.351,0.065
		c0.086,0.043,0.13,0.152,0.13,0.325v0.598l1.209-0.091v-1.937c-0.39-0.191-0.8-0.286-1.229-0.286s-0.808,0.11-1.137,0.332
		c-0.33,0.221-0.572,0.5-0.728,0.838v-0.975h-2.197v1.053l0.546,0.039c0.121,0.009,0.205,0.041,0.253,0.098
		c0.048,0.056,0.072,0.153,0.072,0.292v3.601C161.314,28.737,161.283,28.843,161.223,28.9 M154.411,29.355
		c0.511,0.584,1.219,0.877,2.125,0.877s1.649-0.308,2.23-0.923c0.58-0.615,0.871-1.521,0.871-2.717c0-0.572-0.072-1.068-0.215-1.489
		c-0.143-0.42-0.316-0.74-0.52-0.962c-0.204-0.22-0.485-0.415-0.845-0.584c-0.36-0.17-0.799-0.254-1.319-0.254
		c-0.746,0-1.426,0.234-2.041,0.702c-0.321,0.251-0.577,0.613-0.767,1.085c-0.191,0.473-0.286,1.03-0.286,1.671
		C153.644,27.905,153.899,28.769,154.411,29.355 M155.893,28.88c-0.451-0.312-0.676-1.079-0.676-2.301
		c0-0.659,0.117-1.179,0.351-1.56c0.234-0.381,0.6-0.572,1.098-0.572s0.854,0.199,1.066,0.598c0.212,0.399,0.319,0.984,0.319,1.755
		c0,1.525-0.473,2.288-1.417,2.288C156.339,29.088,156.092,29.019,155.893,28.88 M147.547,29.355
		c0.511,0.584,1.219,0.877,2.125,0.877s1.649-0.308,2.23-0.923c0.58-0.615,0.871-1.521,0.871-2.717c0-0.572-0.072-1.068-0.215-1.489
		c-0.143-0.42-0.316-0.74-0.52-0.962c-0.204-0.22-0.485-0.415-0.845-0.584c-0.36-0.17-0.799-0.254-1.319-0.254
		c-0.746,0-1.426,0.234-2.041,0.702c-0.321,0.251-0.577,0.613-0.767,1.085c-0.191,0.473-0.286,1.03-0.286,1.671
		C146.78,27.905,147.035,28.769,147.547,29.355 M149.029,28.88c-0.451-0.312-0.676-1.079-0.676-2.301
		c0-0.659,0.117-1.179,0.351-1.56c0.234-0.381,0.6-0.572,1.098-0.572s0.854,0.199,1.066,0.598c0.212,0.399,0.319,0.984,0.319,1.755
		c0,1.525-0.473,2.288-1.417,2.288C149.475,29.088,149.228,29.019,149.029,28.88 M143.673,24.538l0.676,0.039l-1.3,4.277h-0.026
		l-1.339-4.277l0.793-0.039v-1.04h-3.055v1.014l0.377,0.026c0.112,0.009,0.192,0.035,0.24,0.078
		c0.048,0.043,0.093,0.126,0.137,0.247l1.82,5.174h1.989l1.677-5.187c0.06-0.191,0.177-0.295,0.351-0.312l0.403-0.026v-1.014h-2.743
		V24.538z M130.608,28.9c-0.061,0.056-0.156,0.093-0.286,0.11l-0.429,0.039v0.988h3.094v-1.04l-0.741-0.039h-0.013v-1.443
		c0.303-0.043,0.598-0.104,0.884-0.182l1.482,2.704h1.898v-1.04l-0.793-0.039l-1.274-2.288c0.65-0.511,1.031-1.209,1.144-2.093
		l0.624-0.026v-1.053h-2.691v1.014l0.494,0.026c0.164,0,0.247,0.074,0.247,0.221c0,0.052-0.013,0.121-0.039,0.208
		c-0.13,0.407-0.373,0.737-0.728,0.988c-0.356,0.251-0.772,0.399-1.248,0.442v-5.629h-2.314v1.079l0.455,0.026
		c0.121,0.009,0.205,0.039,0.253,0.091c0.048,0.052,0.072,0.147,0.072,0.286v6.331C130.699,28.737,130.668,28.843,130.608,28.9
		 M127.566,22.64c0.294,0,0.535-0.089,0.721-0.267c0.186-0.177,0.28-0.405,0.28-0.682c0-0.277-0.094-0.509-0.28-0.696
		c-0.186-0.186-0.427-0.279-0.721-0.279c-0.295,0-0.533,0.093-0.715,0.279c-0.182,0.187-0.273,0.419-0.273,0.696
		c0,0.277,0.091,0.505,0.273,0.682C127.033,22.551,127.271,22.64,127.566,22.64 M126.162,23.498v1.079l0.455,0.026
		c0.121,0.009,0.205,0.039,0.253,0.091c0.048,0.052,0.072,0.147,0.072,0.286v5.434c0,0.416-0.063,0.711-0.189,0.884
		c-0.126,0.173-0.329,0.26-0.611,0.26c-0.282,0-0.591-0.091-0.929-0.273l-0.468,1.079c0.485,0.303,1.04,0.455,1.664,0.455
		c0.875,0,1.456-0.26,1.742-0.78c0.225-0.433,0.338-0.997,0.338-1.69v-6.851H126.162z M123.796,22.64
		c0.294,0,0.535-0.089,0.721-0.267c0.187-0.177,0.28-0.405,0.28-0.682c0-0.277-0.093-0.509-0.28-0.696
		c-0.186-0.186-0.427-0.279-0.721-0.279c-0.295,0-0.533,0.093-0.715,0.279c-0.182,0.187-0.273,0.419-0.273,0.696
		c0,0.277,0.091,0.505,0.273,0.682C123.263,22.551,123.501,22.64,123.796,22.64 M122.392,23.498v1.079l0.455,0.026
		c0.121,0,0.206,0.026,0.253,0.078c0.048,0.052,0.072,0.152,0.072,0.299v3.614c0,0.251-0.126,0.39-0.377,0.416l-0.429,0.039v0.988
		h3.094v-1.04l-0.741-0.039v-5.46H122.392z M118.336,23.205c-0.208,0.256-0.516,0.401-0.923,0.436l-0.13,0.949h0.923v3.471
		c0,0.26,0.004,0.457,0.013,0.591c0.008,0.135,0.047,0.319,0.117,0.553c0.069,0.234,0.169,0.412,0.299,0.533
		s0.329,0.232,0.598,0.332c0.268,0.099,0.598,0.149,0.988,0.149c0.667,0,1.217-0.152,1.651-0.455l-0.39-1.001
		c-0.295,0.182-0.587,0.273-0.878,0.273c-0.29,0-0.505-0.076-0.643-0.228c-0.139-0.151-0.208-0.418-0.208-0.799V24.59h1.599
		l0.13-1.092h-1.729V22.12h-0.845C118.734,22.588,118.544,22.95,118.336,23.205 M111.212,28.9c-0.061,0.056-0.156,0.093-0.286,0.11
		l-0.429,0.039v0.988h3.094v-1.04l-0.741-0.039h-0.013v-1.443c0.303-0.043,0.598-0.104,0.884-0.182l1.482,2.704h1.898v-1.04
		l-0.793-0.039l-1.274-2.288c0.65-0.511,1.031-1.209,1.144-2.093l0.624-0.026v-1.053h-2.691v1.014l0.494,0.026
		c0.164,0,0.247,0.074,0.247,0.221c0,0.052-0.013,0.121-0.039,0.208c-0.13,0.407-0.373,0.737-0.728,0.988
		c-0.356,0.251-0.772,0.399-1.248,0.442v-5.629h-2.314v1.079l0.455,0.026c0.121,0.009,0.205,0.039,0.253,0.091
		s0.072,0.147,0.072,0.286v6.331C111.303,28.737,111.272,28.843,111.212,28.9 M107.091,28.756c-0.243,0.23-0.555,0.345-0.936,0.345
		c-0.902,0-1.352-0.702-1.352-2.106c0-0.771,0.13-1.391,0.39-1.859c0.26-0.468,0.68-0.702,1.261-0.702
		c0.424,0,0.758,0.056,1.001,0.169v3.367C107.455,28.265,107.333,28.527,107.091,28.756 M106.649,23.303
		c-1.144,0-2.002,0.329-2.574,0.988c-0.572,0.659-0.858,1.577-0.858,2.756c0,0.979,0.212,1.751,0.637,2.314
		c0.424,0.563,1.079,0.845,1.963,0.845c0.754,0,1.347-0.312,1.781-0.936l0.039,0.013v0.754h2.067v-1.04l-0.416-0.026
		c-0.122-0.009-0.206-0.039-0.254-0.091c-0.047-0.052-0.071-0.147-0.071-0.286v-4.836C108.157,23.455,107.385,23.303,106.649,23.303
		 M97.835,28.9c-0.061,0.056-0.156,0.093-0.286,0.11l-0.429,0.039v0.988h3.484V29.01l-1.131-0.052v-3.016
		c0-0.381,0.111-0.695,0.332-0.943c0.221-0.247,0.504-0.37,0.851-0.37c0.139,0,0.256,0.022,0.351,0.065
		c0.087,0.043,0.13,0.152,0.13,0.325v0.598l1.209-0.091v-1.937c-0.39-0.191-0.799-0.286-1.228-0.286s-0.809,0.11-1.138,0.332
		c-0.329,0.221-0.572,0.5-0.728,0.838v-0.975h-2.197v1.053l0.546,0.039c0.121,0.009,0.206,0.041,0.254,0.098
		c0.047,0.056,0.071,0.153,0.071,0.292v3.601C97.926,28.737,97.896,28.843,97.835,28.9 M94.228,28.347
		c-0.239,0.433-0.594,0.65-1.066,0.65c-0.473,0-0.874-0.108-1.203-0.325v-2.99c0-0.303,0.128-0.566,0.384-0.787
		c0.255-0.22,0.565-0.331,0.929-0.331c0.875,0,1.313,0.724,1.313,2.171C94.585,27.376,94.466,27.914,94.228,28.347 M90.373,31.59
		c-0.061,0.057-0.156,0.094-0.286,0.111l-0.429,0.039v0.988h3.354v-1.027l-1.053-0.052v-1.794c0.407,0.251,0.871,0.377,1.391,0.377
		c0.875,0,1.569-0.312,2.08-0.936c0.511-0.624,0.767-1.521,0.767-2.691c0-2.201-0.784-3.302-2.353-3.302
		c-0.503,0-0.936,0.108-1.3,0.325c-0.364,0.217-0.615,0.455-0.754,0.715v-0.845h-2.197v1.053l0.546,0.039
		c0.121,0,0.206,0.028,0.254,0.085c0.047,0.056,0.071,0.158,0.071,0.305v6.292C90.464,31.428,90.434,31.534,90.373,31.59
		 M85.069,26.371c0.026-0.537,0.169-0.999,0.429-1.385c0.26-0.385,0.633-0.578,1.118-0.578c0.52,0,0.78,0.264,0.78,0.793
		c0,0.269-0.134,0.5-0.403,0.695c-0.269,0.196-0.561,0.321-0.877,0.378C85.799,26.33,85.45,26.362,85.069,26.371 M84.341,24.343
		c-0.563,0.693-0.845,1.551-0.845,2.574c0,1.023,0.247,1.826,0.741,2.412c0.494,0.584,1.27,0.877,2.327,0.877
		c0.529,0,0.999-0.082,1.411-0.247c0.411-0.165,0.704-0.325,0.877-0.481l-0.494-1.053c-0.537,0.381-1.075,0.572-1.612,0.572
		s-0.936-0.141-1.196-0.422c-0.26-0.282-0.403-0.653-0.429-1.112c0.728,0,1.382-0.087,1.963-0.26
		c0.347-0.104,0.641-0.238,0.884-0.403c0.243-0.165,0.446-0.392,0.611-0.682c0.165-0.291,0.247-0.627,0.247-1.008
		c0-0.572-0.191-1.016-0.572-1.332c-0.381-0.317-0.897-0.475-1.547-0.475C85.693,23.303,84.904,23.65,84.341,24.343 M81.026,22.64
		c0.295,0,0.535-0.089,0.722-0.267c0.186-0.177,0.279-0.405,0.279-0.682c0-0.277-0.093-0.509-0.279-0.696
		c-0.187-0.186-0.427-0.279-0.722-0.279c-0.294,0-0.533,0.093-0.715,0.279c-0.182,0.187-0.273,0.419-0.273,0.696
		c0,0.277,0.091,0.505,0.273,0.682C80.493,22.551,80.732,22.64,81.026,22.64 M79.622,23.498v1.079l0.455,0.026
		c0.122,0,0.206,0.026,0.254,0.078c0.047,0.052,0.071,0.152,0.071,0.299v3.614c0,0.251-0.125,0.39-0.377,0.416l-0.429,0.039v0.988
		h3.094v-1.04l-0.741-0.039v-5.46H79.622z M76.19,28.756c-0.234,0.204-0.528,0.306-0.884,0.306c-0.936,0-1.404-0.728-1.404-2.184
		c0-0.711,0.132-1.296,0.397-1.755c0.264-0.459,0.682-0.689,1.254-0.689c0.347,0,0.676,0.069,0.988,0.208v3.367
		C76.541,28.304,76.424,28.553,76.19,28.756 M73.142,24.317c-0.559,0.676-0.839,1.577-0.839,2.704c0,0.867,0.182,1.599,0.546,2.197
		c0.399,0.659,1.092,0.988,2.08,0.988c0.789,0,1.378-0.316,1.768-0.949l0.039,0.013v0.767h2.106v-1.04l-0.455-0.026
		c-0.208,0-0.316-0.1-0.325-0.299v-7.904h-2.418v1.027l0.559,0.039c0.226,0.017,0.338,0.121,0.338,0.312v1.313
		c-0.338-0.104-0.693-0.156-1.066-0.156C74.479,23.303,73.701,23.641,73.142,24.317 M67.546,26.371
		c0.026-0.537,0.169-0.999,0.429-1.385c0.26-0.385,0.632-0.578,1.118-0.578c0.52,0,0.78,0.264,0.78,0.793
		c0,0.269-0.135,0.5-0.403,0.695c-0.269,0.196-0.562,0.321-0.878,0.378C68.276,26.33,67.927,26.362,67.546,26.371 M66.818,24.343
		c-0.564,0.693-0.845,1.551-0.845,2.574c0,1.023,0.247,1.826,0.741,2.412c0.494,0.584,1.269,0.877,2.327,0.877
		c0.528,0,0.998-0.082,1.41-0.247c0.412-0.165,0.704-0.325,0.878-0.481l-0.494-1.053c-0.538,0.381-1.075,0.572-1.612,0.572
		c-0.538,0-0.936-0.141-1.196-0.422c-0.26-0.282-0.403-0.653-0.429-1.112c0.728,0,1.382-0.087,1.963-0.26
		c0.346-0.104,0.641-0.238,0.884-0.403c0.242-0.165,0.446-0.392,0.611-0.682c0.164-0.291,0.247-0.627,0.247-1.008
		c0-0.572-0.191-1.016-0.572-1.332c-0.382-0.317-0.897-0.475-1.547-0.475C68.17,23.303,67.381,23.65,66.818,24.343 M63.028,28.347
		c-0.238,0.433-0.594,0.65-1.066,0.65s-0.873-0.108-1.202-0.325v-2.99c0-0.303,0.127-0.566,0.383-0.787
		c0.256-0.22,0.566-0.331,0.93-0.331c0.875,0,1.313,0.724,1.313,2.171C63.386,27.376,63.266,27.914,63.028,28.347 M59.174,31.59
		c-0.061,0.057-0.156,0.094-0.286,0.111l-0.429,0.039v0.988h3.354v-1.027l-1.053-0.052v-1.794c0.407,0.251,0.871,0.377,1.391,0.377
		c0.875,0,1.568-0.312,2.08-0.936c0.511-0.624,0.767-1.521,0.767-2.691c0-2.201-0.785-3.302-2.353-3.302
		c-0.503,0-0.936,0.108-1.3,0.325c-0.364,0.217-0.616,0.455-0.754,0.715v-0.845h-2.197v1.053l0.546,0.039
		c0.121,0,0.205,0.028,0.253,0.085c0.048,0.056,0.072,0.158,0.072,0.305v6.292C59.265,31.428,59.234,31.534,59.174,31.59
		 M52.44,29.355c0.511,0.584,1.219,0.877,2.125,0.877c0.906,0,1.649-0.308,2.23-0.923c0.58-0.615,0.871-1.521,0.871-2.717
		c0-0.572-0.072-1.068-0.215-1.489c-0.143-0.42-0.316-0.74-0.52-0.962c-0.204-0.22-0.485-0.415-0.845-0.584
		c-0.36-0.17-0.799-0.254-1.319-0.254c-0.746,0-1.426,0.234-2.041,0.702c-0.321,0.251-0.577,0.613-0.767,1.085
		c-0.191,0.473-0.286,1.03-0.286,1.671C51.673,27.905,51.928,28.769,52.44,29.355 M53.922,28.88
		c-0.451-0.312-0.676-1.079-0.676-2.301c0-0.659,0.117-1.179,0.351-1.56c0.234-0.381,0.6-0.572,1.098-0.572s0.854,0.199,1.066,0.598
		c0.212,0.399,0.319,0.984,0.319,1.755c0,1.525-0.473,2.288-1.417,2.288C54.368,29.088,54.121,29.019,53.922,28.88 M48.65,28.314
		c-0.256,0.23-0.57,0.345-0.942,0.345c-0.902,0-1.352-0.685-1.352-2.054c0-0.667,0.14-1.196,0.422-1.586
		c0.282-0.39,0.687-0.585,1.216-0.585c0.39,0,0.736,0.052,1.04,0.156v2.795C49.034,27.775,48.906,28.085,48.65,28.314
		 M50.516,30.024c0.017-0.208,0.026-0.68,0.026-1.417v-4.823c-0.754-0.321-1.556-0.481-2.405-0.481
		c-1.023,0-1.842,0.293-2.457,0.877c-0.616,0.585-0.923,1.446-0.923,2.581c0,0.797,0.186,1.491,0.559,2.08
		c0.19,0.295,0.457,0.529,0.799,0.702c0.342,0.173,0.739,0.26,1.19,0.26c0.736,0,1.313-0.243,1.729-0.728v0.715
		c0,0.607-0.113,1.077-0.338,1.41c-0.226,0.334-0.616,0.501-1.17,0.501c-0.382,0-0.681-0.041-0.897-0.124
		c-0.217-0.082-0.325-0.24-0.325-0.474v-0.624l-1.235,0.104v1.807c0.572,0.286,1.365,0.429,2.379,0.429s1.759-0.225,2.236-0.676
		C50.16,31.692,50.438,30.986,50.516,30.024 M38.634,29.355c0.511,0.584,1.219,0.877,2.125,0.877c0.906,0,1.649-0.308,2.23-0.923
		c0.58-0.615,0.871-1.521,0.871-2.717c0-0.572-0.072-1.068-0.215-1.489c-0.143-0.42-0.316-0.74-0.52-0.962
		c-0.204-0.22-0.485-0.415-0.845-0.584c-0.36-0.17-0.799-0.254-1.319-0.254c-0.746,0-1.426,0.234-2.041,0.702
		c-0.321,0.251-0.577,0.613-0.767,1.085c-0.191,0.473-0.286,1.03-0.286,1.671C37.867,27.905,38.122,28.769,38.634,29.355
		 M40.116,28.88c-0.451-0.312-0.676-1.079-0.676-2.301c0-0.659,0.117-1.179,0.351-1.56c0.234-0.381,0.6-0.572,1.098-0.572
		c0.498,0,0.854,0.199,1.066,0.598c0.212,0.399,0.319,0.984,0.319,1.755c0,1.525-0.473,2.288-1.417,2.288
		C40.562,29.088,40.315,29.019,40.116,28.88 M33.993,20.768v1.079l0.455,0.026c0.216,0.017,0.325,0.121,0.325,0.312v6.409
		c0,0.251-0.126,0.39-0.377,0.416l-0.429,0.039v0.988h3.094v-1.04l-0.741-0.039v-8.19H33.993z M27.428,22.744l1.664-1.612
		c0.216-0.199,0.325-0.386,0.325-0.559s-0.126-0.329-0.377-0.468l-0.611-0.286l-1.508,2.496L27.428,22.744z M26.726,26.371
		c0.026-0.537,0.169-0.999,0.429-1.385c0.26-0.385,0.632-0.578,1.118-0.578c0.52,0,0.78,0.264,0.78,0.793
		c0,0.269-0.135,0.5-0.403,0.695c-0.269,0.196-0.561,0.321-0.878,0.378C27.456,26.33,27.107,26.362,26.726,26.371 M25.998,24.343
		c-0.564,0.693-0.845,1.551-0.845,2.574c0,1.023,0.247,1.826,0.741,2.412c0.494,0.584,1.269,0.877,2.327,0.877
		c0.528,0,0.999-0.082,1.41-0.247c0.412-0.165,0.704-0.325,0.878-0.481l-0.494-1.053c-0.538,0.381-1.075,0.572-1.612,0.572
		c-0.538,0-0.936-0.141-1.196-0.422c-0.26-0.282-0.403-0.653-0.429-1.112c0.728,0,1.382-0.087,1.963-0.26
		c0.346-0.104,0.641-0.238,0.884-0.403c0.242-0.165,0.446-0.392,0.611-0.682c0.164-0.291,0.247-0.627,0.247-1.008
		c0-0.572-0.191-1.016-0.572-1.332c-0.382-0.317-0.897-0.475-1.547-0.475C27.35,23.303,26.561,23.65,25.998,24.343 M20.018,22.653
		c1.69,0,2.535,0.997,2.535,2.99c0,1.023-0.208,1.803-0.624,2.34s-0.997,0.806-1.742,0.806h-1.326v-6.136H20.018z M20.161,30.037
		c1.109,0,2.037-0.347,2.782-1.04c0.373-0.347,0.667-0.825,0.884-1.437c0.217-0.61,0.325-1.328,0.325-2.151
		c0-1.326-0.358-2.327-1.072-3.003c-0.715-0.676-1.71-1.014-2.984-1.014h-3.562v1.105l0.741,0.039v6.045
		c0,0.217-0.126,0.338-0.377,0.364l-0.429,0.039v1.053H20.161z"/>
</g>
</svg>
