<!-- Generator: Adobe Illustrator 19.0.0, SVG Export Plug-In  -->
<svg version="1.1"
	 xmlns="http://www.w3.org/2000/svg" xmlns:xlink="http://www.w3.org/1999/xlink" xmlns:a="http://ns.adobe.com/AdobeSVGViewerExtensions/3.0/"
	 x="0px" y="0px" width="936.1px" height="875.1px" viewBox="0 0 936.1 875.1" style="enable-background:new 0 0 936.1 875.1;"
	 xml:space="preserve">
<style type="text/css">
	.st0{fill:#323744;}
</style>
<defs>
</defs>
<path class="st0" d="M776.5,466.6l-170.4-16H339l-7.5,0.5v-103L279,312.5V163.9l-28.3-24V0h-5v139.8l-31.5,21v151.7l-65.3,41.7V466
	L0,501.6v302.5l148.8,39.1L333,875.1h276l165-22.9l162-53.3V501.6L776.5,466.6z M250.7,293.3v-6.8h5L252,282v-1.9h3.7l-3.7-4.4v-2
	h3.7l-3.7-4.4v-1.9h3.7L252,263v-2.2h3.7l-3.7-4.4v-4.4h-1.3v-5.9l23.3,1v62.2L250.7,293.3z M250.7,181.8v-14.6l23.3,1v71.3
	l-23.3-17.3V181.8z M250.7,162.2v-15.7l19.5,16.5L250.7,162.2z M245.7,162l-22.9-1l22.9-15.3V162z M245.7,167v14.9v40.2l-26.5,15.6
	v-71.7L245.7,167z M245.7,227.8v12.8l-20.4-0.9L245.7,227.8z M250.7,228.4l17.8,13.2l-17.8-0.7V228.4z M219.1,244.6l26.5,1.1v6.1
	h-2.3v4.1l-4.3,4.8h4.3v1.9l-4.3,4.8h4.3v1.5l-4.3,4.8h4.3v1.7l-4.3,4.8h4.3v1.5l-4.3,4.8h6.6v5.8l-26.5,17V244.6z"/>
</svg>
