<!-- Generator: Adobe Illustrator 19.0.0, SVG Export Plug-In  -->
<svg version="1.1"
	 xmlns="http://www.w3.org/2000/svg" xmlns:xlink="http://www.w3.org/1999/xlink" xmlns:a="http://ns.adobe.com/AdobeSVGViewerExtensions/3.0/"
	 x="0px" y="0px" width="938.105px" height="604.512px" viewBox="0 0 938.105 604.512"
	 style="enable-background:new 0 0 938.105 604.512;" xml:space="preserve">
<style type="text/css">
	.st0{clip-path:url(#XMLID_103_);fill:#4B9F98;}
	.st1{fill:#F18418;}
	.st2{fill:#F08218;}
	.st3{fill:#499D98;}
	.st4{clip-path:url(#XMLID_104_);fill:#4B9F98;}
</style>
<defs>
</defs>
<g id="XMLID_22_">
	<defs>
		<rect id="XMLID_23_" y="0.004" width="938.105" height="604.508"/>
	</defs>
	<clipPath id="XMLID_103_">
		<use xlink:href="#XMLID_23_"  style="overflow:visible;"/>
	</clipPath>
	<path id="XMLID_102_" class="st0" d="M110.475,299.571c-5.91-10.03-8.864-20.083-8.864-30.16c0-10.071,2.955-20.283,8.864-30.625
		l6.38,2.955c-4.88,9.63-7.322,18.718-7.322,27.27c0,8.552,2.419,17.729,7.257,27.535L110.475,299.571z"/>
	<path id="XMLID_99_" class="st0" d="M133.716,265.583h4.832c6.539,0,9.806-2.66,9.806-7.993c0-3.22-0.836-5.362-2.519-6.41
		c-1.678-1.054-4.356-1.583-8.023-1.583h-4.097V265.583z M121.355,287.75v-5.439l2.219-0.206c1.295-0.129,1.948-0.759,1.948-1.878
		v-31.231l-3.832-0.206v-5.709h19.212c5.015,0,8.917,1.177,11.719,3.532c2.796,2.349,4.197,5.874,4.197,10.577
		s-1.589,8.364-4.768,10.983c-3.178,2.619-7.387,3.926-12.626,3.926h-5.709v9.741l6.445,0.2v5.709H121.355z"/>
	<path id="XMLID_98_" class="st0" d="M181.705,252.957c-2.219,0-4.173,0.571-5.88,1.713c-1.701,1.142-2.955,2.584-3.761,4.332
		v-5.038h-10.23c0.13,1.03,0.194,2.107,0.194,3.226c0,0.783-0.035,1.554-0.106,2.301l1.613,0.118c0.63,0.041,1.065,0.212,1.313,0.5
		c0.241,0.294,0.365,0.795,0.365,1.513v18.606c0,0.806-0.153,1.354-0.465,1.648c-0.318,0.288-0.806,0.477-1.477,0.571l-2.219,0.2
		v5.103h18v-5.303l-5.845-0.271v-15.586c0-1.966,0.571-3.59,1.713-4.868c1.142-1.277,2.613-1.913,4.403-1.913
		c0.712,0,1.318,0.112,1.813,0.335c0.447,0.224,0.671,0.783,0.671,1.678v3.09l6.245-0.471v-10.006
		C186.037,253.452,183.924,252.957,181.705,252.957"/>
	<path id="XMLID_95_" class="st0" d="M205.885,268.302c1.63-0.288,3.143-0.936,4.532-1.942c1.389-1.012,2.084-2.207,2.084-3.596
		c0-2.731-1.342-4.097-4.032-4.097c-2.507,0-4.432,0.995-5.774,2.99c-1.342,1.99-2.084,4.373-2.219,7.152
		C202.448,268.767,204.249,268.597,205.885,268.302 M208.94,252.957c3.361,0,6.021,0.818,7.993,2.454
		c1.972,1.63,2.955,3.926,2.955,6.881c0,1.972-0.424,3.708-1.277,5.209c-0.848,1.495-1.901,2.672-3.155,3.526
		c-1.254,0.848-2.778,1.542-4.568,2.078c-3.002,0.901-6.38,1.348-10.142,1.348c0.135,2.372,0.871,4.285,2.213,5.739
		c1.348,1.46,3.402,2.184,6.18,2.184s5.551-0.983,8.329-2.955l2.555,5.439c-0.895,0.806-2.407,1.636-4.532,2.49
		c-2.131,0.848-4.562,1.271-7.293,1.271c-5.462,0-9.465-1.507-12.019-4.532c-2.555-3.02-3.832-7.175-3.832-12.461
		c0-5.28,1.46-9.712,4.367-13.297C199.629,254.747,203.702,252.957,208.94,252.957"/>
	<path id="XMLID_94_" class="st0" d="M231.105,238.651c5.91,10.03,8.864,20.083,8.864,30.16c0,10.071-2.955,20.283-8.864,30.625
		l-6.38-2.955c4.88-9.624,7.322-18.718,7.322-27.27c0-8.552-2.419-17.729-7.258-27.541L231.105,238.651z"/>
	<path id="XMLID_90_" class="st0" d="M298.341,282.849c4.88,0,7.316-3.944,7.316-11.825c0-3.985-0.547-7.004-1.642-9.064
		c-1.101-2.06-2.937-3.09-5.509-3.09c-2.572,0-4.468,0.983-5.674,2.955c-1.213,1.972-1.813,4.656-1.813,8.058
		c0,6.316,1.16,10.277,3.49,11.89C295.539,282.49,296.817,282.849,298.341,282.849 M282.89,270.824c0-3.314,0.494-6.192,1.477-8.629
		c0.983-2.443,2.307-4.309,3.961-5.609c3.178-2.419,6.698-3.626,10.548-3.626c2.684,0,4.956,0.436,6.816,1.307
		c1.86,0.871,3.314,1.884,4.367,3.025c1.048,1.142,1.948,2.796,2.684,4.968c0.742,2.172,1.112,4.732,1.112,7.693
		c0,6.174-1.501,10.86-4.503,14.038c-3.002,3.178-6.84,4.768-11.519,4.768s-8.341-1.513-10.983-4.532
		C284.209,281.201,282.89,276.733,282.89,270.824"/>
	<path id="XMLID_89_" class="st0" d="M277.823,274.204l-6.016-0.224v4.703c0,0.759-0.1,1.307-0.3,1.642
		c-0.206,0.335-0.618,0.506-1.242,0.506h-11.154v-29.96c0-1.295,0.647-2.013,1.948-2.148l2.219-0.2v-5.439h-16.187v5.709l3.826,0.2
		v31.231c0,1.124-0.647,1.748-1.948,1.884l-2.213,0.2v5.439h36.264c-0.029-0.029-0.065-0.059-0.094-0.094
		C280.013,284.316,278.306,279.802,277.823,274.204"/>
	<path id="XMLID_86_" class="st0" d="M340.584,274.045v-14.438c-1.566-0.536-3.355-0.806-5.374-0.806
		c-2.731,0-4.821,1.007-6.275,3.025c-1.46,2.013-2.184,4.744-2.184,8.193c0,7.075,2.325,10.613,6.987,10.613
		c1.919,0,3.543-0.594,4.868-1.783C339.925,277.665,340.584,276.064,340.584,274.045 M343.945,298.631
		c-2.466,2.331-6.316,3.49-11.554,3.49c-5.239,0-9.335-0.736-12.29-2.213v-9.335l6.38-0.542v3.226c0,1.213,0.559,2.025,1.678,2.454
		c1.118,0.424,2.666,0.636,4.638,0.636c2.861,0,4.88-0.865,6.045-2.584c1.165-1.725,1.742-4.156,1.742-7.287v-3.696
		c-2.148,2.507-5.127,3.761-8.929,3.761c-2.331,0-4.379-0.447-6.145-1.342c-1.772-0.895-3.149-2.107-4.132-3.626
		c-1.925-3.049-2.89-6.628-2.89-10.748c0-5.868,1.589-10.312,4.768-13.332c3.178-3.025,7.411-4.538,12.696-4.538
		c4.391,0,8.529,0.83,12.425,2.49v24.916c0,3.808-0.047,6.245-0.135,7.322C347.841,292.65,346.405,296.3,343.945,298.631"/>
	<path id="XMLID_83_" class="st0" d="M369.672,282.849c4.88,0,7.316-3.944,7.316-11.825c0-3.985-0.547-7.004-1.642-9.064
		c-1.101-2.06-2.931-3.09-5.509-3.09c-2.572,0-4.468,0.983-5.674,2.955c-1.213,1.972-1.813,4.656-1.813,8.058
		c0,6.316,1.16,10.277,3.49,11.89C366.87,282.49,368.148,282.849,369.672,282.849 M354.221,270.824c0-3.314,0.494-6.192,1.477-8.629
		c0.983-2.443,2.307-4.309,3.961-5.609c3.178-2.419,6.698-3.626,10.548-3.626c2.684,0,4.956,0.436,6.816,1.307
		c1.86,0.871,3.314,1.884,4.367,3.025c1.048,1.142,1.948,2.796,2.684,4.968c0.742,2.172,1.112,4.732,1.112,7.693
		c0,6.174-1.501,10.86-4.503,14.038c-3.002,3.178-6.84,4.768-11.519,4.768s-8.341-1.513-10.983-4.532
		C355.54,281.201,354.221,276.733,354.221,270.824"/>
	<path id="XMLID_80_" class="st0" d="M414.737,270.687c0-7.475-2.26-11.213-6.781-11.213c-1.884,0-3.485,0.571-4.803,1.713
		c-1.324,1.142-1.984,2.496-1.984,4.061v15.451c1.701,1.118,3.773,1.678,6.216,1.678c2.437,0,4.273-1.118,5.509-3.361
		C414.125,276.779,414.737,274.006,414.737,270.687 M393.447,294.131v-32.509c0-0.759-0.124-1.289-0.371-1.577
		c-0.247-0.294-0.683-0.436-1.307-0.436l-2.825-0.206v-5.439h11.354v4.367c0.718-1.342,2.013-2.578,3.897-3.696
		c1.878-1.118,4.12-1.678,6.716-1.678c8.105,0,12.155,5.686,12.155,17.058c0,6.045-1.318,10.683-3.961,13.909
		c-2.643,3.22-6.222,4.832-10.748,4.832c-2.684,0-5.08-0.647-7.187-1.948v9.271l5.445,0.271v5.303H389.28v-5.103l2.219-0.2
		c0.671-0.094,1.165-0.283,1.477-0.571C393.288,295.485,393.447,294.937,393.447,294.131"/>
	<path id="XMLID_77_" class="st0" d="M441.64,268.302c1.63-0.288,3.143-0.936,4.532-1.942c1.389-1.012,2.084-2.207,2.084-3.596
		c0-2.731-1.342-4.097-4.032-4.097c-2.507,0-4.432,0.995-5.774,2.99c-1.342,1.99-2.084,4.373-2.219,7.152
		C438.203,268.767,440.004,268.597,441.64,268.302 M444.695,252.957c3.361,0,6.021,0.818,7.993,2.454
		c1.972,1.63,2.955,3.926,2.955,6.881c0,1.972-0.424,3.708-1.277,5.209c-0.848,1.495-1.901,2.672-3.155,3.526
		c-1.254,0.848-2.778,1.542-4.568,2.078c-3.002,0.901-6.38,1.348-10.142,1.348c0.135,2.372,0.871,4.285,2.213,5.739
		c1.348,1.46,3.408,2.184,6.18,2.184c2.778,0,5.551-0.983,8.329-2.955l2.555,5.439c-0.895,0.806-2.407,1.636-4.532,2.49
		c-2.131,0.848-4.562,1.271-7.287,1.271c-5.468,0-9.471-1.507-12.025-4.532c-2.555-3.02-3.832-7.175-3.832-12.461
		c0-5.28,1.46-9.712,4.367-13.297C435.383,254.747,439.456,252.957,444.695,252.957"/>
	<path id="XMLID_74_" class="st0" d="M482.714,277.273v-17.399c-1.613-0.712-3.314-1.071-5.109-1.071
		c-2.955,0-5.115,1.183-6.48,3.561c-1.366,2.372-2.048,5.392-2.048,9.064c0,7.522,2.419,11.284,7.257,11.284
		c1.836,0,3.355-0.524,4.568-1.577C482.107,280.08,482.714,278.797,482.714,277.273 M477.204,252.957
		c1.925,0,3.761,0.271,5.509,0.806v-6.787c0-0.983-0.583-1.519-1.748-1.607l-2.89-0.206v-5.303h12.496v40.837
		c0.041,1.03,0.606,1.542,1.678,1.542l2.354,0.135v5.374H483.72v-3.961l-0.2-0.071c-2.019,3.273-5.062,4.903-9.135,4.903
		c-5.109,0-8.688-1.701-10.748-5.103c-1.884-3.09-2.819-6.875-2.819-11.348c0-5.821,1.442-10.483,4.332-13.973
		C468.034,254.705,472.054,252.957,477.204,252.957"/>
	<path id="XMLID_70_" class="st0" d="M532.18,268.302c1.63-0.288,3.143-0.936,4.532-1.942c1.389-1.012,2.084-2.207,2.084-3.596
		c0-2.731-1.342-4.097-4.032-4.097c-2.507,0-4.432,0.995-5.774,2.99c-1.342,1.99-2.084,4.373-2.219,7.152
		C528.743,268.767,530.544,268.597,532.18,268.302 M535.235,252.957c3.361,0,6.021,0.818,7.993,2.454
		c1.972,1.63,2.955,3.926,2.955,6.881c0,1.972-0.424,3.708-1.277,5.209c-0.848,1.495-1.901,2.672-3.155,3.526
		c-1.254,0.848-2.778,1.542-4.568,2.078c-3.002,0.901-6.38,1.348-10.142,1.348c0.135,2.372,0.871,4.285,2.213,5.739
		c1.348,1.46,3.402,2.184,6.18,2.184c2.778,0,5.551-0.983,8.329-2.955l2.555,5.439c-0.895,0.806-2.407,1.636-4.532,2.49
		c-2.131,0.848-4.562,1.271-7.293,1.271c-5.462,0-9.471-1.507-12.019-4.532c-2.555-3.02-3.832-7.175-3.832-12.461
		c0-5.28,1.46-9.712,4.367-13.297C525.924,254.747,529.997,252.957,535.235,252.957"/>
	<path id="XMLID_69_" class="st0" d="M515.359,282.273l-4.709-0.1v-28.212h-12.019v5.58l2.349,0.13c0.63,0,1.065,0.135,1.313,0.406
		c0.241,0.271,0.371,0.783,0.371,1.542v18.676c0,1.295-0.653,1.813-1.948,1.948l-2.225,0.1l0.006,5.403h20.266
		c-0.088-0.1-0.182-0.194-0.271-0.294C517.202,285.923,516.16,284.192,515.359,282.273"/>
	<path id="XMLID_68_" class="st0" d="M505.884,249.532c1.524,0,2.766-0.459,3.726-1.377c0.965-0.918,1.448-2.09,1.448-3.526
		c0-1.43-0.483-2.631-1.448-3.596c-0.959-0.959-2.201-1.442-3.726-1.442c-1.525,0-2.755,0.483-3.696,1.442
		c-0.936,0.965-1.407,2.166-1.407,3.596c0,1.436,0.471,2.607,1.407,3.526C503.129,249.073,504.36,249.532,505.884,249.532"/>
	<path id="XMLID_63_" class="st0" d="M576.746,267.399v14.038h6.31c5.821,0,8.735-2.372,8.735-7.122c0-2.237-0.73-3.95-2.184-5.139
		c-1.454-1.183-3.526-1.778-6.216-1.778H576.746z M576.746,249.264v12.155h4.968c2.778,0,4.827-0.571,6.145-1.713
		c1.324-1.142,1.984-2.743,1.984-4.803c0-2.054-0.659-3.514-1.984-4.362c-1.318-0.853-3.214-1.277-5.674-1.277H576.746z
		 M564.721,243.083h18.941c9.671,0,14.509,3.738,14.509,11.219c0,4.12-2.06,7.252-6.18,9.4c2.643,0.671,4.715,1.907,6.216,3.696
		c1.495,1.789,2.248,4.12,2.248,6.987c0,4.344-1.466,7.658-4.403,9.942c-2.931,2.284-7.199,3.426-12.79,3.426h-18.877v-5.445
		l2.219-0.2c1.295-0.135,1.948-0.759,1.948-1.884v-31.231l-3.832-0.2V243.083z"/>
	<path id="XMLID_59_" class="st0" d="M620.203,282.849c4.88,0,7.316-3.944,7.316-11.825c0-3.985-0.547-7.004-1.642-9.064
		c-1.101-2.06-2.931-3.09-5.509-3.09c-2.572,0-4.468,0.983-5.674,2.955c-1.213,1.972-1.813,4.656-1.813,8.058
		c0,6.316,1.16,10.277,3.49,11.89C617.401,282.49,618.679,282.849,620.203,282.849 M604.752,270.824
		c0-3.314,0.494-6.192,1.477-8.629c0.983-2.443,2.307-4.309,3.961-5.609c3.178-2.419,6.698-3.626,10.548-3.626
		c2.684,0,4.956,0.436,6.816,1.307c1.86,0.871,3.314,1.884,4.367,3.025c1.048,1.142,1.948,2.796,2.684,4.968
		c0.742,2.172,1.112,4.732,1.112,7.693c0,6.174-1.501,10.86-4.503,14.038c-3.002,3.178-6.84,4.768-11.519,4.768
		c-4.679,0-8.341-1.513-10.983-4.532C606.071,281.201,604.752,276.733,604.752,270.824"/>
	<path id="XMLID_58_" class="st0" d="M658.419,280.63l-4.097-5.374l-5.574,6.922l3.155,0.2v5.374h-13.968v-5.309l2.078-0.2
		c1.03-0.135,1.925-0.671,2.69-1.613l7.723-9.671l-8.264-11.419l-3.426-0.406v-5.168h15.651v5.303l-1.948,0.135
		c-0.536,0.047-0.883,0.247-1.042,0.606c-0.153,0.359-0.077,0.736,0.235,1.142l3.832,5.103l5.174-6.716l-2.755-0.2v-5.374h13.632
		v5.239l-2.013,0.135c-0.942,0.041-1.836,0.6-2.69,1.678l-7.387,9.335l8.8,11.69l3.426,0.4v5.309h-15.987v-5.309l2.084-0.135
		c0.583-0.041,0.93-0.235,1.042-0.571S658.778,281.03,658.419,280.63"/>
	<path id="XMLID_56_" class="st0" d="M674.673,259.405v-5.439h11.348v4.362c2.507-3.579,5.945-5.368,10.312-5.368
		c4.367,0,7.31,1.789,8.835,5.368c2.507-3.579,5.91-5.368,10.206-5.368c3.226,0,5.709,0.971,7.458,2.919
		c1.748,1.948,2.619,4.868,2.619,8.764v17.529l3.826,0.206v5.374h-15.981v-5.109l2.213-0.2c0.671-0.088,1.154-0.277,1.442-0.571
		c0.294-0.288,0.459-0.818,0.506-1.577v-13.903c0-2.466-0.283-4.291-0.842-5.474c-0.559-1.189-1.866-1.783-3.926-1.783
		s-3.638,0.63-4.738,1.884c-1.095,1.254-1.642,2.931-1.642,5.038v16.116l3.691,0.206v5.374H694.15v-5.109l2.219-0.2
		c0.671-0.088,1.165-0.277,1.477-0.571c0.312-0.288,0.471-0.842,0.471-1.648v-13.832c0-2.466-0.283-4.291-0.842-5.474
		c-0.559-1.189-1.878-1.783-3.961-1.783c-2.084,0-3.661,0.653-4.738,1.948c-1.071,1.301-1.613,2.914-1.613,4.838v16.251l3.632,0.206
		v5.374h-15.851v-5.109l2.213-0.2c0.671-0.088,1.165-0.277,1.477-0.571c0.312-0.288,0.471-0.842,0.471-1.648h0.071v-18.535
		c0-0.759-0.13-1.289-0.371-1.577c-0.247-0.294-0.683-0.459-1.313-0.506L674.673,259.405z"/>
	<path id="XMLID_28_" class="st0" d="M747.047,268.302c1.63-0.288,3.143-0.936,4.532-1.942c1.389-1.012,2.084-2.207,2.084-3.596
		c0-2.731-1.342-4.097-4.032-4.097c-2.507,0-4.432,0.995-5.774,2.99c-1.342,1.99-2.084,4.373-2.219,7.152
		C743.609,268.767,745.411,268.597,747.047,268.302 M750.102,252.957c3.361,0,6.021,0.818,7.993,2.454
		c1.972,1.63,2.955,3.926,2.955,6.881c0,1.972-0.424,3.708-1.277,5.209c-0.848,1.495-1.901,2.672-3.155,3.526
		c-1.254,0.848-2.778,1.542-4.568,2.078c-3.002,0.901-6.38,1.348-10.142,1.348c0.135,2.372,0.871,4.285,2.213,5.739
		c1.348,1.46,3.402,2.184,6.18,2.184s5.551-0.983,8.329-2.955l2.555,5.439c-0.895,0.806-2.407,1.636-4.532,2.49
		c-2.131,0.848-4.562,1.271-7.287,1.271c-5.468,0-9.471-1.507-12.025-4.532c-2.555-3.02-3.832-7.175-3.832-12.461
		c0-5.28,1.46-9.712,4.367-13.297C740.79,254.747,744.863,252.957,750.102,252.957"/>
	<path id="XMLID_25_" class="st0" d="M779.555,268.302c1.63-0.288,3.143-0.936,4.532-1.942c1.389-1.012,2.084-2.207,2.084-3.596
		c0-2.731-1.342-4.097-4.032-4.097c-2.508,0-4.432,0.995-5.774,2.99c-1.342,1.99-2.084,4.373-2.219,7.152
		C776.118,268.767,777.919,268.597,779.555,268.302 M782.61,252.957c3.361,0,6.021,0.818,7.993,2.454
		c1.972,1.63,2.955,3.926,2.955,6.881c0,1.972-0.424,3.708-1.277,5.209c-0.848,1.495-1.901,2.672-3.155,3.526
		c-1.254,0.848-2.778,1.542-4.568,2.078c-3.002,0.901-6.38,1.348-10.142,1.348c0.135,2.372,0.871,4.285,2.213,5.739
		c1.348,1.46,3.402,2.184,6.18,2.184s5.55-0.983,8.329-2.955l2.555,5.439c-0.895,0.806-2.407,1.636-4.532,2.49
		c-2.131,0.848-4.562,1.271-7.293,1.271c-5.462,0-9.465-1.507-12.019-4.532c-2.555-3.02-3.832-7.175-3.832-12.461
		c0-5.28,1.46-9.712,4.367-13.297C773.299,254.747,777.372,252.957,782.61,252.957"/>
	<path id="XMLID_24_" class="st0" d="M802.424,280.227v-18.606c0-0.718-0.124-1.218-0.371-1.513c-0.247-0.288-0.683-0.459-1.307-0.5
		l-2.825-0.2v-5.445h11.354v5.038c0.806-1.748,2.06-3.19,3.761-4.332s3.661-1.713,5.88-1.713c2.213,0,4.332,0.494,6.345,1.477
		v10.006l-6.245,0.471v-3.09c0-0.895-0.229-1.454-0.671-1.678c-0.494-0.224-1.101-0.335-1.819-0.335
		c-1.789,0-3.255,0.636-4.397,1.913c-1.142,1.277-1.713,2.902-1.713,4.874v15.58l5.845,0.271v5.303h-18v-5.103l2.213-0.2
		c0.671-0.094,1.165-0.283,1.477-0.571C802.265,281.581,802.424,281.033,802.424,280.227"/>
</g>
<g id="XMLID_21_">
	<path class="st1" d="M203.95,356.146v-4.291l1.748-0.159c1.023-0.105,1.536-0.6,1.536-1.483v-24.633l-3.02-0.159v-4.502h14.462
		c4.097,0,7.239,0.76,9.43,2.277c2.189,1.519,3.284,4.009,3.284,7.47c0,2.401-0.627,4.379-1.881,5.933
		c-1.254,1.555-2.746,2.685-4.476,3.391c1.271,0.459,2.277,1.536,3.02,3.231l3.813,8.317l3.02,0.105v4.503h-13.084v-4.291
		l1.536-0.159c0.812-0.105,1.218-0.424,1.218-0.953c0-0.212-0.07-0.459-0.212-0.742l-2.489-5.297
		c-0.389-0.883-0.821-1.51-1.298-1.881s-1.157-0.556-2.04-0.556h-4.82v9.217l3.443,0.159v4.503H203.95z M213.698,337.233h4.608
		c4.345,0,6.517-1.941,6.517-5.827c0-2.225-0.575-3.673-1.722-4.344c-1.148-0.67-2.993-1.007-5.536-1.007h-3.867V337.233z"/>
	<path class="st1" d="M250.461,328.705c2.648,0,4.749,0.645,6.304,1.934c1.554,1.289,2.331,3.099,2.331,5.43
		c0,1.555-0.336,2.923-1.007,4.105c-0.671,1.184-1.501,2.11-2.489,2.781c-0.989,0.671-2.19,1.218-3.603,1.642
		c-2.366,0.707-5.032,1.06-7.999,1.06c0.105,1.873,0.688,3.383,1.748,4.529c1.06,1.148,2.684,1.722,4.874,1.722
		c2.188,0,4.378-0.776,6.568-2.33l2.013,4.29c-0.706,0.636-1.898,1.29-3.575,1.961c-1.678,0.67-3.594,1.006-5.748,1.006
		c-4.309,0-7.47-1.191-9.482-3.575s-3.02-5.659-3.02-9.827c0-4.167,1.147-7.663,3.443-10.489
		C243.115,330.118,246.329,328.705,250.461,328.705z M248.051,340.81c1.288-0.229,2.48-0.742,3.575-1.536
		c1.095-0.795,1.643-1.739,1.643-2.834c0-2.154-1.06-3.231-3.179-3.231c-1.979,0-3.496,0.786-4.556,2.357s-1.643,3.452-1.748,5.642
		C245.34,341.172,246.761,341.039,248.051,340.81z"/>
	<path class="st1" d="M262.487,333.737v-4.238h8.952v3.443c0.918-1.306,2.137-2.339,3.655-3.099c1.519-0.759,3.16-1.139,4.927-1.139
		c2.684,0,4.759,0.768,6.225,2.304c1.465,1.537,2.198,3.841,2.198,6.913v13.827l3.02,0.158v4.238h-12.607v-4.026l1.748-0.158
		c0.529-0.07,0.918-0.221,1.165-0.451c0.247-0.229,0.371-0.662,0.371-1.298V339.3c0-1.942-0.301-3.382-0.9-4.317
		c-0.602-0.936-1.74-1.404-3.417-1.404c-1.678,0-3.012,0.53-4,1.59c-0.989,1.06-1.483,2.313-1.483,3.761v12.82l3.02,0.158v4.238
		h-12.607v-4.026l1.748-0.158c0.529-0.07,0.918-0.221,1.165-0.451c0.247-0.229,0.371-0.662,0.371-1.298v-14.674
		c0-1.06-0.442-1.606-1.324-1.642L262.487,333.737z"/>
	<path class="st1" d="M318.373,330.559v19.707c0,0.565,0.098,0.953,0.292,1.165c0.193,0.212,0.538,0.336,1.033,0.371l1.694,0.105
		v4.238h-8.423v-3.072l-0.158-0.053c-1.767,2.542-4.186,3.813-7.258,3.813c-3.603,0-6.27-1.147-7.999-3.443
		c-1.73-2.295-2.596-5.438-2.596-9.43c0-4.802,1.165-8.546,3.496-11.23c2.331-2.684,5.827-4.025,10.489-4.025
		C311.946,328.705,315.089,329.323,318.373,330.559z M312.229,347.723v-13.721c-0.989-0.458-2.35-0.688-4.079-0.688
		c-2.366,0-4.079,0.954-5.139,2.86c-1.06,1.907-1.589,4.433-1.589,7.575c0,5.722,1.836,8.582,5.509,8.582
		c1.554,0,2.825-0.468,3.814-1.403C311.734,349.992,312.229,348.924,312.229,347.723z"/>
	<path class="st1" d="M329.497,323.884h3.443v5.615h7.046l-0.529,4.45h-6.517v13.933c0,1.554,0.282,2.64,0.848,3.258
		c0.564,0.618,1.438,0.927,2.622,0.927s2.375-0.371,3.576-1.112l1.589,4.079c-1.766,1.235-4.008,1.854-6.728,1.854
		c-1.589,0-2.932-0.203-4.025-0.608c-1.096-0.406-1.907-0.856-2.438-1.352c-0.529-0.494-0.936-1.218-1.218-2.172
		c-0.283-0.953-0.442-1.703-0.478-2.251c-0.035-0.547-0.053-1.351-0.053-2.41v-14.145h-3.761l0.529-3.867
		c1.66-0.141,2.914-0.732,3.762-1.774C328.015,327.267,328.791,325.791,329.497,323.884z"/>
	<path class="st1" d="M356.885,328.705c2.648,0,4.749,0.645,6.304,1.934c1.554,1.289,2.331,3.099,2.331,5.43
		c0,1.555-0.336,2.923-1.007,4.105c-0.671,1.184-1.501,2.11-2.489,2.781c-0.989,0.671-2.19,1.218-3.603,1.642
		c-2.366,0.707-5.032,1.06-7.999,1.06c0.105,1.873,0.688,3.383,1.748,4.529c1.06,1.148,2.684,1.722,4.874,1.722
		c2.188,0,4.378-0.776,6.568-2.33l2.013,4.29c-0.706,0.636-1.898,1.29-3.575,1.961c-1.678,0.67-3.594,1.006-5.748,1.006
		c-4.309,0-7.47-1.191-9.482-3.575s-3.02-5.659-3.02-9.827c0-4.167,1.147-7.663,3.443-10.489
		C349.538,330.118,352.753,328.705,356.885,328.705z M354.475,340.81c1.288-0.229,2.48-0.742,3.575-1.536
		c1.095-0.795,1.643-1.739,1.643-2.834c0-2.154-1.06-3.231-3.179-3.231c-1.979,0-3.496,0.786-4.556,2.357s-1.643,3.452-1.748,5.642
		C351.764,341.172,353.185,341.039,354.475,340.81z"/>
	<path class="st1" d="M395.927,329.499h11.178v4.133l-1.643,0.105c-0.707,0.071-1.184,0.495-1.431,1.271l-6.833,21.137h-8.105
		l-7.416-21.084c-0.178-0.494-0.363-0.829-0.557-1.006c-0.194-0.177-0.521-0.283-0.979-0.318l-1.537-0.105v-4.133h12.449v4.238
		l-3.231,0.159l5.457,17.429h0.105l5.298-17.429l-2.755-0.159V329.499z"/>
	<path class="st1" d="M433.167,330.559v19.707c0,0.565,0.098,0.953,0.292,1.165c0.193,0.212,0.538,0.336,1.033,0.371l1.694,0.105
		v4.238h-8.423v-3.072l-0.158-0.053c-1.767,2.542-4.186,3.813-7.258,3.813c-3.603,0-6.27-1.147-7.999-3.443
		c-1.73-2.295-2.596-5.438-2.596-9.43c0-4.802,1.165-8.546,3.496-11.23c2.331-2.684,5.827-4.025,10.489-4.025
		C426.74,328.705,429.883,329.323,433.167,330.559z M427.023,347.723v-13.721c-0.989-0.458-2.35-0.688-4.079-0.688
		c-2.366,0-4.079,0.954-5.139,2.86c-1.06,1.907-1.589,4.433-1.589,7.575c0,5.722,1.836,8.582,5.509,8.582
		c1.554,0,2.825-0.468,3.814-1.403C426.528,349.992,427.023,348.924,427.023,347.723z"/>
	<path class="st1" d="M439.101,333.737v-4.238h8.952v3.443c0.918-1.306,2.137-2.339,3.655-3.099c1.519-0.759,3.16-1.139,4.927-1.139
		c2.684,0,4.759,0.768,6.225,2.304c1.465,1.537,2.198,3.841,2.198,6.913v13.827l3.02,0.158v4.238H455.47v-4.026l1.748-0.158
		c0.529-0.07,0.918-0.221,1.165-0.451c0.247-0.229,0.371-0.662,0.371-1.298V339.3c0-1.942-0.301-3.382-0.9-4.317
		c-0.602-0.936-1.74-1.404-3.417-1.404c-1.678,0-3.012,0.53-4,1.59c-0.989,1.06-1.483,2.313-1.483,3.761v12.82l3.02,0.158v4.238
		h-12.607v-4.026l1.748-0.158c0.529-0.07,0.918-0.221,1.165-0.451c0.247-0.229,0.371-0.662,0.371-1.298v-14.674
		c0-1.06-0.442-1.606-1.324-1.642L439.101,333.737z"/>
	<path class="st1" d="M495.094,328.705c1.518,0,2.967,0.212,4.344,0.636v-5.351c0-0.776-0.459-1.2-1.377-1.271l-2.278-0.159v-4.185
		h9.854v32.208c0.034,0.813,0.477,1.219,1.324,1.219l1.854,0.105v4.238h-8.581v-3.125l-0.159-0.054
		c-1.589,2.578-3.991,3.867-7.205,3.867c-4.025,0-6.852-1.342-8.476-4.025c-1.483-2.438-2.225-5.421-2.225-8.953
		c0-4.591,1.139-8.264,3.417-11.019C487.863,330.082,491.033,328.705,495.094,328.705z M499.438,347.882v-13.721
		c-1.271-0.564-2.614-0.848-4.026-0.848c-2.331,0-4.035,0.937-5.111,2.808c-1.078,1.872-1.616,4.256-1.616,7.151
		c0,5.934,1.907,8.9,5.722,8.9c1.447,0,2.648-0.415,3.602-1.245C498.961,350.099,499.438,349.083,499.438,347.882z"/>
	<path class="st1" d="M525.183,328.705c2.648,0,4.749,0.645,6.304,1.934c1.554,1.289,2.331,3.099,2.331,5.43
		c0,1.555-0.336,2.923-1.007,4.105c-0.671,1.184-1.501,2.11-2.489,2.781c-0.989,0.671-2.19,1.218-3.603,1.642
		c-2.366,0.707-5.032,1.06-7.999,1.06c0.105,1.873,0.688,3.383,1.748,4.529c1.06,1.148,2.684,1.722,4.874,1.722
		c2.188,0,4.378-0.776,6.568-2.33l2.013,4.29c-0.706,0.636-1.898,1.29-3.575,1.961c-1.678,0.67-3.594,1.006-5.748,1.006
		c-4.309,0-7.47-1.191-9.482-3.575s-3.02-5.659-3.02-9.827c0-4.167,1.147-7.663,3.443-10.489
		C517.836,330.118,521.051,328.705,525.183,328.705z M522.773,340.81c1.288-0.229,2.48-0.742,3.575-1.536
		c1.095-0.795,1.643-1.739,1.643-2.834c0-2.154-1.06-3.231-3.179-3.231c-1.979,0-3.496,0.786-4.556,2.357s-1.643,3.452-1.748,5.642
		C520.062,341.172,521.483,341.039,522.773,340.81z"/>
	<path class="st1" d="M537.207,333.737v-4.238h8.952v3.443c0.918-1.306,2.137-2.339,3.655-3.099c1.519-0.759,3.16-1.139,4.927-1.139
		c2.684,0,4.759,0.768,6.225,2.304c1.465,1.537,2.198,3.841,2.198,6.913v13.827l3.02,0.158v4.238h-12.607v-4.026l1.748-0.158
		c0.529-0.07,0.918-0.221,1.165-0.451c0.247-0.229,0.371-0.662,0.371-1.298V339.3c0-1.942-0.301-3.382-0.9-4.317
		c-0.602-0.936-1.74-1.404-3.417-1.404c-1.678,0-3.012,0.53-4,1.59c-0.989,1.06-1.483,2.313-1.483,3.761v12.82l3.02,0.158v4.238
		h-12.607v-4.026l1.748-0.158c0.529-0.07,0.918-0.221,1.165-0.451c0.247-0.229,0.371-0.662,0.371-1.298v-14.674
		c0-1.06-0.442-1.606-1.324-1.642L537.207,333.737z"/>
	<path class="st1" d="M604.59,349.947v-9.164h-14.992v10.7l3.072,0.159v4.503h-12.819v-4.291l1.748-0.159
		c1.023-0.105,1.536-0.6,1.536-1.483v-24.633l-3.02-0.159v-4.502h12.82v4.29l-1.749,0.159c-0.564,0.071-0.972,0.222-1.218,0.45
		c-0.248,0.23-0.371,0.662-0.371,1.298v8.211h14.992v-9.747l-3.02-0.159v-4.502h12.819v4.29l-1.748,0.159
		c-1.024,0.106-1.536,0.672-1.536,1.695v24.421l3.02,0.159v4.503h-12.82v-4.291l1.749-0.159c0.529-0.07,0.917-0.22,1.165-0.45
		C604.465,351.016,604.59,350.583,604.59,349.947z"/>
	<path class="st1" d="M617.621,342.796c0-2.613,0.389-4.882,1.166-6.808c0.776-1.924,1.818-3.398,3.125-4.423
		c2.507-1.907,5.279-2.86,8.317-2.86c2.118,0,3.91,0.344,5.377,1.032c1.465,0.689,2.612,1.483,3.443,2.385
		c0.829,0.9,1.536,2.207,2.118,3.92c0.583,1.713,0.874,3.734,0.874,6.065c0,4.873-1.184,8.564-3.549,11.071
		c-2.366,2.508-5.396,3.762-9.085,3.762c-3.691,0-6.578-1.192-8.661-3.576C618.662,350.981,617.621,347.458,617.621,342.796z
		 M629.806,352.278c3.849,0,5.773-3.107,5.773-9.323c0-3.143-0.433-5.527-1.298-7.151s-2.313-2.438-4.344-2.438
		c-2.031,0-3.522,0.777-4.477,2.331c-0.953,1.555-1.43,3.674-1.43,6.357c0,4.979,0.918,8.104,2.755,9.376
		C627.598,351.996,628.605,352.278,629.806,352.278z"/>
	<path class="st1" d="M645.591,342.796c0-2.613,0.389-4.882,1.166-6.808c0.776-1.924,1.818-3.398,3.125-4.423
		c2.507-1.907,5.279-2.86,8.317-2.86c2.118,0,3.91,0.344,5.377,1.032c1.465,0.689,2.612,1.483,3.443,2.385
		c0.829,0.9,1.536,2.207,2.118,3.92c0.583,1.713,0.874,3.734,0.874,6.065c0,4.873-1.184,8.564-3.549,11.071
		c-2.366,2.508-5.396,3.762-9.085,3.762c-3.691,0-6.578-1.192-8.661-3.576C646.632,350.981,645.591,347.458,645.591,342.796z
		 M657.776,352.278c3.849,0,5.773-3.107,5.773-9.323c0-3.143-0.433-5.527-1.298-7.151s-2.313-2.438-4.344-2.438
		c-2.031,0-3.522,0.777-4.477,2.331c-0.953,1.555-1.43,3.674-1.43,6.357c0,4.979,0.918,8.104,2.755,9.376
		C655.568,351.996,656.575,352.278,657.776,352.278z"/>
	<path class="st1" d="M676.846,350.212v-14.674c0-0.564-0.098-0.961-0.291-1.191c-0.194-0.229-0.539-0.362-1.033-0.397l-2.225-0.159
		v-4.291h8.952v3.974c0.636-1.378,1.624-2.517,2.967-3.417c1.342-0.9,2.888-1.351,4.636-1.351s3.417,0.389,5.006,1.165v7.894
		l-4.927,0.37v-2.437c0-0.706-0.177-1.147-0.529-1.324c-0.39-0.177-0.866-0.265-1.431-0.265c-1.413,0-2.569,0.503-3.47,1.51
		c-0.9,1.006-1.351,2.287-1.351,3.841v12.29l4.608,0.212v4.185h-14.197v-4.026l1.748-0.158c0.53-0.07,0.918-0.221,1.166-0.451
		C676.722,351.281,676.846,350.848,676.846,350.212z"/>
	<path class="st1" d="M697.718,333.737v-4.238h8.952v3.443c0.918-1.306,2.137-2.339,3.655-3.099c1.519-0.759,3.16-1.139,4.927-1.139
		c2.684,0,4.759,0.768,6.225,2.304c1.465,1.537,2.198,3.841,2.198,6.913v13.827l3.02,0.158v4.238h-12.607v-4.026l1.748-0.158
		c0.529-0.07,0.918-0.221,1.165-0.451c0.247-0.229,0.371-0.662,0.371-1.298V339.3c0-1.942-0.301-3.382-0.9-4.317
		c-0.602-0.936-1.74-1.404-3.417-1.404c-1.678,0-3.012,0.53-4,1.59c-0.989,1.06-1.483,2.313-1.483,3.761v12.82l3.02,0.158v4.238
		h-12.607v-4.026l1.748-0.158c0.529-0.07,0.918-0.221,1.165-0.451c0.247-0.229,0.371-0.662,0.371-1.298v-14.674
		c0-1.06-0.442-1.606-1.324-1.642L697.718,333.737z"/>
</g>
<g id="XMLID_1_">
	<polygon id="XMLID_19_" class="st2" points="370.197,108.655 361.874,139.297 342.427,135.607 319.218,119.885 338.389,170.658 
		371.998,195.068 387.426,208.452 404.336,211.955 434.955,209.777 455.109,192.784 465.745,169.216 484.322,170.782 
		470.201,160.569 484.645,144.695 470.49,149.321 465.528,125.412 439.411,114.605 415.632,121.363 405.237,138.032 
		393.194,116.436 392.029,89.725 	"/>
	<polygon id="XMLID_18_" class="st3" points="444.772,15.792 467.692,87.425 510.849,97.608 505.016,133.431 549.791,106.031 
		617.439,117.197 618.887,0 	"/>
</g>
</svg>
