<!-- Generator: Adobe Illustrator 19.0.0, SVG Export Plug-In  -->
<svg version="1.1"
	 xmlns="http://www.w3.org/2000/svg" xmlns:xlink="http://www.w3.org/1999/xlink" xmlns:a="http://ns.adobe.com/AdobeSVGViewerExtensions/3.0/"
	 x="0px" y="0px" width="1588.8px" height="703.5px" viewBox="0 0 1588.8 703.5" style="enable-background:new 0 0 1588.8 703.5;"
	 xml:space="preserve">
<style type="text/css">
	.st0{fill:#83C9C0;}
</style>
<defs>
</defs>
<polygon class="st0" points="1574.1,366 1537.4,324.5 1526.9,262.5 1507.4,262.5 1490.9,237.5 1439.9,261 1439.9,292.5 1405.4,318 
	1405.4,331.5 1363.4,318 1349.9,291 1328.9,268.5 1313.9,247.5 1288.4,229.5 1280.9,195 1222.4,195 1208.9,158.5 1157.9,158.5 
	1138.4,201 1109.9,249 1057.4,303 1040.9,268.5 1006.4,223.5 991.5,165 918,94.3 894,94.3 859.5,84 822,67.9 702,124.5 670.5,169.5 
	670.5,195 657,216.9 580.5,0 535.5,85.5 523.5,130.5 508.5,183 456,220.5 456,276 331.5,321 312,285 253.5,217.5 190.5,279 
	175.5,334.5 0,454.5 1588.8,703.5 "/>
</svg>
