<!-- Generator: Adobe Illustrator 19.0.0, SVG Export Plug-In  -->
<svg version="1.1"
	 xmlns="http://www.w3.org/2000/svg" xmlns:xlink="http://www.w3.org/1999/xlink" xmlns:a="http://ns.adobe.com/AdobeSVGViewerExtensions/3.0/"
	 x="0px" y="0px" width="580.114px" height="410.308px" viewBox="0 0 580.114 410.308"
	 style="enable-background:new 0 0 580.114 410.308;" xml:space="preserve">
<style type="text/css">
	.st0{fill:#F18419;}
	.st1{fill:#FFFFFF;}
</style>
<defs>
</defs>
<polygon id="XMLID_16_" class="st0" points="98.688,210.335 82.58,269.659 44.925,262.512 0,232.074 37.115,330.361 
	102.175,377.621 132.037,403.527 164.777,410.308 224.049,406.09 263.064,373.194 283.652,327.571 319.616,330.605 292.281,310.836 
	320.244,280.101 292.839,289.062 283.234,242.777 232.678,221.858 186.637,234.933 166.52,267.201 143.212,225.397 140.946,173.69 
	"/>
<polygon id="XMLID_15_" class="st1" points="580.114,0 243.052,30.564 287.422,169.235 370.961,188.947 359.673,258.305 
	446.359,205.256 577.311,226.871 "/>
</svg>