<!-- Generator: Adobe Illustrator 19.0.0, SVG Export Plug-In  -->
<svg version="1.1"
	 xmlns="http://www.w3.org/2000/svg" xmlns:xlink="http://www.w3.org/1999/xlink" xmlns:a="http://ns.adobe.com/AdobeSVGViewerExtensions/3.0/"
	 x="0px" y="0px" width="1586.4px" height="454.5px" viewBox="0 0 1586.4 454.5" style="enable-background:new 0 0 1586.4 454.5;"
	 xml:space="preserve">
<style type="text/css">
	.st0{fill:#323744;}
</style>
<defs>
</defs>
<polygon class="st0" points="12.4,366 49,324.5 59.5,262.5 79,262.5 95.5,237.5 146.5,261 146.5,292.5 181,318 181,331.5 223,318 
	236.5,291 257.5,268.5 272.5,247.5 298,229.5 305.5,195 364,195 377.5,158.5 428.5,158.5 448,201 476.5,249 529,303 545.5,268.5 
	580,223.5 595,165 668.5,94.3 692.5,94.3 727,84 764.5,67.9 884.5,124.5 916,169.5 916,195 929.5,216.9 1006,0 1051,85.5 
	1063,130.5 1078,183 1130.5,220.5 1130.5,276 1255,321 1274.5,285 1333,217.5 1395.9,279 1410.9,334.5 1586.4,454.5 0,411.4 "/>
</svg>
