<!-- Generator: Adobe Illustrator 19.0.0, SVG Export Plug-In  -->
<svg version="1.1"
	 xmlns="http://www.w3.org/2000/svg" xmlns:xlink="http://www.w3.org/1999/xlink" xmlns:a="http://ns.adobe.com/AdobeSVGViewerExtensions/3.0/"
	 x="0px" y="0px" width="1098.9px" height="96.4px" viewBox="0 0 1098.9 96.4" style="enable-background:new 0 0 1098.9 96.4;"
	 xml:space="preserve">
<style type="text/css">
	.st0{fill:#4DA098;}
</style>
<defs>
</defs>
<g>
	<path class="st0" d="M13.5,92.5C4.5,77.3,0,62,0,46.7C0,31.4,4.5,15.9,13.5,0.2l9.7,4.5C15.7,19.3,12,33.1,12,46.1
		c0,13,3.7,26.9,11,41.8L13.5,92.5z"/>
	<path class="st0" d="M30,74.6v-8.3l3.4-0.3c2-0.2,3-1.2,3-2.9V15.7l-5.8-0.3V6.7h29.2c7.6,0,13.5,1.8,17.8,5.4
		c4.2,3.6,6.4,8.9,6.4,16.1c0,7.1-2.4,12.7-7.2,16.7c-4.8,4-11.2,6-19.2,6h-8.7v14.8l9.8,0.3v8.7H30z M48.8,40.9h7.3
		c9.9,0,14.9-4,14.9-12.1c0-4.9-1.3-8.1-3.8-9.7c-2.6-1.6-6.6-2.4-12.2-2.4h-6.2V40.9z"/>
	<path class="st0" d="M96.6,63.1V34.9c0-1.1-0.2-1.9-0.6-2.3c-0.4-0.4-1-0.7-2-0.8l-4.3-0.3v-8.3H107v7.6c1.2-2.7,3.1-4.8,5.7-6.6
		c2.6-1.7,5.6-2.6,8.9-2.6c3.4,0,6.6,0.7,9.6,2.2v15.2l-9.5,0.7v-4.7c0-1.4-0.3-2.2-1-2.5c-0.7-0.3-1.7-0.5-2.8-0.5
		c-2.7,0-4.9,1-6.7,2.9c-1.7,1.9-2.6,4.4-2.6,7.4v23.7l8.9,0.4v8.1H90.3v-7.8l3.4-0.3c1-0.1,1.8-0.4,2.2-0.9
		C96.4,65.2,96.6,64.4,96.6,63.1z"/>
	<path class="st0" d="M163,21.7c5.1,0,9.1,1.2,12.1,3.7c3,2.5,4.5,6,4.5,10.5c0,3-0.6,5.6-1.9,7.9c-1.3,2.3-2.9,4.1-4.8,5.4
		c-1.9,1.3-4.2,2.3-6.9,3.2c-4.6,1.4-9.7,2-15.4,2c0.2,3.6,1.3,6.5,3.4,8.7c2,2.2,5.2,3.3,9.4,3.3c4.2,0,8.4-1.5,12.6-4.5l3.9,8.3
		c-1.4,1.2-3.7,2.5-6.9,3.8c-3.2,1.3-6.9,1.9-11.1,1.9c-8.3,0-14.4-2.3-18.3-6.9c-3.9-4.6-5.8-10.9-5.8-18.9c0-8,2.2-14.8,6.6-20.2
		C148.8,24.4,155,21.7,163,21.7z M158.4,45c2.5-0.4,4.8-1.4,6.9-3c2.1-1.5,3.2-3.3,3.2-5.5c0-4.1-2-6.2-6.1-6.2
		c-3.8,0-6.7,1.5-8.8,4.5c-2,3-3.2,6.6-3.4,10.9C153.1,45.7,155.9,45.5,158.4,45z"/>
	<path class="st0" d="M196.7,0c9,15.2,13.5,30.5,13.5,45.8c0,15.3-4.5,30.8-13.5,46.5l-9.7-4.5c7.4-14.6,11.1-28.4,11.1-41.4
		c0-13-3.7-26.9-11-41.8L196.7,0z"/>
	<path class="st0" d="M268.9,74.6h-48.5v-8.3l3.4-0.3c2-0.2,3-1.2,3-2.9V15.7l-5.8-0.3V6.7h24.6V15l-3.4,0.3c-2,0.2-3,1.3-3,3.3
		v45.5h16.9c1,0,1.6-0.3,1.9-0.8c0.3-0.5,0.5-1.3,0.5-2.5v-7.1l10.4,0.7V74.6z"/>
	<path class="st0" d="M275.3,48.9c0-5,0.7-9.4,2.2-13.1c1.5-3.7,3.5-6.5,6-8.5c4.8-3.7,10.2-5.5,16-5.5c4.1,0,7.5,0.7,10.4,2
		c2.8,1.3,5,2.9,6.6,4.6c1.6,1.7,3,4.2,4.1,7.5c1.1,3.3,1.7,7.2,1.7,11.7c0,9.4-2.3,16.5-6.8,21.3c-4.6,4.8-10.4,7.2-17.5,7.2
		c-7.1,0-12.7-2.3-16.7-6.9C277.3,64.6,275.3,57.8,275.3,48.9z M298.8,67.1c7.4,0,11.1-6,11.1-18c0-6.1-0.8-10.6-2.5-13.8
		c-1.7-3.1-4.5-4.7-8.4-4.7c-3.9,0-6.8,1.5-8.6,4.5c-1.8,3-2.8,7.1-2.8,12.2c0,9.6,1.8,15.6,5.3,18.1
		C294.5,66.6,296.4,67.1,298.8,67.1z"/>
	<path class="st0" d="M368,91.1c-3.7,3.5-9.6,5.3-17.5,5.3s-14.2-1.1-18.7-3.4V78.8l9.7-0.8v4.9c0,1.8,0.8,3.1,2.5,3.7
		c1.7,0.6,4,1,7,1c4.4,0,7.4-1.3,9.2-3.9c1.8-2.6,2.7-6.3,2.7-11.1V67c-3.3,3.8-7.8,5.7-13.6,5.7c-3.5,0-6.6-0.7-9.3-2
		c-2.7-1.4-4.8-3.2-6.3-5.5c-2.9-4.6-4.4-10.1-4.4-16.3c0-8.9,2.4-15.7,7.2-20.2s11.3-6.9,19.3-6.9c6.7,0,13,1.3,18.9,3.8v37.8
		c0,5.8-0.1,9.5-0.2,11.1C373.9,82,371.8,87.5,368,91.1z M362.9,53.8V31.8c-2.4-0.8-5.1-1.2-8.2-1.2c-4.1,0-7.3,1.5-9.5,4.6
		c-2.2,3.1-3.3,7.2-3.3,12.4c0,10.7,3.5,16.1,10.6,16.1c2.9,0,5.4-0.9,7.4-2.7C361.9,59.2,362.9,56.8,362.9,53.8z"/>
	<path class="st0" d="M383.6,48.9c0-5,0.7-9.4,2.2-13.1c1.5-3.7,3.5-6.5,6-8.5c4.8-3.7,10.2-5.5,16-5.5c4.1,0,7.5,0.7,10.4,2
		c2.8,1.3,5,2.9,6.6,4.6c1.6,1.7,3,4.2,4.1,7.5c1.1,3.3,1.7,7.2,1.7,11.7c0,9.4-2.3,16.5-6.8,21.3c-4.6,4.8-10.4,7.2-17.5,7.2
		c-7.1,0-12.7-2.3-16.7-6.9C385.6,64.6,383.6,57.8,383.6,48.9z M407.1,67.1c7.4,0,11.1-6,11.1-18c0-6.1-0.8-10.6-2.5-13.8
		c-1.7-3.1-4.5-4.7-8.4-4.7c-3.9,0-6.8,1.5-8.6,4.5c-1.8,3-2.8,7.1-2.8,12.2c0,9.6,1.8,15.6,5.3,18.1
		C402.8,66.6,404.8,67.1,407.1,67.1z"/>
	<path class="st0" d="M443.2,84.3V34.9c0-1.2-0.2-2-0.6-2.4c-0.4-0.4-1-0.7-2-0.7l-4.3-0.3v-8.3h17.2v6.6c1.1-2,3.1-3.9,5.9-5.6
		c2.9-1.7,6.3-2.5,10.2-2.5c12.3,0,18.5,8.6,18.5,25.9c0,9.2-2,16.2-6,21.1c-4,4.9-9.5,7.3-16.3,7.3c-4.1,0-7.7-1-10.9-3v14.1
		l8.3,0.4v8.1h-26.3v-7.8l3.4-0.3c1-0.1,1.8-0.4,2.2-0.9C442.9,86.3,443.2,85.5,443.2,84.3z M475.5,48.7c0-11.4-3.4-17-10.3-17
		c-2.9,0-5.3,0.9-7.3,2.6c-2,1.7-3,3.8-3,6.2v23.5c2.6,1.7,5.7,2.5,9.4,2.5c3.7,0,6.5-1.7,8.4-5.1C474.6,57.9,475.5,53.7,475.5,48.7
		z"/>
	<path class="st0" d="M521,21.7c5.1,0,9.1,1.2,12.1,3.7c3,2.5,4.5,6,4.5,10.5c0,3-0.6,5.6-1.9,7.9c-1.3,2.3-2.9,4.1-4.8,5.4
		c-1.9,1.3-4.2,2.3-6.9,3.2c-4.6,1.4-9.7,2-15.4,2c0.2,3.6,1.3,6.5,3.4,8.7c2,2.2,5.2,3.3,9.4,3.3c4.2,0,8.4-1.5,12.6-4.5l3.9,8.3
		c-1.4,1.2-3.7,2.5-6.9,3.8c-3.2,1.3-6.9,1.9-11.1,1.9c-8.3,0-14.4-2.3-18.3-6.9c-3.9-4.6-5.8-10.9-5.8-18.9c0-8,2.2-14.8,6.6-20.2
		C506.9,24.4,513.1,21.7,521,21.7z M516.4,45c2.5-0.4,4.8-1.4,6.9-3c2.1-1.5,3.2-3.3,3.2-5.5c0-4.1-2-6.2-6.1-6.2
		c-3.8,0-6.7,1.5-8.8,4.5c-2,3-3.2,6.6-3.4,10.9C511.2,45.7,513.9,45.5,516.4,45z"/>
	<path class="st0" d="M570.4,21.7c2.9,0,5.7,0.4,8.4,1.2V12.6c0-1.5-0.9-2.3-2.7-2.4l-4.4-0.3V1.8h19v62c0.1,1.6,0.9,2.3,2.6,2.3
		l3.6,0.2v8.2h-16.5v-6l-0.3-0.1c-3.1,5-7.7,7.4-13.9,7.4c-7.8,0-13.2-2.6-16.3-7.8c-2.9-4.7-4.3-10.4-4.3-17.2
		c0-8.8,2.2-15.9,6.6-21.2S562.6,21.7,570.4,21.7z M578.7,58.6V32.2c-2.4-1.1-5-1.6-7.8-1.6c-4.5,0-7.8,1.8-9.8,5.4
		c-2.1,3.6-3.1,8.2-3.1,13.8c0,11.4,3.7,17.1,11,17.1c2.8,0,5.1-0.8,6.9-2.4C577.8,62.9,578.7,61,578.7,58.6z"/>
	<path class="st0" d="M621.2,23.3v42.8l5.8,0.3v8.2h-24.3v-7.8l3.4-0.3c2-0.2,3-1.3,3-3.3V34.9c0-1.2-0.2-1.9-0.6-2.3
		c-0.4-0.4-1-0.6-2-0.6l-3.6-0.2v-8.5H621.2z M608.3,14.4c-1.4-1.4-2.1-3.2-2.1-5.4c0-2.2,0.7-4,2.1-5.5c1.4-1.5,3.3-2.2,5.6-2.2
		c2.3,0,4.2,0.7,5.7,2.2c1.5,1.5,2.2,3.3,2.2,5.5c0,2.2-0.7,4-2.2,5.4c-1.5,1.4-3.4,2.1-5.7,2.1C611.6,16.5,609.8,15.8,608.3,14.4z"
		/>
	<path class="st0" d="M658.5,21.7c5.1,0,9.1,1.2,12.1,3.7c3,2.5,4.5,6,4.5,10.5c0,3-0.6,5.6-1.9,7.9c-1.3,2.3-2.9,4.1-4.8,5.4
		c-1.9,1.3-4.2,2.3-6.9,3.2c-4.6,1.4-9.7,2-15.4,2c0.2,3.6,1.3,6.5,3.4,8.7c2,2.2,5.2,3.3,9.4,3.3c4.2,0,8.4-1.5,12.6-4.5l3.9,8.3
		c-1.4,1.2-3.7,2.5-6.9,3.8c-3.2,1.3-6.9,1.9-11.1,1.9c-8.3,0-14.4-2.3-18.3-6.9c-3.9-4.6-5.8-10.9-5.8-18.9c0-8,2.2-14.8,6.6-20.2
		C644.4,24.4,650.5,21.7,658.5,21.7z M653.9,45c2.5-0.4,4.8-1.4,6.9-3c2.1-1.5,3.2-3.3,3.2-5.5c0-4.1-2-6.2-6.1-6.2
		c-3.8,0-6.7,1.5-8.8,4.5c-2,3-3.2,6.6-3.4,10.9C648.6,45.7,651.4,45.5,653.9,45z"/>
	<path class="st0" d="M703.3,6.7H732c14.7,0,22,5.7,22,17c0,6.3-3.1,11-9.4,14.3c4,1,7.2,2.9,9.4,5.6c2.3,2.7,3.4,6.3,3.4,10.6
		c0,6.6-2.2,11.6-6.7,15.1c-4.5,3.5-10.9,5.2-19.4,5.2h-28.7v-8.3l3.4-0.3c2-0.2,3-1.2,3-2.9V15.7l-5.8-0.3V6.7z M721.5,16.1v18.5
		h7.5c4.2,0,7.3-0.9,9.3-2.6c2-1.7,3-4.2,3-7.3c0-3.1-1-5.3-3-6.6c-2-1.3-4.9-1.9-8.6-1.9H721.5z M721.5,43.7V65h9.6
		c8.8,0,13.3-3.6,13.3-10.8c0-3.4-1.1-6-3.3-7.8c-2.2-1.8-5.4-2.7-9.4-2.7H721.5z"/>
	<path class="st0" d="M764.1,48.9c0-5,0.7-9.4,2.2-13.1c1.5-3.7,3.5-6.5,6-8.5c4.8-3.7,10.2-5.5,16-5.5c4.1,0,7.5,0.7,10.4,2
		c2.8,1.3,5,2.9,6.6,4.6c1.6,1.7,3,4.2,4.1,7.5c1.1,3.3,1.7,7.2,1.7,11.7c0,9.4-2.3,16.5-6.8,21.3c-4.6,4.8-10.4,7.2-17.5,7.2
		c-7.1,0-12.7-2.3-16.7-6.9C766.1,64.6,764.1,57.8,764.1,48.9z M787.5,67.1c7.4,0,11.1-6,11.1-18c0-6.1-0.8-10.6-2.5-13.8
		c-1.7-3.1-4.5-4.7-8.4-4.7c-3.9,0-6.8,1.5-8.6,4.5c-1.8,3-2.8,7.1-2.8,12.2c0,9.6,1.8,15.6,5.3,18.1
		C783.3,66.6,785.2,67.1,787.5,67.1z"/>
	<path class="st0" d="M845.6,63.8l-6.2-8.2l-8.5,10.5l4.8,0.3v8.2h-21.2v-8.1l3.2-0.3c1.6-0.2,2.9-1,4.1-2.4l11.7-14.7l-12.5-17.3
		l-5.2-0.6v-7.9h23.8v8.1l-3,0.2c-0.8,0.1-1.3,0.4-1.6,0.9c-0.2,0.5-0.1,1.1,0.4,1.7l5.8,7.8l7.9-10.2l-4.2-0.3v-8.2h20.7v8
		l-3.1,0.2c-1.4,0.1-2.8,0.9-4.1,2.6l-11.2,14.2l13.4,17.7l5.2,0.6v8.1h-24.3v-8.1l3.2-0.2c0.9-0.1,1.4-0.4,1.6-0.9
		C846.3,64.9,846.1,64.4,845.6,63.8z"/>
	<path class="st0" d="M870.3,31.5v-8.3h17.2v6.6c3.8-5.4,9-8.2,15.7-8.2c6.6,0,11.1,2.7,13.4,8.2c3.8-5.4,9-8.2,15.5-8.2
		c4.9,0,8.7,1.5,11.3,4.4c2.7,3,4,7.4,4,13.3v26.6l5.8,0.3v8.2h-24.3v-7.8l3.4-0.3c1-0.1,1.8-0.4,2.2-0.9c0.4-0.4,0.7-1.2,0.8-2.4
		V42.1c0-3.7-0.4-6.5-1.3-8.3c-0.9-1.8-2.8-2.7-6-2.7c-3.1,0-5.5,1-7.2,2.9c-1.7,1.9-2.5,4.5-2.5,7.6v24.5l5.6,0.3v8.2h-24.1v-7.8
		l3.4-0.3c1-0.1,1.8-0.4,2.2-0.9c0.5-0.4,0.7-1.3,0.7-2.5v-21c0-3.7-0.4-6.5-1.3-8.3c-0.9-1.8-2.9-2.7-6-2.7s-5.6,1-7.2,3
		c-1.6,2-2.4,4.4-2.4,7.3v24.7l5.5,0.3v8.2h-24.1v-7.8l3.4-0.3c1-0.1,1.8-0.4,2.2-0.9c0.5-0.4,0.7-1.3,0.7-2.5h0.1V35
		c0-1.2-0.2-2-0.6-2.4c-0.4-0.4-1-0.7-2-0.8L870.3,31.5z"/>
	<path class="st0" d="M984.8,21.7c5.1,0,9.1,1.2,12.1,3.7c3,2.5,4.5,6,4.5,10.5c0,3-0.6,5.6-1.9,7.9c-1.3,2.3-2.9,4.1-4.8,5.4
		c-1.9,1.3-4.2,2.3-6.9,3.2c-4.6,1.4-9.7,2-15.4,2c0.2,3.6,1.3,6.5,3.4,8.7c2,2.2,5.2,3.3,9.4,3.3c4.2,0,8.4-1.5,12.6-4.5l3.9,8.3
		c-1.4,1.2-3.7,2.5-6.9,3.8c-3.2,1.3-6.9,1.9-11.1,1.9c-8.3,0-14.4-2.3-18.3-6.9c-3.9-4.6-5.8-10.9-5.8-18.9c0-8,2.2-14.8,6.6-20.2
		C970.7,24.4,976.8,21.7,984.8,21.7z M980.2,45c2.5-0.4,4.8-1.4,6.9-3c2.1-1.5,3.2-3.3,3.2-5.5c0-4.1-2-6.2-6.1-6.2
		c-3.8,0-6.7,1.5-8.8,4.5c-2,3-3.2,6.6-3.4,10.9C974.9,45.7,977.7,45.5,980.2,45z"/>
	<path class="st0" d="M1034.2,21.7c5.1,0,9.1,1.2,12.1,3.7c3,2.5,4.5,6,4.5,10.5c0,3-0.6,5.6-1.9,7.9c-1.3,2.3-2.9,4.1-4.8,5.4
		c-1.9,1.3-4.2,2.3-6.9,3.2c-4.6,1.4-9.7,2-15.4,2c0.2,3.6,1.3,6.5,3.4,8.7c2,2.2,5.2,3.3,9.4,3.3c4.2,0,8.4-1.5,12.6-4.5l3.9,8.3
		c-1.4,1.2-3.7,2.5-6.9,3.8c-3.2,1.3-6.9,1.9-11.1,1.9c-8.3,0-14.4-2.3-18.3-6.9c-3.9-4.6-5.8-10.9-5.8-18.9c0-8,2.2-14.8,6.6-20.2
		C1020,24.4,1026.2,21.7,1034.2,21.7z M1029.5,45c2.5-0.4,4.8-1.4,6.9-3c2.1-1.5,3.2-3.3,3.2-5.5c0-4.1-2-6.2-6.1-6.2
		c-3.8,0-6.7,1.5-8.8,4.5c-2,3-3.2,6.6-3.4,10.9C1024.3,45.7,1027,45.5,1029.5,45z"/>
	<path class="st0" d="M1064.3,63.1V34.9c0-1.1-0.2-1.9-0.6-2.3c-0.4-0.4-1-0.7-2-0.8l-4.3-0.3v-8.3h17.2v7.6
		c1.2-2.7,3.1-4.8,5.7-6.6c2.6-1.7,5.6-2.6,8.9-2.6c3.4,0,6.6,0.7,9.6,2.2v15.2l-9.5,0.7v-4.7c0-1.4-0.3-2.2-1-2.5
		c-0.7-0.3-1.7-0.5-2.8-0.5c-2.7,0-4.9,1-6.7,2.9c-1.7,1.9-2.6,4.4-2.6,7.4v23.7l8.9,0.4v8.1h-27.3v-7.8l3.4-0.3
		c1-0.1,1.8-0.4,2.2-0.9C1064,65.2,1064.3,64.4,1064.3,63.1z"/>
</g>
</svg>
