<!-- Generator: Adobe Illustrator 19.0.0, SVG Export Plug-In  -->
<svg version="1.1"
	 xmlns="http://www.w3.org/2000/svg" xmlns:xlink="http://www.w3.org/1999/xlink" xmlns:a="http://ns.adobe.com/AdobeSVGViewerExtensions/3.0/"
	 x="0px" y="0px" width="452.9px" height="305.8px" viewBox="0 0 452.9 305.8" style="enable-background:new 0 0 452.9 305.8;"
	 xml:space="preserve">
<style type="text/css">
	.st0{fill:#FF8500;}
</style>
<defs>
</defs>
<g>
	<path class="st0" d="M5.6,3.4h32v6.3H12.3v14.8h23.5v6.3H12.3v15.9h26.5v6.3H5.6V3.4z"/>
	<path class="st0" d="M64.5,25.2h-9v15c0,0.9,0,1.9,0.1,2.8c0,0.9,0.2,1.7,0.5,2.5c0.3,0.7,0.8,1.3,1.4,1.8c0.6,0.4,1.6,0.7,2.8,0.7
		c0.7,0,1.5-0.1,2.3-0.2c0.8-0.1,1.5-0.4,2.2-0.8v5.7c-0.7,0.4-1.7,0.7-2.9,0.9c-1.2,0.2-2.1,0.2-2.8,0.2c-2.4,0-4.3-0.3-5.6-1
		s-2.3-1.6-2.9-2.6c-0.6-1.1-1-2.3-1.1-3.6c-0.1-1.3-0.2-2.7-0.2-4V25.2h-7.3v-5.5h7.3v-9.3h6.3v9.3h9V25.2z"/>
	<path class="st0" d="M77.4,38.6c0,1.4,0.3,2.8,0.9,4c0.6,1.2,1.5,2.2,2.5,3c1,0.8,2.2,1.5,3.6,2c1.4,0.5,2.8,0.7,4.2,0.7
		c2,0,3.7-0.5,5.1-1.4c1.4-0.9,2.8-2.1,4-3.6l4.8,3.6c-3.5,4.5-8.4,6.8-14.7,6.8c-2.6,0-5-0.4-7.1-1.3c-2.1-0.9-3.9-2.1-5.4-3.7
		c-1.5-1.6-2.6-3.4-3.4-5.5c-0.8-2.1-1.2-4.4-1.2-6.9c0-2.5,0.4-4.8,1.3-6.9c0.9-2.1,2.1-4,3.6-5.5c1.5-1.6,3.3-2.8,5.4-3.7
		c2.1-0.9,4.4-1.3,6.9-1.3c2.9,0,5.4,0.5,7.5,1.5c2,1,3.7,2.4,5,4c1.3,1.7,2.3,3.5,2.8,5.6c0.6,2.1,0.9,4.2,0.9,6.3v2.2H77.4z
		 M97.3,33.6c0-1.4-0.3-2.7-0.7-3.8c-0.4-1.2-1-2.2-1.8-3c-0.8-0.9-1.8-1.5-3-2c-1.2-0.5-2.6-0.7-4.2-0.7c-1.5,0-3,0.3-4.2,0.9
		c-1.3,0.6-2.4,1.3-3.3,2.3c-0.9,0.9-1.6,2-2.1,3.1s-0.7,2.3-0.7,3.4H97.3z"/>
	<path class="st0" d="M111.6,19.7h6.3v5.1h0.1c0.8-1.8,2.2-3.2,4.1-4.3c2-1.1,4.2-1.6,6.8-1.6c1.6,0,3.1,0.2,4.6,0.7
		s2.8,1.2,3.8,2.3s2,2.3,2.6,4c0.7,1.6,1,3.5,1,5.7v21.3h-6.3V33.3c0-1.5-0.2-2.9-0.6-4c-0.4-1.1-1-2-1.7-2.7
		c-0.7-0.7-1.5-1.2-2.4-1.5s-1.9-0.5-2.8-0.5c-1.3,0-2.5,0.2-3.6,0.6s-2.1,1.1-2.9,2c-0.8,0.9-1.5,2.1-2,3.5c-0.5,1.4-0.7,3.1-0.7,5
		v17.1h-6.3V19.7z"/>
	<path class="st0" d="M150.6,56l-4.9-1.8l22.4-53.9l4.8,1.8L150.6,56z"/>
	<path class="st0" d="M211,52.9h-6.3v-4.8h-0.1c-1.2,1.8-2.9,3.1-5,4.1c-2.1,1-4.3,1.5-6.5,1.5c-2.6,0-4.9-0.4-7-1.3
		c-2.1-0.9-3.8-2.1-5.3-3.7c-1.5-1.6-2.6-3.4-3.4-5.5c-0.8-2.1-1.2-4.4-1.2-6.9c0-2.5,0.4-4.8,1.2-6.9c0.8-2.1,1.9-4,3.4-5.5
		c1.5-1.6,3.2-2.8,5.3-3.7c2.1-0.9,4.4-1.3,7-1.3c2.4,0,4.6,0.5,6.7,1.5c2.1,1,3.7,2.4,4.8,4.1h0.1V0h6.3V52.9z M193.8,47.9
		c1.7,0,3.2-0.3,4.5-0.9c1.4-0.6,2.5-1.4,3.4-2.4c0.9-1,1.7-2.2,2.2-3.6c0.5-1.4,0.8-3,0.8-4.7s-0.3-3.2-0.8-4.7
		c-0.5-1.4-1.2-2.6-2.2-3.6c-0.9-1-2.1-1.8-3.4-2.4c-1.4-0.6-2.9-0.9-4.5-0.9s-3.2,0.3-4.5,0.9c-1.4,0.6-2.5,1.4-3.4,2.4
		c-0.9,1-1.7,2.2-2.2,3.6c-0.5,1.4-0.8,3-0.8,4.7s0.3,3.2,0.8,4.7s1.2,2.6,2.2,3.6c0.9,1,2.1,1.8,3.4,2.4
		C190.6,47.6,192.1,47.9,193.8,47.9z"/>
	<path class="st0" d="M220.5,19.7h6.3v5.1h0.1c0.4-0.9,1-1.7,1.7-2.4c0.7-0.7,1.5-1.3,2.3-1.9c0.9-0.5,1.8-0.9,2.8-1.2
		c1-0.3,2.1-0.5,3.1-0.5s2,0.1,2.8,0.4l-0.3,6.8c-0.5-0.1-1-0.3-1.5-0.4c-0.5-0.1-1-0.1-1.5-0.1c-3.1,0-5.4,0.9-7.1,2.6
		c-1.6,1.7-2.5,4.4-2.5,8v16.7h-6.3V19.7z"/>
	<path class="st0" d="M245.4,7.8c0-1.3,0.5-2.3,1.4-3.3c0.9-0.9,2-1.4,3.3-1.4c1.3,0,2.3,0.5,3.3,1.4s1.4,2,1.4,3.3
		s-0.5,2.3-1.4,3.3s-2,1.4-3.3,1.4c-1.3,0-2.3-0.5-3.3-1.4C245.9,10.2,245.4,9.1,245.4,7.8z M246.9,19.7h6.3v33.2h-6.3V19.7z"/>
	<path class="st0" d="M263.2,19.7h6.3v5.1h0.1c0.8-1.8,2.2-3.2,4.1-4.3c2-1.1,4.2-1.6,6.8-1.6c1.6,0,3.1,0.2,4.6,0.7
		s2.8,1.2,3.8,2.3s2,2.3,2.6,4c0.7,1.6,1,3.5,1,5.7v21.3h-6.3V33.3c0-1.5-0.2-2.9-0.6-4c-0.4-1.1-1-2-1.7-2.7
		c-0.7-0.7-1.5-1.2-2.4-1.5s-1.9-0.5-2.8-0.5c-1.3,0-2.5,0.2-3.6,0.6s-2.1,1.1-2.9,2c-0.8,0.9-1.5,2.1-2,3.5c-0.5,1.4-0.7,3.1-0.7,5
		v17.1h-6.3V19.7z"/>
	<path class="st0" d="M302.1,0h6.3v34.2l14.3-14.4h8.8L316,34.9l16.8,18.1h-9l-15.4-17.2v17.2h-6.3V0z"/>
	<path class="st0" d="M343.2,38.6c0,1.4,0.3,2.8,0.9,4c0.6,1.2,1.5,2.2,2.5,3c1,0.8,2.2,1.5,3.6,2c1.4,0.5,2.8,0.7,4.2,0.7
		c2,0,3.7-0.5,5.1-1.4c1.4-0.9,2.8-2.1,4-3.6l4.8,3.6c-3.5,4.5-8.4,6.8-14.7,6.8c-2.6,0-5-0.4-7.1-1.3c-2.1-0.9-3.9-2.1-5.4-3.7
		c-1.5-1.6-2.6-3.4-3.4-5.5c-0.8-2.1-1.2-4.4-1.2-6.9c0-2.5,0.4-4.8,1.3-6.9c0.9-2.1,2.1-4,3.6-5.5c1.5-1.6,3.3-2.8,5.4-3.7
		c2.1-0.9,4.4-1.3,6.9-1.3c2.9,0,5.4,0.5,7.5,1.5c2,1,3.7,2.4,5,4c1.3,1.7,2.3,3.5,2.8,5.6c0.6,2.1,0.9,4.2,0.9,6.3v2.2H343.2z
		 M363.1,33.6c0-1.4-0.3-2.7-0.7-3.8c-0.4-1.2-1-2.2-1.8-3c-0.8-0.9-1.8-1.5-3-2c-1.2-0.5-2.6-0.7-4.2-0.7c-1.5,0-3,0.3-4.2,0.9
		c-1.3,0.6-2.4,1.3-3.3,2.3c-0.9,0.9-1.6,2-2.1,3.1s-0.7,2.3-0.7,3.4H363.1z"/>
	<path class="st0" d="M377.4,19.7h6.3v5.1h0.1c0.8-1.8,2.2-3.2,4.1-4.3c2-1.1,4.2-1.6,6.8-1.6c1.6,0,3.1,0.2,4.6,0.7
		s2.8,1.2,3.8,2.3s2,2.3,2.6,4c0.7,1.6,1,3.5,1,5.7v21.3h-6.3V33.3c0-1.5-0.2-2.9-0.6-4c-0.4-1.1-1-2-1.7-2.7
		c-0.7-0.7-1.5-1.2-2.4-1.5s-1.9-0.5-2.8-0.5c-1.3,0-2.5,0.2-3.6,0.6s-2.1,1.1-2.9,2c-0.8,0.9-1.5,2.1-2,3.5c-0.5,1.4-0.7,3.1-0.7,5
		v17.1h-6.3V19.7z"/>
	<path class="st0" d="M40.1,98.1c-1.4-1.8-3.2-3.2-5.3-4.2c-2.1-1-4.4-1.5-6.6-1.5c-2.8,0-5.3,0.5-7.6,1.6c-2.3,1.1-4.2,2.5-5.8,4.3
		c-1.6,1.8-2.9,4-3.7,6.4c-0.9,2.5-1.3,5.1-1.3,7.9c0,2.6,0.4,5.1,1.3,7.4c0.8,2.3,2.1,4.4,3.6,6.2c1.6,1.8,3.5,3.2,5.8,4.2
		c2.3,1,4.9,1.5,7.8,1.5c2.8,0,5.3-0.6,7.5-1.8c2.1-1.2,4-2.8,5.5-4.9l5.7,4.3c-0.4,0.5-1,1.2-2,2.2c-0.9,1-2.2,1.9-3.7,2.9
		c-1.5,1-3.4,1.8-5.6,2.5c-2.2,0.7-4.7,1.1-7.5,1.1c-3.9,0-7.5-0.7-10.6-2.2c-3.2-1.5-5.8-3.5-8-5.9c-2.2-2.4-3.9-5.2-5.1-8.2
		c-1.2-3.1-1.8-6.1-1.8-9.3c0-3.8,0.6-7.4,1.9-10.6c1.3-3.2,3-6,5.3-8.4c2.3-2.4,5-4.2,8.2-5.5c3.2-1.3,6.7-2,10.5-2
		c3.3,0,6.5,0.6,9.6,1.9c3.1,1.3,5.7,3.2,7.7,5.8L40.1,98.1z"/>
	<path class="st0" d="M51.7,120.3c0-2.4,0.5-4.7,1.4-6.8c0.9-2.1,2.2-3.9,3.7-5.5c1.6-1.6,3.5-2.8,5.6-3.7c2.1-0.9,4.5-1.4,6.9-1.4
		c2.5,0,4.8,0.5,6.9,1.4s4,2.2,5.6,3.7c1.6,1.6,2.8,3.4,3.7,5.5c0.9,2.1,1.4,4.4,1.4,6.8c0,2.4-0.5,4.7-1.4,6.8
		c-0.9,2.1-2.2,4-3.7,5.5c-1.6,1.6-3.5,2.8-5.6,3.7c-2.1,0.9-4.5,1.4-6.9,1.4c-2.5,0-4.8-0.5-6.9-1.4c-2.1-0.9-4-2.1-5.6-3.7
		c-1.6-1.6-2.8-3.4-3.7-5.5C52.1,125,51.7,122.8,51.7,120.3z M58.4,120.3c0,1.7,0.3,3.2,0.8,4.7s1.2,2.6,2.2,3.6
		c0.9,1,2.1,1.8,3.4,2.4c1.4,0.6,2.9,0.9,4.5,0.9s3.2-0.3,4.5-0.9c1.4-0.6,2.5-1.4,3.4-2.4c0.9-1,1.7-2.2,2.2-3.6
		c0.5-1.4,0.8-3,0.8-4.7s-0.3-3.2-0.8-4.7c-0.5-1.4-1.2-2.6-2.2-3.6c-0.9-1-2.1-1.8-3.4-2.4c-1.4-0.6-2.9-0.9-4.5-0.9
		s-3.2,0.3-4.5,0.9c-1.4,0.6-2.5,1.4-3.4,2.4c-0.9,1-1.7,2.2-2.2,3.6C58.6,117.1,58.4,118.7,58.4,120.3z"/>
	<path class="st0" d="M94.8,103.7h5.9v5.2h0.1c0.1-0.5,0.5-1,1.1-1.8c0.6-0.7,1.3-1.4,2.2-2c0.9-0.6,2-1.2,3.2-1.6
		c1.2-0.4,2.6-0.7,4.1-0.7c2.5,0,4.5,0.5,6.2,1.5c1.7,1,3.1,2.6,4.1,4.6c1.1-2.1,2.6-3.6,4.5-4.6c2-1,3.9-1.5,6-1.5
		c2.6,0,4.7,0.4,6.3,1.3c1.6,0.8,2.9,1.9,3.8,3.3c0.9,1.4,1.6,2.9,1.9,4.7c0.3,1.8,0.5,3.6,0.5,5.4v19.3h-6.3v-18.5
		c0-1.3-0.1-2.5-0.2-3.6c-0.2-1.2-0.5-2.2-1-3.1c-0.5-0.9-1.2-1.6-2.2-2.1c-0.9-0.5-2.2-0.8-3.7-0.8c-3,0-5.2,0.9-6.5,2.8
		c-1.3,1.9-2,4.3-2,7.2v18.1h-6.3v-17.4c0-1.6-0.1-3-0.2-4.3c-0.2-1.3-0.5-2.4-1-3.4c-0.5-1-1.2-1.7-2.1-2.2
		c-0.9-0.5-2.1-0.8-3.7-0.8c-1.1,0-2.2,0.2-3.3,0.7s-2,1.1-2.8,2c-0.8,0.9-1.4,2-1.9,3.4c-0.5,1.4-0.7,3-0.7,4.9v17.2h-6.3V103.7z"
		/>
	<path class="st0" d="M154.5,103.7h5.9v5.2h0.1c0.1-0.5,0.5-1,1.1-1.8c0.6-0.7,1.3-1.4,2.2-2c0.9-0.6,2-1.2,3.2-1.6
		c1.2-0.4,2.6-0.7,4.1-0.7c2.5,0,4.5,0.5,6.2,1.5c1.7,1,3.1,2.6,4.1,4.6c1.1-2.1,2.6-3.6,4.5-4.6c2-1,3.9-1.5,6-1.5
		c2.6,0,4.7,0.4,6.3,1.3c1.6,0.8,2.9,1.9,3.8,3.3c0.9,1.4,1.6,2.9,1.9,4.7c0.3,1.8,0.5,3.6,0.5,5.4v19.3h-6.3v-18.5
		c0-1.3-0.1-2.5-0.2-3.6c-0.2-1.2-0.5-2.2-1-3.1c-0.5-0.9-1.2-1.6-2.2-2.1c-0.9-0.5-2.2-0.8-3.7-0.8c-3,0-5.2,0.9-6.5,2.8
		c-1.3,1.9-2,4.3-2,7.2v18.1h-6.3v-17.4c0-1.6-0.1-3-0.2-4.3c-0.2-1.3-0.5-2.4-1-3.4c-0.5-1-1.2-1.7-2.1-2.2
		c-0.9-0.5-2.1-0.8-3.7-0.8c-1.1,0-2.2,0.2-3.3,0.7s-2,1.1-2.8,2c-0.8,0.9-1.4,2-1.9,3.4c-0.5,1.4-0.7,3-0.7,4.9v17.2h-6.3V103.7z"
		/>
	<path class="st0" d="M243.5,136.9h-6.3v-5.1h-0.1c-0.8,1.8-2.2,3.2-4.1,4.3c-2,1.1-4.2,1.6-6.8,1.6c-1.6,0-3.2-0.2-4.6-0.7
		c-1.4-0.5-2.7-1.2-3.8-2.3c-1.1-1-2-2.3-2.6-4c-0.7-1.6-1-3.5-1-5.7v-21.3h6.3v19.6c0,1.5,0.2,2.9,0.6,4c0.4,1.1,1,2,1.7,2.7
		c0.7,0.7,1.5,1.2,2.4,1.5c0.9,0.3,1.9,0.5,2.8,0.5c1.3,0,2.5-0.2,3.6-0.6s2.1-1.1,2.9-2s1.5-2.1,2-3.5c0.5-1.4,0.7-3.1,0.7-5v-17.1
		h6.3V136.9z"/>
	<path class="st0" d="M253,103.7h6.3v5.1h0.1c0.8-1.8,2.2-3.2,4.1-4.3c2-1.1,4.2-1.6,6.8-1.6c1.6,0,3.1,0.2,4.6,0.7s2.8,1.2,3.8,2.3
		s2,2.3,2.6,4c0.7,1.6,1,3.5,1,5.7v21.3h-6.3v-19.6c0-1.5-0.2-2.9-0.6-4c-0.4-1.1-1-2-1.7-2.7c-0.7-0.7-1.5-1.2-2.4-1.5
		s-1.9-0.5-2.8-0.5c-1.3,0-2.5,0.2-3.6,0.6s-2.1,1.1-2.9,2c-0.8,0.9-1.5,2.1-2,3.5c-0.5,1.4-0.7,3.1-0.7,5v17.1H253V103.7z"/>
	<path class="st0" d="M291,91.8c0-1.3,0.5-2.3,1.4-3.3c0.9-0.9,2-1.4,3.3-1.4c1.3,0,2.3,0.5,3.3,1.4s1.4,2,1.4,3.3s-0.5,2.3-1.4,3.3
		s-2,1.4-3.3,1.4c-1.3,0-2.3-0.5-3.3-1.4C291.4,94.2,291,93.1,291,91.8z M292.5,103.7h6.3v33.2h-6.3V103.7z"/>
	<path class="st0" d="M332.5,112.6c-1.2-1.2-2.4-2.1-3.7-2.8c-1.3-0.6-2.8-0.9-4.6-0.9c-1.7,0-3.2,0.3-4.5,0.9
		c-1.3,0.6-2.4,1.5-3.2,2.6c-0.9,1.1-1.5,2.4-2,3.8c-0.4,1.4-0.7,2.9-0.7,4.4s0.3,3,0.8,4.4c0.5,1.4,1.2,2.6,2.2,3.6
		c0.9,1,2.1,1.8,3.4,2.4c1.3,0.6,2.8,0.9,4.4,0.9c1.8,0,3.3-0.3,4.5-0.9s2.4-1.6,3.5-2.8l4.5,4.5c-1.6,1.8-3.5,3.1-5.7,3.9
		s-4.5,1.2-6.9,1.2c-2.6,0-4.9-0.4-7-1.3c-2.1-0.8-4-2-5.5-3.5c-1.5-1.5-2.7-3.3-3.6-5.5c-0.8-2.1-1.3-4.5-1.3-7
		c0-2.6,0.4-4.9,1.3-7.1s2-4,3.5-5.5c1.5-1.5,3.3-2.7,5.5-3.6c2.1-0.9,4.5-1.3,7.1-1.3c2.4,0,4.7,0.4,7,1.3c2.2,0.9,4.1,2.2,5.8,4
		L332.5,112.6z"/>
	<path class="st0" d="M342.6,107.8c1.8-1.6,3.8-2.9,6.2-3.7c2.3-0.8,4.7-1.2,7-1.2c2.4,0,4.5,0.3,6.3,0.9c1.8,0.6,3.2,1.4,4.3,2.5
		c1.1,1,1.9,2.2,2.5,3.5c0.5,1.3,0.8,2.7,0.8,4.2v16.9c0,1.2,0,2.2,0.1,3.2c0,1,0.1,1.9,0.2,2.8h-5.6c-0.1-1.7-0.2-3.4-0.2-5H364
		c-1.4,2.1-3.1,3.7-5,4.5c-1.9,0.9-4.1,1.3-6.7,1.3c-1.5,0-3-0.2-4.4-0.6c-1.4-0.4-2.6-1-3.7-1.9s-1.9-1.9-2.5-3.1
		c-0.6-1.2-0.9-2.7-0.9-4.3c0-2.1,0.5-3.9,1.4-5.4c1-1.4,2.3-2.6,3.9-3.5c1.7-0.9,3.6-1.6,5.8-2c2.2-0.4,4.6-0.6,7.1-0.6h4.6v-1.4
		c0-0.8-0.2-1.7-0.5-2.5c-0.3-0.8-0.8-1.6-1.5-2.3c-0.7-0.7-1.5-1.2-2.5-1.6c-1-0.4-2.1-0.6-3.5-0.6c-1.2,0-2.3,0.1-3.2,0.4
		c-0.9,0.2-1.7,0.5-2.5,0.9c-0.7,0.3-1.4,0.8-2,1.2c-0.6,0.5-1.2,0.9-1.8,1.3L342.6,107.8z M360.4,121c-1.5,0-3,0.1-4.6,0.2
		c-1.6,0.2-3,0.5-4.3,0.9c-1.3,0.5-2.3,1.1-3.2,2c-0.8,0.8-1.2,1.9-1.2,3.2c0,1.9,0.6,3.3,1.9,4.1c1.3,0.8,3,1.3,5.2,1.3
		c1.7,0,3.2-0.3,4.4-0.9c1.2-0.6,2.2-1.3,2.9-2.3c0.7-0.9,1.3-2,1.6-3.1c0.3-1.1,0.5-2.3,0.5-3.4V121H360.4z"/>
	<path class="st0" d="M396.6,109.2h-9v15c0,0.9,0,1.9,0.1,2.8c0,0.9,0.2,1.7,0.5,2.5c0.3,0.7,0.8,1.3,1.4,1.8
		c0.6,0.4,1.6,0.7,2.8,0.7c0.7,0,1.5-0.1,2.3-0.2c0.8-0.1,1.5-0.4,2.2-0.8v5.7c-0.7,0.4-1.7,0.7-2.9,0.9c-1.2,0.2-2.1,0.2-2.8,0.2
		c-2.4,0-4.3-0.3-5.6-1s-2.3-1.6-2.9-2.6c-0.6-1.1-1-2.3-1.1-3.6c-0.1-1.3-0.2-2.7-0.2-4v-17.3H374v-5.5h7.3v-9.3h6.3v9.3h9V109.2z"
		/>
	<path class="st0" d="M403.8,91.8c0-1.3,0.5-2.3,1.4-3.3c0.9-0.9,2-1.4,3.3-1.4c1.3,0,2.3,0.5,3.3,1.4s1.4,2,1.4,3.3
		s-0.5,2.3-1.4,3.3s-2,1.4-3.3,1.4c-1.3,0-2.3-0.5-3.3-1.4C404.2,94.2,403.8,93.1,403.8,91.8z M405.2,103.7h6.3v33.2h-6.3V103.7z"/>
	<path class="st0" d="M426.3,122.6c0,1.4,0.3,2.8,0.9,4c0.6,1.2,1.5,2.2,2.5,3c1,0.8,2.2,1.5,3.6,2c1.4,0.5,2.8,0.7,4.2,0.7
		c2,0,3.7-0.5,5.1-1.4c1.4-0.9,2.8-2.1,4-3.6l4.8,3.6c-3.5,4.5-8.4,6.8-14.7,6.8c-2.6,0-5-0.4-7.1-1.3c-2.1-0.9-3.9-2.1-5.4-3.7
		c-1.5-1.6-2.6-3.4-3.4-5.5c-0.8-2.1-1.2-4.4-1.2-6.9c0-2.5,0.4-4.8,1.3-6.9c0.9-2.1,2.1-4,3.6-5.5c1.5-1.6,3.3-2.8,5.4-3.7
		c2.1-0.9,4.4-1.3,6.9-1.3c2.9,0,5.4,0.5,7.5,1.5c2,1,3.7,2.4,5,4c1.3,1.7,2.3,3.5,2.8,5.6c0.6,2.1,0.9,4.2,0.9,6.3v2.2H426.3z
		 M446.2,117.6c0-1.4-0.3-2.7-0.7-3.8c-0.4-1.2-1-2.2-1.8-3c-0.8-0.9-1.8-1.5-3-2c-1.2-0.5-2.6-0.7-4.2-0.7c-1.5,0-3,0.3-4.2,0.9
		c-1.3,0.6-2.4,1.3-3.3,2.3c-0.9,0.9-1.6,2-2.1,3.1s-0.7,2.3-0.7,3.4H446.2z"/>
	<path class="st0" d="M7.1,210.6c1.2,1.8,2.8,3.2,4.7,4c1.9,0.9,3.8,1.3,5.8,1.3c1.1,0,2.3-0.2,3.4-0.5c1.2-0.3,2.2-0.9,3.2-1.6
		c1-0.7,1.7-1.6,2.3-2.6c0.6-1,0.9-2.2,0.9-3.6c0-1.9-0.6-3.4-1.8-4.4c-1.2-1-2.7-1.8-4.5-2.5c-1.8-0.7-3.8-1.3-5.9-2
		c-2.1-0.6-4.1-1.5-5.9-2.6c-1.8-1.1-3.3-2.6-4.5-4.5C3.6,189.7,3,187.2,3,184c0-1.4,0.3-3,0.9-4.6c0.6-1.6,1.6-3.1,3-4.5
		c1.4-1.4,3.1-2.5,5.2-3.4c2.1-0.9,4.7-1.4,7.7-1.4c2.7,0,5.3,0.4,7.8,1.1c2.5,0.7,4.6,2.3,6.5,4.5l-5.5,5c-0.8-1.3-2-2.4-3.6-3.2
		c-1.5-0.8-3.3-1.2-5.2-1.2c-1.9,0-3.4,0.2-4.7,0.7c-1.2,0.5-2.2,1.1-3,1.9c-0.7,0.8-1.3,1.6-1.6,2.5c-0.3,0.9-0.5,1.7-0.5,2.5
		c0,2.1,0.6,3.7,1.8,4.8c1.2,1.1,2.7,2,4.5,2.7c1.8,0.7,3.8,1.3,5.9,1.9c2.1,0.6,4.1,1.3,5.9,2.3c1.8,1,3.3,2.4,4.5,4.1
		c1.2,1.7,1.8,4,1.8,7c0,2.4-0.5,4.5-1.4,6.4c-0.9,1.9-2.1,3.5-3.7,4.8c-1.5,1.3-3.4,2.3-5.5,3c-2.1,0.7-4.3,1-6.7,1
		c-3.2,0-6.2-0.6-9-1.7s-5.1-2.8-6.8-5.2L7.1,210.6z"/>
	<path class="st0" d="M42.9,187.7h6.3v4.8h0.1c1.2-1.8,2.9-3.2,5-4.1c2.1-1,4.3-1.5,6.5-1.5c2.6,0,4.9,0.4,7,1.3
		c2.1,0.9,3.9,2.1,5.3,3.7c1.5,1.6,2.6,3.4,3.4,5.6c0.8,2.1,1.2,4.4,1.2,6.8c0,2.5-0.4,4.8-1.2,6.9c-0.8,2.1-1.9,4-3.4,5.5
		c-1.5,1.6-3.2,2.8-5.3,3.7c-2.1,0.9-4.4,1.3-7,1.3c-2.4,0-4.6-0.5-6.7-1.5c-2.1-1-3.7-2.4-4.8-4.1h-0.1v24.5h-6.3V187.7z
		 M60.1,192.8c-1.7,0-3.2,0.3-4.6,0.9c-1.4,0.6-2.5,1.4-3.4,2.4c-0.9,1-1.7,2.2-2.2,3.6c-0.5,1.4-0.8,3-0.8,4.7s0.3,3.2,0.8,4.7
		c0.5,1.4,1.2,2.6,2.2,3.6c0.9,1,2.1,1.8,3.4,2.4c1.4,0.6,2.9,0.9,4.6,0.9c1.7,0,3.2-0.3,4.5-0.9c1.4-0.6,2.5-1.4,3.4-2.4
		c0.9-1,1.7-2.2,2.2-3.6c0.5-1.4,0.8-3,0.8-4.7s-0.3-3.2-0.8-4.7c-0.5-1.4-1.2-2.6-2.2-3.6c-0.9-1-2.1-1.8-3.4-2.4
		C63.3,193.1,61.8,192.8,60.1,192.8z"/>
	<path class="st0" d="M85.7,187.7H92v5.1h0.1c0.4-0.9,1-1.7,1.7-2.4c0.7-0.7,1.5-1.3,2.3-1.9c0.9-0.5,1.8-0.9,2.8-1.2
		c1-0.3,2.1-0.5,3.1-0.5s2,0.1,2.8,0.4l-0.3,6.8c-0.5-0.1-1-0.3-1.5-0.4c-0.5-0.1-1-0.1-1.5-0.1c-3.1,0-5.4,0.9-7.1,2.6
		c-1.6,1.7-2.5,4.4-2.5,8v16.7h-6.3V187.7z"/>
	<path class="st0" d="M111.7,191.8c1.8-1.6,3.8-2.9,6.2-3.7c2.3-0.8,4.7-1.2,7-1.2c2.4,0,4.5,0.3,6.3,0.9c1.8,0.6,3.2,1.4,4.3,2.5
		c1.1,1,1.9,2.2,2.5,3.5c0.5,1.3,0.8,2.7,0.8,4.2v16.9c0,1.2,0,2.2,0.1,3.2c0,1,0.1,1.9,0.2,2.8h-5.6c-0.1-1.7-0.2-3.4-0.2-5h-0.1
		c-1.4,2.1-3.1,3.7-5,4.5c-1.9,0.9-4.1,1.3-6.7,1.3c-1.5,0-3-0.2-4.4-0.6c-1.4-0.4-2.6-1-3.7-1.9s-1.9-1.9-2.5-3.1
		c-0.6-1.2-0.9-2.7-0.9-4.3c0-2.1,0.5-3.9,1.4-5.4c1-1.4,2.3-2.6,3.9-3.5c1.7-0.9,3.6-1.6,5.8-2c2.2-0.4,4.6-0.6,7.1-0.6h4.6v-1.4
		c0-0.8-0.2-1.7-0.5-2.5c-0.3-0.8-0.8-1.6-1.5-2.3c-0.7-0.7-1.5-1.2-2.5-1.6c-1-0.4-2.1-0.6-3.5-0.6c-1.2,0-2.3,0.1-3.2,0.4
		c-0.9,0.2-1.7,0.5-2.5,0.9c-0.7,0.3-1.4,0.8-2,1.2c-0.6,0.5-1.2,0.9-1.8,1.3L111.7,191.8z M129.5,205c-1.5,0-3,0.1-4.6,0.2
		c-1.6,0.2-3,0.5-4.3,0.9c-1.3,0.5-2.3,1.1-3.2,2c-0.8,0.8-1.2,1.9-1.2,3.2c0,1.9,0.6,3.3,1.9,4.1c1.3,0.8,3,1.3,5.2,1.3
		c1.7,0,3.2-0.3,4.4-0.9c1.2-0.6,2.2-1.3,2.9-2.3c0.7-0.9,1.3-2,1.6-3.1c0.3-1.1,0.5-2.3,0.5-3.4V205H129.5z"/>
	<path class="st0" d="M148,191.8c1.8-1.6,3.8-2.9,6.2-3.7c2.3-0.8,4.7-1.2,7-1.2c2.4,0,4.5,0.3,6.3,0.9c1.8,0.6,3.2,1.4,4.3,2.5
		c1.1,1,1.9,2.2,2.5,3.5c0.5,1.3,0.8,2.7,0.8,4.2v16.9c0,1.2,0,2.2,0.1,3.2c0,1,0.1,1.9,0.2,2.8h-5.6c-0.1-1.7-0.2-3.4-0.2-5h-0.1
		c-1.4,2.1-3.1,3.7-5,4.5c-1.9,0.9-4.1,1.3-6.7,1.3c-1.5,0-3-0.2-4.4-0.6c-1.4-0.4-2.6-1-3.7-1.9s-1.9-1.9-2.5-3.1
		c-0.6-1.2-0.9-2.7-0.9-4.3c0-2.1,0.5-3.9,1.4-5.4c1-1.4,2.3-2.6,3.9-3.5c1.7-0.9,3.6-1.6,5.8-2c2.2-0.4,4.6-0.6,7.1-0.6h4.6v-1.4
		c0-0.8-0.2-1.7-0.5-2.5c-0.3-0.8-0.8-1.6-1.5-2.3c-0.7-0.7-1.5-1.2-2.5-1.6c-1-0.4-2.1-0.6-3.5-0.6c-1.2,0-2.3,0.1-3.2,0.4
		c-0.9,0.2-1.7,0.5-2.5,0.9c-0.7,0.3-1.4,0.8-2,1.2c-0.6,0.5-1.2,0.9-1.8,1.3L148,191.8z M165.8,205c-1.5,0-3,0.1-4.6,0.2
		c-1.6,0.2-3,0.5-4.3,0.9c-1.3,0.5-2.3,1.1-3.2,2c-0.8,0.8-1.2,1.9-1.2,3.2c0,1.9,0.6,3.3,1.9,4.1c1.3,0.8,3,1.3,5.2,1.3
		c1.7,0,3.2-0.3,4.4-0.9c1.2-0.6,2.2-1.3,2.9-2.3c0.7-0.9,1.3-2,1.6-3.1c0.3-1.1,0.5-2.3,0.5-3.4V205H165.8z"/>
	<path class="st0" d="M184.2,168h6.3v34.2l14.3-14.4h8.8l-15.5,15.1l16.8,18.1h-9l-15.4-17.2v17.2h-6.3V168z"/>
	<path class="st0" d="M16,261.7H0v-6.3h38.6v6.3h-16v43.3H16V261.7z"/>
	<path class="st0" d="M36.5,275.8c1.8-1.6,3.8-2.9,6.2-3.7c2.3-0.8,4.7-1.2,7-1.2c2.4,0,4.5,0.3,6.3,0.9c1.8,0.6,3.2,1.4,4.3,2.5
		c1.1,1,1.9,2.2,2.5,3.5c0.5,1.3,0.8,2.7,0.8,4.2v16.9c0,1.2,0,2.2,0.1,3.2c0,1,0.1,1.9,0.2,2.8h-5.6c-0.1-1.7-0.2-3.4-0.2-5h-0.1
		c-1.4,2.1-3.1,3.7-5,4.5c-1.9,0.9-4.1,1.3-6.7,1.3c-1.5,0-3-0.2-4.4-0.6c-1.4-0.4-2.6-1-3.7-1.9s-1.9-1.9-2.5-3.1
		c-0.6-1.2-0.9-2.7-0.9-4.3c0-2.1,0.5-3.9,1.4-5.4c1-1.4,2.3-2.6,3.9-3.5c1.7-0.9,3.6-1.6,5.8-2c2.2-0.4,4.6-0.6,7.1-0.6h4.6v-1.4
		c0-0.8-0.2-1.7-0.5-2.5c-0.3-0.8-0.8-1.6-1.5-2.3c-0.7-0.7-1.5-1.2-2.5-1.6c-1-0.4-2.1-0.6-3.5-0.6c-1.2,0-2.3,0.1-3.2,0.4
		c-0.9,0.2-1.7,0.5-2.5,0.9c-0.7,0.3-1.4,0.8-2,1.2c-0.6,0.5-1.2,0.9-1.8,1.3L36.5,275.8z M54.3,289c-1.5,0-3,0.1-4.6,0.2
		c-1.6,0.2-3,0.5-4.3,0.9c-1.3,0.5-2.3,1.1-3.2,2c-0.8,0.8-1.2,1.9-1.2,3.2c0,1.9,0.6,3.3,1.9,4.1c1.3,0.8,3,1.3,5.2,1.3
		c1.7,0,3.2-0.3,4.4-0.9c1.2-0.6,2.2-1.3,2.9-2.3c0.7-0.9,1.3-2,1.6-3.1c0.3-1.1,0.5-2.3,0.5-3.4V289H54.3z"/>
	<path class="st0" d="M72.9,275.8c1.8-1.6,3.8-2.9,6.2-3.7c2.3-0.8,4.7-1.2,7-1.2c2.4,0,4.5,0.3,6.3,0.9c1.8,0.6,3.2,1.4,4.3,2.5
		c1.1,1,1.9,2.2,2.5,3.5c0.5,1.3,0.8,2.7,0.8,4.2v16.9c0,1.2,0,2.2,0.1,3.2c0,1,0.1,1.9,0.2,2.8h-5.6c-0.1-1.7-0.2-3.4-0.2-5h-0.1
		c-1.4,2.1-3.1,3.7-5,4.5c-1.9,0.9-4.1,1.3-6.7,1.3c-1.5,0-3-0.2-4.4-0.6c-1.4-0.4-2.6-1-3.7-1.9s-1.9-1.9-2.5-3.1
		c-0.6-1.2-0.9-2.7-0.9-4.3c0-2.1,0.5-3.9,1.4-5.4c1-1.4,2.3-2.6,3.9-3.5c1.7-0.9,3.6-1.6,5.8-2c2.2-0.4,4.6-0.6,7.1-0.6H94v-1.4
		c0-0.8-0.2-1.7-0.5-2.5c-0.3-0.8-0.8-1.6-1.5-2.3c-0.7-0.7-1.5-1.2-2.5-1.6c-1-0.4-2.1-0.6-3.5-0.6c-1.2,0-2.3,0.1-3.2,0.4
		c-0.9,0.2-1.7,0.5-2.5,0.9c-0.7,0.3-1.4,0.8-2,1.2c-0.6,0.5-1.2,0.9-1.8,1.3L72.9,275.8z M90.7,289c-1.5,0-3,0.1-4.6,0.2
		c-1.6,0.2-3,0.5-4.3,0.9c-1.3,0.5-2.3,1.1-3.2,2c-0.8,0.8-1.2,1.9-1.2,3.2c0,1.9,0.6,3.3,1.9,4.1c1.3,0.8,3,1.3,5.2,1.3
		c1.7,0,3.2-0.3,4.4-0.9c1.2-0.6,2.2-1.3,2.9-2.3c0.7-0.9,1.3-2,1.6-3.1c0.3-1.1,0.5-2.3,0.5-3.4V289H90.7z"/>
	<path class="st0" d="M109.6,252h6.3v52.9h-6.3V252z"/>
</g>
</svg>
