<!-- Generator: Adobe Illustrator 19.0.0, SVG Export Plug-In  -->
<svg version="1.1"
	 xmlns="http://www.w3.org/2000/svg" xmlns:xlink="http://www.w3.org/1999/xlink" xmlns:a="http://ns.adobe.com/AdobeSVGViewerExtensions/3.0/"
	 x="0px" y="0px" width="3593.4px" height="315.2px" viewBox="0 0 3593.4 315.2" style="enable-background:new 0 0 3593.4 315.2;"
	 xml:space="preserve">
<style type="text/css">
	.st0{clip-path:url(#XMLID_109_);fill:#4DA199;}
	.st1{clip-path:url(#XMLID_110_);fill:#4DA199;}
</style>
<defs>
</defs>
<g id="XMLID_28_">
	<defs>
		<rect id="XMLID_53_" x="0" y="0" width="3593.4" height="315.2"/>
	</defs>
	<clipPath id="XMLID_109_">
		<use xlink:href="#XMLID_53_"  style="overflow:visible;"/>
	</clipPath>
	<path id="XMLID_108_" class="st0" d="M44,302.5C14.7,252.7,0,202.8,0,152.7C0,102.7,14.7,52,44,0.7l31.7,14.7
		c-24.2,47.8-36.4,92.9-36.4,135.4c0,42.5,12,88.1,36,136.8L44,302.5z"/>
	<path id="XMLID_105_" class="st0" d="M159.4,133.7h24c32.5,0,48.7-13.2,48.7-39.7c0-16-4.2-26.6-12.5-31.8
		c-8.3-5.2-21.6-7.9-39.9-7.9h-20.3V133.7z M98.1,243.8v-27l11-1c6.4-0.7,9.7-3.8,9.7-9.3V51.4l-19-1V22h95.4
		c24.9,0,44.3,5.8,58.2,17.5s20.8,29.2,20.8,52.5c0,23.4-7.9,41.5-23.7,54.5c-15.8,13-36.7,19.5-62.7,19.5h-28.4v48.4l32,1v28.3
		H98.1z"/>
	<path id="XMLID_104_" class="st0" d="M397.7,71c-11,0-20.8,2.8-29.2,8.5c-8.4,5.7-14.7,12.9-18.7,21.5v-25h-50.8
		c0.7,5.1,1,10.4,1,16c0,3.9-0.2,7.7-0.5,11.5l8,0.6c3.1,0.2,5.3,1,6.5,2.5c1.2,1.5,1.8,4,1.8,7.5v92.4c0,4-0.8,6.7-2.3,8.2
		c-1.6,1.5-4,2.4-7.3,2.9l-11,1v25.4h89.4v-26.3l-29-1.4v-77.4c0-9.8,2.9-17.9,8.5-24.2c5.7-6.3,12.9-9.5,21.9-9.5
		c3.6,0,6.5,0.6,9,1.7c2.2,1.1,3.3,3.9,3.3,8.3v15.3l31-2.3V78.4C419.3,73.5,408.8,71,397.7,71"/>
	<path id="XMLID_101_" class="st0" d="M517.8,147.3c8.1-1.5,15.6-4.7,22.5-9.7s10.3-10.9,10.3-17.8c0-13.6-6.7-20.4-20-20.4
		c-12.4,0-22,4.9-28.7,14.8c-6.7,9.9-10.3,21.7-11,35.5C500.7,149.5,509.7,148.7,517.8,147.3 M533,71c16.7,0,29.9,4.1,39.7,12.2
		c9.8,8.1,14.7,19.5,14.7,34.2c0,9.8-2.1,18.4-6.3,25.9c-4.3,7.5-9.5,13.3-15.7,17.5c-6.3,4.2-13.8,7.6-22.7,10.3
		c-14.9,4.5-31.7,6.7-50.4,6.7c0.7,11.8,4.3,21.3,11,28.5c6.7,7.2,16.9,10.9,30.7,10.9c13.8,0,27.5-4.9,41.3-14.7l12.7,27
		c-4.4,4-11.9,8.1-22.5,12.3s-22.6,6.3-36.2,6.3c-27.1,0-47-7.5-59.7-22.5c-12.7-15-19-35.6-19-61.9s7.2-48.2,21.7-66
		C486.7,79.9,507,71,533,71"/>
	<path id="XMLID_100_" class="st0" d="M643,0c29.4,49.8,44,99.7,44,149.8c0,50-14.7,100.7-44,152.1l-31.7-14.7
		c24.2-47.8,36.4-92.9,36.4-135.4c0-42.5-12-88.1-36-136.8L643,0z"/>
	<path id="XMLID_97_" class="st0" d="M976.9,219.5c24.2,0,36.3-19.6,36.3-58.7c0-19.8-2.7-34.8-8.2-45.1
		c-5.5-10.2-14.6-15.3-27.4-15.3c-12.8,0-22.2,4.9-28.2,14.7c-6,9.8-9,23.1-9,40c0,31.3,5.8,51,17.3,59
		C963,217.7,969.3,219.5,976.9,219.5 M900.2,159.8c0-16.5,2.4-30.7,7.3-42.9c4.9-12.1,11.5-21.4,19.7-27.8c15.8-12,33.3-18,52.4-18
		c13.3,0,24.6,2.2,33.9,6.5c9.2,4.3,16.4,9.3,21.7,15c5.2,5.7,9.7,13.9,13.3,24.7c3.7,10.8,5.5,23.5,5.5,38.2
		c0,30.7-7.5,53.9-22.4,69.7c-14.9,15.8-34,23.7-57.2,23.7c-23.3,0-41.4-7.5-54.5-22.5C906.8,211.3,900.2,189.1,900.2,159.8"/>
	<path id="XMLID_96_" class="st0" d="M875,176.5l-29.9-1.1v23.4c0,3.8-0.5,6.5-1.5,8.2c-1,1.7-3,2.5-6.2,2.5h-55.4V60.7
		c0-6.4,3.2-10,9.7-10.7l11-1V22h-80.4v28.3l19,1v155.1c0,5.6-3.2,8.7-9.6,9.3l-11,1v27h180.1c-0.2-0.2-0.3-0.3-0.4-0.5
		C885.9,226.8,877.4,204.3,875,176.5"/>
	<path id="XMLID_93_" class="st0" d="M1186.7,175.8v-71.7c-7.8-2.7-16.7-4-26.7-4c-13.5,0-24,5-31.2,15c-7.2,10-10.9,23.6-10.9,40.7
		c0,35.1,11.5,52.7,34.7,52.7c9.6,0,17.6-3,24.2-8.9C1183.4,193.7,1186.7,185.8,1186.7,175.8 M1203.4,297.8
		c-12.2,11.5-31.3,17.4-57.4,17.4c-26,0-46.4-3.7-61-11v-46.4l31.7-2.7v16c0,6,2.8,10.1,8.3,12.2c5.6,2.1,13.2,3.2,23,3.2
		c14.2,0,24.2-4.3,30-12.9c5.8-8.6,8.7-20.6,8.7-36.2v-18.3c-10.7,12.5-25.4,18.7-44.4,18.7c-11.5,0-21.7-2.2-30.5-6.7
		c-8.8-4.4-15.6-10.5-20.5-18c-9.6-15.1-14.3-32.9-14.3-53.4c0-29.1,7.9-51.2,23.7-66.2c15.8-15,36.8-22.5,63-22.5
		c21.8,0,42.4,4.1,61.7,12.3v123.7c0,18.9-0.2,31-0.7,36.4C1222.7,268.2,1215.6,286.3,1203.4,297.8"/>
	<path id="XMLID_89_" class="st0" d="M1331.1,219.5c24.2,0,36.3-19.6,36.3-58.7c0-19.8-2.7-34.8-8.2-45.1
		c-5.5-10.2-14.6-15.3-27.4-15.3s-22.2,4.9-28.2,14.7c-6,9.8-9,23.1-9,40c0,31.3,5.8,51,17.3,59
		C1317.2,217.7,1323.5,219.5,1331.1,219.5 M1254.4,159.8c0-16.5,2.4-30.7,7.3-42.9c4.9-12.1,11.5-21.4,19.7-27.8
		c15.8-12,33.3-18,52.4-18c13.3,0,24.6,2.2,33.9,6.5c9.2,4.3,16.4,9.3,21.7,15c5.2,5.7,9.7,13.9,13.3,24.7
		c3.7,10.8,5.5,23.5,5.5,38.2c0,30.7-7.5,53.9-22.3,69.7c-14.9,15.8-34,23.7-57.2,23.7c-23.3,0-41.4-7.5-54.5-22.5
		C1261,211.3,1254.4,189.1,1254.4,159.8"/>
	<path id="XMLID_86_" class="st0" d="M1554.9,159.1c0-37.2-11.2-55.7-33.7-55.7c-9.3,0-17.3,2.8-23.8,8.5s-9.8,12.4-9.8,20.2v76.7
		c8.4,5.6,18.7,8.3,30.8,8.3s21.2-5.6,27.4-16.7C1551.9,189.3,1554.9,175.5,1554.9,159.1 M1449.2,275.5V114.1c0-3.8-0.6-6.4-1.8-7.8
		c-1.2-1.4-3.4-2.2-6.5-2.2l-14-1V76h56.4v21.7c3.6-6.7,10-12.8,19.4-18.3c9.3-5.6,20.4-8.3,33.3-8.3c40.2,0,60.4,28.2,60.4,84.7
		c0,30-6.5,53.1-19.7,69c-13.1,16-30.9,24-53.3,24c-13.4,0-25.3-3.2-35.7-9.7v46l27,1.3v26.3h-86.1v-25.4l11-1
		c3.3-0.4,5.8-1.4,7.3-2.8C1448.4,282.2,1449.2,279.5,1449.2,275.5"/>
	<path id="XMLID_83_" class="st0" d="M1688.5,147.3c8.1-1.5,15.6-4.7,22.5-9.7s10.3-10.9,10.3-17.8c0-13.6-6.7-20.4-20-20.4
		c-12.4,0-22,4.9-28.7,14.8c-6.7,9.9-10.3,21.7-11,35.5C1671.4,149.5,1680.4,148.7,1688.5,147.3 M1703.7,71
		c16.7,0,29.9,4.1,39.7,12.2c9.8,8.1,14.7,19.5,14.7,34.2c0,9.8-2.1,18.4-6.3,25.9c-4.3,7.5-9.5,13.3-15.7,17.5
		c-6.3,4.2-13.8,7.6-22.7,10.3c-14.9,4.5-31.7,6.7-50.4,6.7c0.7,11.8,4.3,21.3,11,28.5c6.7,7.2,16.9,10.9,30.7,10.9
		c13.8,0,27.6-4.9,41.4-14.7l12.7,27c-4.4,4-11.9,8.1-22.5,12.3c-10.6,4.2-22.6,6.3-36.2,6.3c-27.1,0-47-7.5-59.7-22.5
		c-12.7-15-19-35.6-19-61.9s7.2-48.2,21.7-66C1657.4,79.9,1677.6,71,1703.7,71"/>
	<path id="XMLID_80_" class="st0" d="M1892.4,191.8v-86.4c-8-3.6-16.5-5.4-25.4-5.4c-14.7,0-25.4,5.9-32.2,17.7
		c-6.8,11.8-10.2,26.8-10.2,45c0,37.3,12,56,36,56c9.1,0,16.7-2.6,22.7-7.8C1889.4,205.7,1892.4,199.3,1892.4,191.8 M1865.1,71
		c9.6,0,18.7,1.3,27.4,4V41.3c0-4.9-2.9-7.6-8.7-8l-14.3-1V6h62v202.8c0.2,5.1,3,7.7,8.3,7.7l11.6,0.7v26.7h-54v-19.7l-1-0.3
		c-10,16.2-25.1,24.4-45.3,24.4c-25.4,0-43.2-8.5-53.4-25.4c-9.4-15.4-14-34.1-14-56.4c0-28.9,7.2-52,21.5-69.4
		C1819.5,79.7,1839.5,71,1865.1,71"/>
	<path id="XMLID_77_" class="st0" d="M2138.1,147.3c8.1-1.5,15.6-4.7,22.5-9.7c6.9-5,10.3-10.9,10.3-17.8c0-13.6-6.7-20.4-20-20.4
		c-12.4,0-22,4.9-28.7,14.8c-6.7,9.9-10.3,21.7-11,35.5C2121,149.5,2130,148.7,2138.1,147.3 M2153.2,71c16.7,0,29.9,4.1,39.7,12.2
		c9.8,8.1,14.7,19.5,14.7,34.2c0,9.8-2.1,18.4-6.3,25.9c-4.3,7.5-9.5,13.3-15.7,17.5c-6.3,4.2-13.8,7.6-22.7,10.3
		c-14.9,4.5-31.7,6.7-50.4,6.7c0.7,11.8,4.3,21.3,11,28.5c6.7,7.2,16.9,10.9,30.7,10.9c13.8,0,27.5-4.9,41.3-14.7l12.7,27
		c-4.4,4-11.9,8.1-22.5,12.3s-22.6,6.3-36.2,6.3c-27.1,0-47-7.5-59.7-22.5c-12.7-15-19-35.6-19-61.9s7.2-48.2,21.7-66
		C2107,79.9,2127.2,71,2153.2,71"/>
	<path id="XMLID_76_" class="st0" d="M2054.5,216.6l-23.4-0.5V76.1h-59.7v27.7l11.7,0.7c3.1,0,5.3,0.7,6.5,2
		c1.2,1.3,1.8,3.9,1.8,7.7v92.7c0,6.5-3.2,9-9.7,9.7l-11,0.5l0,26.8h100.6c-0.4-0.5-0.9-1-1.3-1.5
		C2063.7,234.7,2058.5,226.1,2054.5,216.6"/>
	<path id="XMLID_75_" class="st0" d="M2007.5,54c7.6,0,13.7-2.3,18.5-6.9c4.8-4.5,7.2-10.4,7.2-17.5c0-7.1-2.4-13.1-7.2-17.9
		c-4.8-4.8-10.9-7.2-18.5-7.2s-13.7,2.4-18.3,7.2c-4.7,4.8-7,10.7-7,17.9c0,7.1,2.3,12.9,7,17.5C1993.8,51.7,1999.9,54,2007.5,54"/>
	<path id="XMLID_70_" class="st0" d="M2359.4,142.7v69.7h31.3c28.9,0,43.3-11.8,43.3-35.3c0-11.1-3.6-19.6-10.9-25.5
		c-7.2-5.9-17.5-8.9-30.8-8.9H2359.4z M2359.4,52.7v60.4h24.7c13.8,0,24-2.9,30.5-8.5c6.6-5.7,9.8-13.6,9.8-23.9s-3.3-17.5-9.8-21.7
		c-6.6-4.2-16-6.3-28.2-6.3H2359.4z M2299.7,22h94c48,0,72.1,18.6,72.1,55.7c0,20.5-10.2,36-30.7,46.7c13.1,3.3,23.4,9.5,30.8,18.3
		c7.5,8.9,11.2,20.5,11.2,34.7c0,21.6-7.3,38-21.8,49.4c-14.6,11.3-35.8,17-63.6,17H2298v-27l11-1c6.4-0.7,9.7-3.8,9.7-9.3V51.4
		l-19-1V22z"/>
	<path id="XMLID_67_" class="st0" d="M2575.2,219.5c24.2,0,36.3-19.6,36.3-58.7c0-19.8-2.7-34.8-8.2-45.1
		c-5.5-10.2-14.6-15.3-27.4-15.3c-12.8,0-22.2,4.9-28.2,14.7c-6,9.8-9,23.1-9,40c0,31.3,5.8,51,17.3,59
		C2561.3,217.7,2567.6,219.5,2575.2,219.5 M2498.4,159.8c0-16.5,2.4-30.7,7.3-42.9s11.5-21.4,19.7-27.8c15.8-12,33.3-18,52.4-18
		c13.3,0,24.6,2.2,33.9,6.5c9.2,4.3,16.4,9.3,21.7,15c5.2,5.7,9.7,13.9,13.3,24.7c3.7,10.8,5.5,23.5,5.5,38.2
		c0,30.7-7.5,53.9-22.4,69.7c-14.9,15.8-34,23.7-57.2,23.7c-23.3,0-41.4-7.5-54.5-22.5C2505,211.3,2498.4,189.1,2498.4,159.8"/>
	<path id="XMLID_65_" class="st0" d="M2764.9,208.5l-20.3-26.7l-27.7,34.4l15.7,1v26.7h-69.4v-26.3l10.3-1c5.1-0.7,9.6-3.3,13.3-8
		l38.4-48l-41-56.7l-17-2V76h77.7v26.3l-9.6,0.7c-2.7,0.2-4.4,1.2-5.2,3c-0.8,1.8-0.4,3.7,1.1,5.7l19,25.4l25.7-33.4l-13.7-1V76
		h67.7v26l-10,0.7c-4.7,0.2-9.1,3-13.3,8.3l-36.7,46.4l43.7,58l17,2v26.3h-79.4v-26.3l10.3-0.7c2.9-0.2,4.6-1.2,5.2-2.9
		C2767.3,212.3,2766.7,210.5,2764.9,208.5"/>
	<path id="XMLID_64_" class="st0" d="M2845.6,103.1v-27h56.4v21.7c12.5-17.8,29.5-26.7,51.2-26.7c21.7,0,36.3,8.9,43.9,26.7
		c12.5-17.8,29.4-26.7,50.7-26.7c16,0,28.3,4.8,37,14.5c8.7,9.7,13,24.2,13,43.5v87l19,1v26.7h-79.4v-25.4l11-1
		c3.3-0.4,5.7-1.4,7.2-2.8c1.4-1.4,2.3-4.1,2.5-7.8v-69c0-12.2-1.4-21.3-4.2-27.2c-2.8-5.9-9.3-8.9-19.5-8.9
		c-10.2,0-18.1,3.1-23.5,9.3c-5.4,6.3-8.2,14.6-8.2,25v80l18.3,1v26.7h-78.7v-25.4l11-1c3.3-0.4,5.8-1.4,7.3-2.8
		c1.6-1.4,2.3-4.2,2.3-8.2v-68.7c0-12.2-1.4-21.3-4.2-27.2c-2.8-5.9-9.4-8.9-19.7-8.9c-10.3,0-18.1,3.2-23.5,9.7
		c-5.3,6.4-8,14.4-8,24v80.7l18,1v26.7H2847v-25.4l11-1c3.3-0.4,5.8-1.4,7.3-2.8c1.6-1.4,2.3-4.2,2.3-8.2h0.3v-92.1
		c0-3.8-0.6-6.4-1.8-7.8c-1.2-1.4-3.4-2.3-6.5-2.5L2845.6,103.1z"/>
	<path id="XMLID_61_" class="st0" d="M3205,147.3c8.1-1.5,15.6-4.7,22.5-9.7s10.3-10.9,10.3-17.8c0-13.6-6.7-20.4-20-20.4
		c-12.4,0-22,4.9-28.7,14.8c-6.7,9.9-10.3,21.7-11,35.5C3188,149.5,3196.9,148.7,3205,147.3 M3220.2,71c16.7,0,29.9,4.1,39.7,12.2
		c9.8,8.1,14.7,19.5,14.7,34.2c0,9.8-2.1,18.4-6.3,25.9c-4.3,7.5-9.5,13.3-15.7,17.5c-6.3,4.2-13.8,7.6-22.7,10.3
		c-14.9,4.5-31.7,6.7-50.4,6.7c0.7,11.8,4.3,21.3,11,28.5c6.7,7.2,16.9,10.9,30.7,10.9c13.8,0,27.6-4.9,41.4-14.7l12.7,27
		c-4.4,4-11.9,8.1-22.5,12.3c-10.6,4.2-22.6,6.3-36.2,6.3c-27.1,0-47-7.5-59.7-22.5c-12.7-15-19-35.6-19-61.9s7.2-48.2,21.7-66
		C3173.9,79.9,3194.2,71,3220.2,71"/>
	<path id="XMLID_56_" class="st0" d="M3366.4,147.3c8.1-1.5,15.6-4.7,22.5-9.7c6.9-5,10.3-10.9,10.3-17.8c0-13.6-6.7-20.4-20-20.4
		c-12.4,0-22,4.9-28.7,14.8c-6.7,9.9-10.3,21.7-11,35.5C3349.4,149.5,3358.3,148.7,3366.4,147.3 M3381.6,71
		c16.7,0,29.9,4.1,39.7,12.2c9.8,8.1,14.7,19.5,14.7,34.2c0,9.8-2.1,18.4-6.3,25.9c-4.3,7.5-9.5,13.3-15.7,17.5
		c-6.3,4.2-13.8,7.6-22.7,10.3c-14.9,4.5-31.7,6.7-50.4,6.7c0.7,11.8,4.3,21.3,11,28.5c6.7,7.2,16.9,10.9,30.7,10.9
		c13.8,0,27.5-4.9,41.3-14.7l12.7,27c-4.4,4-11.9,8.1-22.5,12.3s-22.6,6.3-36.2,6.3c-27.1,0-47-7.5-59.7-22.5
		c-12.7-15-19-35.6-19-61.9s7.2-48.2,21.7-66C3335.4,79.9,3355.6,71,3381.6,71"/>
	<path id="XMLID_55_" class="st0" d="M3480,206.5v-92.4c0-3.6-0.6-6-1.8-7.5c-1.2-1.5-3.4-2.3-6.5-2.5l-14-1V76h56.4v25
		c4-8.7,10.2-15.8,18.7-21.5c8.4-5.6,18.2-8.5,29.2-8.5c11,0,21.5,2.5,31.5,7.4v49.7l-31,2.3v-15.3c0-4.4-1.1-7.2-3.3-8.3
		c-2.4-1.1-5.5-1.6-9-1.6c-8.9,0-16.2,3.1-21.8,9.5c-5.7,6.3-8.5,14.4-8.5,24.2v77.4l29,1.3v26.3h-89.4v-25.4l11-1
		c3.3-0.4,5.8-1.4,7.3-2.8C3479.2,213.2,3480,210.4,3480,206.5"/>
</g>
</svg>
