<!-- Generator: Adobe Illustrator 19.0.0, SVG Export Plug-In  -->
<svg version="1.1"
	 xmlns="http://www.w3.org/2000/svg" xmlns:xlink="http://www.w3.org/1999/xlink" xmlns:a="http://ns.adobe.com/AdobeSVGViewerExtensions/3.0/"
	 x="0px" y="0px" width="450.4px" height="358px" viewBox="0 0 450.4 358" style="enable-background:new 0 0 450.4 358;"
	 xml:space="preserve">
<style type="text/css">
	.st0{fill:#FF8500;}
</style>
<defs>
</defs>
<g>
	<g>
		<path class="st0" d="M24.6,3.4h32v6.3H31.3v14.8h23.5v6.3H31.3v15.9h26.5v6.3H24.6V3.4z"/>
		<path class="st0" d="M83.5,25.2h-9v15c0,0.9,0,1.9,0.1,2.8c0,0.9,0.2,1.7,0.5,2.5c0.3,0.7,0.8,1.3,1.4,1.8
			c0.6,0.4,1.6,0.7,2.8,0.7c0.7,0,1.5-0.1,2.3-0.2c0.8-0.1,1.5-0.4,2.2-0.8v5.7c-0.7,0.4-1.7,0.7-2.9,0.9c-1.2,0.2-2.1,0.2-2.8,0.2
			c-2.4,0-4.3-0.3-5.6-1s-2.3-1.6-2.9-2.6c-0.6-1.1-1-2.3-1.1-3.6c-0.1-1.3-0.2-2.7-0.2-4V25.2h-7.3v-5.5h7.3v-9.3h6.3v9.3h9V25.2z"
			/>
		<path class="st0" d="M96.4,38.6c0,1.4,0.3,2.8,0.9,4c0.6,1.2,1.5,2.2,2.5,3c1,0.8,2.2,1.5,3.6,2c1.4,0.5,2.8,0.7,4.2,0.7
			c2,0,3.7-0.5,5.1-1.4c1.4-0.9,2.8-2.1,4-3.6l4.8,3.6c-3.5,4.5-8.4,6.8-14.7,6.8c-2.6,0-5-0.4-7.1-1.3c-2.1-0.9-3.9-2.1-5.4-3.7
			c-1.5-1.6-2.6-3.4-3.4-5.5c-0.8-2.1-1.2-4.4-1.2-6.9c0-2.5,0.4-4.8,1.3-6.9c0.9-2.1,2.1-4,3.6-5.5c1.5-1.6,3.3-2.8,5.4-3.7
			c2.1-0.9,4.4-1.3,6.9-1.3c2.9,0,5.4,0.5,7.5,1.5c2,1,3.7,2.4,5,4c1.3,1.7,2.3,3.5,2.8,5.6c0.6,2.1,0.9,4.2,0.9,6.3v2.2H96.4z
			 M116.3,33.6c0-1.4-0.3-2.7-0.7-3.8c-0.4-1.2-1-2.2-1.8-3c-0.8-0.9-1.8-1.5-3-2c-1.2-0.5-2.6-0.7-4.2-0.7c-1.5,0-3,0.3-4.2,0.9
			c-1.3,0.6-2.4,1.3-3.3,2.3c-0.9,0.9-1.6,2-2.1,3.1s-0.7,2.3-0.7,3.4H116.3z"/>
		<path class="st0" d="M130.6,19.7h6.3v5.1h0.1c0.8-1.8,2.2-3.2,4.1-4.3c2-1.1,4.2-1.6,6.8-1.6c1.6,0,3.1,0.2,4.6,0.7
			s2.8,1.2,3.8,2.3s2,2.3,2.6,4c0.7,1.6,1,3.5,1,5.7v21.3h-6.3V33.3c0-1.5-0.2-2.9-0.6-4c-0.4-1.1-1-2-1.7-2.7
			c-0.7-0.7-1.5-1.2-2.4-1.5s-1.9-0.5-2.8-0.5c-1.3,0-2.5,0.2-3.6,0.6s-2.1,1.1-2.9,2c-0.8,0.9-1.5,2.1-2,3.5
			c-0.5,1.4-0.7,3.1-0.7,5v17.1h-6.3V19.7z"/>
		<path class="st0" d="M169.6,56l-4.9-1.8l22.4-53.9l4.8,1.8L169.6,56z"/>
		<path class="st0" d="M230,52.9h-6.3v-4.8h-0.1c-1.2,1.8-2.9,3.1-5,4.1c-2.1,1-4.3,1.5-6.5,1.5c-2.6,0-4.9-0.4-7-1.3
			c-2.1-0.9-3.8-2.1-5.3-3.7c-1.5-1.6-2.6-3.4-3.4-5.5c-0.8-2.1-1.2-4.4-1.2-6.9c0-2.5,0.4-4.8,1.2-6.9c0.8-2.1,1.9-4,3.4-5.5
			c1.5-1.6,3.2-2.8,5.3-3.7c2.1-0.9,4.4-1.3,7-1.3c2.4,0,4.6,0.5,6.7,1.5c2.1,1,3.7,2.4,4.8,4.1h0.1V0h6.3V52.9z M212.8,47.9
			c1.7,0,3.2-0.3,4.5-0.9c1.4-0.6,2.5-1.4,3.4-2.4c0.9-1,1.7-2.2,2.2-3.6c0.5-1.4,0.8-3,0.8-4.7s-0.3-3.2-0.8-4.7
			c-0.5-1.4-1.2-2.6-2.2-3.6c-0.9-1-2.1-1.8-3.4-2.4c-1.4-0.6-2.9-0.9-4.5-0.9s-3.2,0.3-4.5,0.9c-1.4,0.6-2.5,1.4-3.4,2.4
			c-0.9,1-1.7,2.2-2.2,3.6c-0.5,1.4-0.8,3-0.8,4.7s0.3,3.2,0.8,4.7s1.2,2.6,2.2,3.6c0.9,1,2.1,1.8,3.4,2.4
			C209.6,47.6,211.1,47.9,212.8,47.9z"/>
		<path class="st0" d="M239.5,19.7h6.3v5.1h0.1c0.4-0.9,1-1.7,1.7-2.4c0.7-0.7,1.5-1.3,2.3-1.9c0.9-0.5,1.8-0.9,2.8-1.2
			c1-0.3,2.1-0.5,3.1-0.5s2,0.1,2.8,0.4l-0.3,6.8c-0.5-0.1-1-0.3-1.5-0.4c-0.5-0.1-1-0.1-1.5-0.1c-3.1,0-5.4,0.9-7.1,2.6
			c-1.6,1.7-2.5,4.4-2.5,8v16.7h-6.3V19.7z"/>
		<path class="st0" d="M264.4,7.8c0-1.3,0.5-2.3,1.4-3.3c0.9-0.9,2-1.4,3.3-1.4c1.3,0,2.3,0.5,3.3,1.4s1.4,2,1.4,3.3
			s-0.5,2.3-1.4,3.3s-2,1.4-3.3,1.4c-1.3,0-2.3-0.5-3.3-1.4C264.9,10.2,264.4,9.1,264.4,7.8z M265.9,19.7h6.3v33.2h-6.3V19.7z"/>
		<path class="st0" d="M282.2,19.7h6.3v5.1h0.1c0.8-1.8,2.2-3.2,4.1-4.3c2-1.1,4.2-1.6,6.8-1.6c1.6,0,3.1,0.2,4.6,0.7
			s2.8,1.2,3.8,2.3s2,2.3,2.6,4c0.7,1.6,1,3.5,1,5.7v21.3h-6.3V33.3c0-1.5-0.2-2.9-0.6-4c-0.4-1.1-1-2-1.7-2.7
			c-0.7-0.7-1.5-1.2-2.4-1.5s-1.9-0.5-2.8-0.5c-1.3,0-2.5,0.2-3.6,0.6s-2.1,1.1-2.9,2c-0.8,0.9-1.5,2.1-2,3.5
			c-0.5,1.4-0.7,3.1-0.7,5v17.1h-6.3V19.7z"/>
		<path class="st0" d="M321.1,0h6.3v34.2l14.3-14.4h8.8L335,34.9l16.8,18.1h-9l-15.4-17.2v17.2h-6.3V0z"/>
		<path class="st0" d="M362.2,38.6c0,1.4,0.3,2.8,0.9,4c0.6,1.2,1.5,2.2,2.5,3c1,0.8,2.2,1.5,3.6,2c1.4,0.5,2.8,0.7,4.2,0.7
			c2,0,3.7-0.5,5.1-1.4c1.4-0.9,2.8-2.1,4-3.6l4.8,3.6c-3.5,4.5-8.4,6.8-14.7,6.8c-2.6,0-5-0.4-7.1-1.3c-2.1-0.9-3.9-2.1-5.4-3.7
			c-1.5-1.6-2.6-3.4-3.4-5.5c-0.8-2.1-1.2-4.4-1.2-6.9c0-2.5,0.4-4.8,1.3-6.9c0.9-2.1,2.1-4,3.6-5.5c1.5-1.6,3.3-2.8,5.4-3.7
			c2.1-0.9,4.4-1.3,6.9-1.3c2.9,0,5.4,0.5,7.5,1.5c2,1,3.7,2.4,5,4c1.3,1.7,2.3,3.5,2.8,5.6c0.6,2.1,0.9,4.2,0.9,6.3v2.2H362.2z
			 M382.1,33.6c0-1.4-0.3-2.7-0.7-3.8c-0.4-1.2-1-2.2-1.8-3c-0.8-0.9-1.8-1.5-3-2c-1.2-0.5-2.6-0.7-4.2-0.7c-1.5,0-3,0.3-4.2,0.9
			c-1.3,0.6-2.4,1.3-3.3,2.3c-0.9,0.9-1.6,2-2.1,3.1s-0.7,2.3-0.7,3.4H382.1z"/>
		<path class="st0" d="M396.4,19.7h6.3v5.1h0.1c0.8-1.8,2.2-3.2,4.1-4.3c2-1.1,4.2-1.6,6.8-1.6c1.6,0,3.1,0.2,4.6,0.7
			s2.8,1.2,3.8,2.3s2,2.3,2.6,4c0.7,1.6,1,3.5,1,5.7v21.3h-6.3V33.3c0-1.5-0.2-2.9-0.6-4c-0.4-1.1-1-2-1.7-2.7
			c-0.7-0.7-1.5-1.2-2.4-1.5s-1.9-0.5-2.8-0.5c-1.3,0-2.5,0.2-3.6,0.6s-2.1,1.1-2.9,2c-0.8,0.9-1.5,2.1-2,3.5
			c-0.5,1.4-0.7,3.1-0.7,5v17.1h-6.3V19.7z"/>
	</g>
</g>
<g>
	<path class="st0" d="M183.2,313.9h-16v-6.3h38.6v6.3h-16v43.3h-6.7V313.9z"/>
	<path class="st0" d="M203.8,328.1c1.8-1.6,3.8-2.9,6.2-3.7c2.3-0.8,4.7-1.2,7-1.2c2.4,0,4.5,0.3,6.3,0.9c1.8,0.6,3.2,1.4,4.3,2.5
		c1.1,1,1.9,2.2,2.5,3.5c0.5,1.3,0.8,2.7,0.8,4.2v16.9c0,1.2,0,2.2,0.1,3.2c0,1,0.1,1.9,0.2,2.8h-5.6c-0.1-1.7-0.2-3.4-0.2-5h-0.1
		c-1.4,2.1-3.1,3.7-5,4.5c-1.9,0.9-4.1,1.3-6.7,1.3c-1.5,0-3-0.2-4.4-0.6c-1.4-0.4-2.6-1-3.7-1.9s-1.9-1.9-2.5-3.1
		c-0.6-1.2-0.9-2.7-0.9-4.3c0-2.1,0.5-3.9,1.4-5.4c1-1.4,2.3-2.6,3.9-3.5c1.7-0.9,3.6-1.6,5.8-2c2.2-0.4,4.6-0.6,7.1-0.6h4.6v-1.4
		c0-0.8-0.2-1.7-0.5-2.5c-0.3-0.8-0.8-1.6-1.5-2.3c-0.7-0.7-1.5-1.2-2.5-1.6c-1-0.4-2.1-0.6-3.5-0.6c-1.2,0-2.3,0.1-3.2,0.4
		c-0.9,0.2-1.7,0.5-2.5,0.9c-0.7,0.3-1.4,0.8-2,1.2c-0.6,0.5-1.2,0.9-1.8,1.3L203.8,328.1z M221.6,341.2c-1.5,0-3,0.1-4.6,0.2
		c-1.6,0.2-3,0.5-4.3,0.9c-1.3,0.5-2.3,1.1-3.2,2c-0.8,0.8-1.2,1.9-1.2,3.2c0,1.9,0.6,3.3,1.9,4.1c1.3,0.8,3,1.3,5.2,1.3
		c1.7,0,3.2-0.3,4.4-0.9c1.2-0.6,2.2-1.3,2.9-2.3c0.7-0.9,1.3-2,1.6-3.1c0.3-1.1,0.5-2.3,0.5-3.4v-2.1H221.6z"/>
	<path class="st0" d="M240.1,328.1c1.8-1.6,3.8-2.9,6.2-3.7c2.3-0.8,4.7-1.2,7-1.2c2.4,0,4.5,0.3,6.3,0.9c1.8,0.6,3.2,1.4,4.3,2.5
		c1.1,1,1.9,2.2,2.5,3.5c0.5,1.3,0.8,2.7,0.8,4.2v16.9c0,1.2,0,2.2,0.1,3.2c0,1,0.1,1.9,0.2,2.8h-5.6c-0.1-1.7-0.2-3.4-0.2-5h-0.1
		c-1.4,2.1-3.1,3.7-5,4.5c-1.9,0.9-4.1,1.3-6.7,1.3c-1.5,0-3-0.2-4.4-0.6c-1.4-0.4-2.6-1-3.7-1.9s-1.9-1.9-2.5-3.1
		c-0.6-1.2-0.9-2.7-0.9-4.3c0-2.1,0.5-3.9,1.4-5.4c1-1.4,2.3-2.6,3.9-3.5c1.7-0.9,3.6-1.6,5.8-2c2.2-0.4,4.6-0.6,7.1-0.6h4.6v-1.4
		c0-0.8-0.2-1.7-0.5-2.5c-0.3-0.8-0.8-1.6-1.5-2.3c-0.7-0.7-1.5-1.2-2.5-1.6c-1-0.4-2.1-0.6-3.5-0.6c-1.2,0-2.3,0.1-3.2,0.4
		c-0.9,0.2-1.7,0.5-2.5,0.9c-0.7,0.3-1.4,0.8-2,1.2c-0.6,0.5-1.2,0.9-1.8,1.3L240.1,328.1z M257.9,341.2c-1.5,0-3,0.1-4.6,0.2
		c-1.6,0.2-3,0.5-4.3,0.9c-1.3,0.5-2.3,1.1-3.2,2c-0.8,0.8-1.2,1.9-1.2,3.2c0,1.9,0.6,3.3,1.9,4.1c1.3,0.8,3,1.3,5.2,1.3
		c1.7,0,3.2-0.3,4.4-0.9c1.2-0.6,2.2-1.3,2.9-2.3c0.7-0.9,1.3-2,1.6-3.1c0.3-1.1,0.5-2.3,0.5-3.4v-2.1H257.9z"/>
	<path class="st0" d="M276.8,304.3h6.3v52.9h-6.3V304.3z"/>
</g>
<g>
	<path class="st0" d="M124,245.3c1.2,1.8,2.8,3.2,4.7,4c1.9,0.9,3.8,1.3,5.8,1.3c1.1,0,2.3-0.2,3.4-0.5c1.2-0.3,2.2-0.9,3.2-1.6
		c1-0.7,1.7-1.6,2.3-2.6c0.6-1,0.9-2.2,0.9-3.6c0-1.9-0.6-3.4-1.8-4.4c-1.2-1-2.7-1.8-4.5-2.5c-1.8-0.7-3.8-1.3-5.9-2
		c-2.1-0.6-4.1-1.5-5.9-2.6c-1.8-1.1-3.3-2.6-4.5-4.5c-1.2-1.9-1.8-4.4-1.8-7.7c0-1.4,0.3-3,0.9-4.6c0.6-1.6,1.6-3.1,3-4.5
		c1.4-1.4,3.1-2.5,5.2-3.4c2.1-0.9,4.7-1.4,7.7-1.4c2.7,0,5.3,0.4,7.8,1.1c2.5,0.7,4.6,2.3,6.5,4.5l-5.5,5c-0.8-1.3-2-2.4-3.6-3.2
		c-1.5-0.8-3.3-1.2-5.2-1.2c-1.9,0-3.4,0.2-4.7,0.7c-1.2,0.5-2.2,1.1-3,1.9c-0.7,0.8-1.3,1.6-1.6,2.5c-0.3,0.9-0.5,1.7-0.5,2.5
		c0,2.1,0.6,3.7,1.8,4.8c1.2,1.1,2.7,2,4.5,2.7c1.8,0.7,3.8,1.3,5.9,1.9c2.1,0.6,4.1,1.3,5.9,2.3c1.8,1,3.3,2.4,4.5,4.1
		c1.2,1.7,1.8,4,1.8,7c0,2.4-0.5,4.5-1.4,6.4c-0.9,1.9-2.1,3.5-3.7,4.8c-1.5,1.3-3.4,2.3-5.5,3c-2.1,0.7-4.3,1-6.7,1
		c-3.2,0-6.2-0.6-9-1.7s-5.1-2.8-6.8-5.2L124,245.3z"/>
	<path class="st0" d="M159.9,222.5h6.3v4.8h0.1c1.2-1.8,2.9-3.2,5-4.1c2.1-1,4.3-1.5,6.5-1.5c2.6,0,4.9,0.4,7,1.3
		c2.1,0.9,3.9,2.1,5.3,3.7c1.5,1.6,2.6,3.4,3.4,5.6c0.8,2.1,1.2,4.4,1.2,6.8c0,2.5-0.4,4.8-1.2,6.9c-0.8,2.1-1.9,4-3.4,5.5
		c-1.5,1.6-3.2,2.8-5.3,3.7c-2.1,0.9-4.4,1.3-7,1.3c-2.4,0-4.6-0.5-6.7-1.5c-2.1-1-3.7-2.4-4.8-4.1h-0.1v24.5h-6.3V222.5z
		 M177.1,227.5c-1.7,0-3.2,0.3-4.6,0.9c-1.4,0.6-2.5,1.4-3.4,2.4c-0.9,1-1.7,2.2-2.2,3.6c-0.5,1.4-0.8,3-0.8,4.7s0.3,3.2,0.8,4.7
		c0.5,1.4,1.2,2.6,2.2,3.6c0.9,1,2.1,1.8,3.4,2.4c1.4,0.6,2.9,0.9,4.6,0.9c1.7,0,3.2-0.3,4.5-0.9c1.4-0.6,2.5-1.4,3.4-2.4
		c0.9-1,1.7-2.2,2.2-3.6c0.5-1.4,0.8-3,0.8-4.7s-0.3-3.2-0.8-4.7c-0.5-1.4-1.2-2.6-2.2-3.6c-0.9-1-2.1-1.8-3.4-2.4
		C180.3,227.8,178.8,227.5,177.1,227.5z"/>
	<path class="st0" d="M202.6,222.5h6.3v5.1h0.1c0.4-0.9,1-1.7,1.7-2.4c0.7-0.7,1.5-1.3,2.3-1.9c0.9-0.5,1.8-0.9,2.8-1.2
		c1-0.3,2.1-0.5,3.1-0.5s2,0.1,2.8,0.4l-0.3,6.8c-0.5-0.1-1-0.3-1.5-0.4c-0.5-0.1-1-0.1-1.5-0.1c-3.1,0-5.4,0.9-7.1,2.6
		c-1.6,1.7-2.5,4.4-2.5,8v16.7h-6.3V222.5z"/>
	<path class="st0" d="M228.7,226.5c1.8-1.6,3.8-2.9,6.2-3.7c2.3-0.8,4.7-1.2,7-1.2c2.4,0,4.5,0.3,6.3,0.9c1.8,0.6,3.2,1.4,4.3,2.5
		c1.1,1,1.9,2.2,2.5,3.5c0.5,1.3,0.8,2.7,0.8,4.2v16.9c0,1.2,0,2.2,0.1,3.2c0,1,0.1,1.9,0.2,2.8h-5.6c-0.1-1.7-0.2-3.4-0.2-5H250
		c-1.4,2.1-3.1,3.7-5,4.5c-1.9,0.9-4.1,1.3-6.7,1.3c-1.5,0-3-0.2-4.4-0.6c-1.4-0.4-2.6-1-3.7-1.9s-1.9-1.9-2.5-3.1
		c-0.6-1.2-0.9-2.7-0.9-4.3c0-2.1,0.5-3.9,1.4-5.4c1-1.4,2.3-2.6,3.9-3.5c1.7-0.9,3.6-1.6,5.8-2c2.2-0.4,4.6-0.6,7.1-0.6h4.6v-1.4
		c0-0.8-0.2-1.7-0.5-2.5c-0.3-0.8-0.8-1.6-1.5-2.3c-0.7-0.7-1.5-1.2-2.5-1.6c-1-0.4-2.1-0.6-3.5-0.6c-1.2,0-2.3,0.1-3.2,0.4
		c-0.9,0.2-1.7,0.5-2.5,0.9c-0.7,0.3-1.4,0.8-2,1.2c-0.6,0.5-1.2,0.9-1.8,1.3L228.7,226.5z M246.5,239.7c-1.5,0-3,0.1-4.6,0.2
		c-1.6,0.2-3,0.5-4.3,0.9c-1.3,0.5-2.3,1.1-3.2,2c-0.8,0.8-1.2,1.9-1.2,3.2c0,1.9,0.6,3.3,1.9,4.1c1.3,0.8,3,1.3,5.2,1.3
		c1.7,0,3.2-0.3,4.4-0.9c1.2-0.6,2.2-1.3,2.9-2.3c0.7-0.9,1.3-2,1.6-3.1c0.3-1.1,0.5-2.3,0.5-3.4v-2.1H246.5z"/>
	<path class="st0" d="M265,226.5c1.8-1.6,3.8-2.9,6.2-3.7c2.3-0.8,4.7-1.2,7-1.2c2.4,0,4.5,0.3,6.3,0.9c1.8,0.6,3.2,1.4,4.3,2.5
		c1.1,1,1.9,2.2,2.5,3.5c0.5,1.3,0.8,2.7,0.8,4.2v16.9c0,1.2,0,2.2,0.1,3.2c0,1,0.1,1.9,0.2,2.8h-5.6c-0.1-1.7-0.2-3.4-0.2-5h-0.1
		c-1.4,2.1-3.1,3.7-5,4.5c-1.9,0.9-4.1,1.3-6.7,1.3c-1.5,0-3-0.2-4.4-0.6c-1.4-0.4-2.6-1-3.7-1.9s-1.9-1.9-2.5-3.1
		c-0.6-1.2-0.9-2.7-0.9-4.3c0-2.1,0.5-3.9,1.4-5.4c1-1.4,2.3-2.6,3.9-3.5c1.7-0.9,3.6-1.6,5.8-2c2.2-0.4,4.6-0.6,7.1-0.6h4.6v-1.4
		c0-0.8-0.2-1.7-0.5-2.5c-0.3-0.8-0.8-1.6-1.5-2.3c-0.7-0.7-1.5-1.2-2.5-1.6c-1-0.4-2.1-0.6-3.5-0.6c-1.2,0-2.3,0.1-3.2,0.4
		c-0.9,0.2-1.7,0.5-2.5,0.9c-0.7,0.3-1.4,0.8-2,1.2c-0.6,0.5-1.2,0.9-1.8,1.3L265,226.5z M282.8,239.7c-1.5,0-3,0.1-4.6,0.2
		c-1.6,0.2-3,0.5-4.3,0.9c-1.3,0.5-2.3,1.1-3.2,2c-0.8,0.8-1.2,1.9-1.2,3.2c0,1.9,0.6,3.3,1.9,4.1c1.3,0.8,3,1.3,5.2,1.3
		c1.7,0,3.2-0.3,4.4-0.9c1.2-0.6,2.2-1.3,2.9-2.3c0.7-0.9,1.3-2,1.6-3.1c0.3-1.1,0.5-2.3,0.5-3.4v-2.1H282.8z"/>
	<path class="st0" d="M301.2,202.8h6.3v34.2l14.3-14.4h8.8l-15.5,15.1l16.8,18.1h-9l-15.4-17.2v17.2h-6.3V202.8z"/>
</g>
<g>
	<path class="st0" d="M37.6,114.9c-1.4-1.8-3.2-3.2-5.3-4.2c-2.1-1-4.4-1.5-6.6-1.5c-2.8,0-5.3,0.5-7.6,1.6
		c-2.3,1.1-4.2,2.5-5.8,4.3c-1.6,1.8-2.9,4-3.7,6.4c-0.9,2.5-1.3,5.1-1.3,7.9c0,2.6,0.4,5.1,1.3,7.4c0.8,2.3,2.1,4.4,3.6,6.2
		c1.6,1.8,3.5,3.2,5.8,4.2c2.3,1,4.9,1.5,7.8,1.5c2.8,0,5.3-0.6,7.5-1.8c2.1-1.2,4-2.8,5.5-4.9l5.7,4.3c-0.4,0.5-1,1.2-2,2.2
		c-0.9,1-2.2,1.9-3.7,2.9c-1.5,1-3.4,1.8-5.6,2.5c-2.2,0.7-4.7,1.1-7.5,1.1c-3.9,0-7.5-0.7-10.6-2.2c-3.2-1.5-5.8-3.5-8-5.9
		c-2.2-2.4-3.9-5.2-5.1-8.2c-1.2-3.1-1.8-6.1-1.8-9.3c0-3.8,0.6-7.4,1.9-10.6c1.3-3.2,3-6,5.3-8.4c2.3-2.4,5-4.2,8.2-5.5
		c3.2-1.3,6.7-2,10.5-2c3.3,0,6.5,0.6,9.6,1.9c3.1,1.3,5.7,3.2,7.7,5.8L37.6,114.9z"/>
	<path class="st0" d="M49.1,137.1c0-2.4,0.5-4.7,1.4-6.8c0.9-2.1,2.2-3.9,3.7-5.5c1.6-1.6,3.5-2.8,5.6-3.7c2.1-0.9,4.5-1.4,6.9-1.4
		c2.5,0,4.8,0.5,6.9,1.4s4,2.2,5.6,3.7c1.6,1.6,2.8,3.4,3.7,5.5c0.9,2.1,1.4,4.4,1.4,6.8c0,2.4-0.5,4.7-1.4,6.8
		c-0.9,2.1-2.2,4-3.7,5.5c-1.6,1.6-3.5,2.8-5.6,3.7c-2.1,0.9-4.5,1.4-6.9,1.4c-2.5,0-4.8-0.5-6.9-1.4c-2.1-0.9-4-2.1-5.6-3.7
		c-1.6-1.6-2.8-3.4-3.7-5.5C49.6,141.8,49.1,139.6,49.1,137.1z M55.9,137.1c0,1.7,0.3,3.2,0.8,4.7s1.2,2.6,2.2,3.6
		c0.9,1,2.1,1.8,3.4,2.4c1.4,0.6,2.9,0.9,4.5,0.9s3.2-0.3,4.5-0.9c1.4-0.6,2.5-1.4,3.4-2.4c0.9-1,1.7-2.2,2.2-3.6
		c0.5-1.4,0.8-3,0.8-4.7s-0.3-3.2-0.8-4.7c-0.5-1.4-1.2-2.6-2.2-3.6c-0.9-1-2.1-1.8-3.4-2.4c-1.4-0.6-2.9-0.9-4.5-0.9
		s-3.2,0.3-4.5,0.9c-1.4,0.6-2.5,1.4-3.4,2.4c-0.9,1-1.7,2.2-2.2,3.6C56.1,133.9,55.9,135.4,55.9,137.1z"/>
	<path class="st0" d="M92.3,120.5h5.9v5.2h0.1c0.1-0.5,0.5-1,1.1-1.8c0.6-0.7,1.3-1.4,2.2-2c0.9-0.6,2-1.2,3.2-1.6
		c1.2-0.4,2.6-0.7,4.1-0.7c2.5,0,4.5,0.5,6.2,1.5c1.7,1,3.1,2.6,4.1,4.6c1.1-2.1,2.6-3.6,4.5-4.6c2-1,3.9-1.5,6-1.5
		c2.6,0,4.7,0.4,6.3,1.3c1.6,0.8,2.9,1.9,3.8,3.3c0.9,1.4,1.6,2.9,1.9,4.7c0.3,1.8,0.5,3.6,0.5,5.4v19.3h-6.3v-18.5
		c0-1.3-0.1-2.5-0.2-3.6c-0.2-1.2-0.5-2.2-1-3.1c-0.5-0.9-1.2-1.6-2.2-2.1c-0.9-0.5-2.2-0.8-3.7-0.8c-3,0-5.2,0.9-6.5,2.8
		c-1.3,1.9-2,4.3-2,7.2v18.1h-6.3v-17.4c0-1.6-0.1-3-0.2-4.3c-0.2-1.3-0.5-2.4-1-3.4c-0.5-1-1.2-1.7-2.1-2.2
		c-0.9-0.5-2.1-0.8-3.7-0.8c-1.1,0-2.2,0.2-3.3,0.7s-2,1.1-2.8,2c-0.8,0.9-1.4,2-1.9,3.4c-0.5,1.4-0.7,3-0.7,4.9v17.2h-6.3V120.5z"
		/>
	<path class="st0" d="M152,120.5h5.9v5.2h0.1c0.1-0.5,0.5-1,1.1-1.8c0.6-0.7,1.3-1.4,2.2-2c0.9-0.6,2-1.2,3.2-1.6
		c1.2-0.4,2.6-0.7,4.1-0.7c2.5,0,4.5,0.5,6.2,1.5c1.7,1,3.1,2.6,4.1,4.6c1.1-2.1,2.6-3.6,4.5-4.6c2-1,3.9-1.5,6-1.5
		c2.6,0,4.7,0.4,6.3,1.3c1.6,0.8,2.9,1.9,3.8,3.3c0.9,1.4,1.6,2.9,1.9,4.7c0.3,1.8,0.5,3.6,0.5,5.4v19.3h-6.3v-18.5
		c0-1.3-0.1-2.5-0.2-3.6c-0.2-1.2-0.5-2.2-1-3.1c-0.5-0.9-1.2-1.6-2.2-2.1c-0.9-0.5-2.2-0.8-3.7-0.8c-3,0-5.2,0.9-6.5,2.8
		c-1.3,1.9-2,4.3-2,7.2v18.1h-6.3v-17.4c0-1.6-0.1-3-0.2-4.3c-0.2-1.3-0.5-2.4-1-3.4c-0.5-1-1.2-1.7-2.1-2.2
		c-0.9-0.5-2.1-0.8-3.7-0.8c-1.1,0-2.2,0.2-3.3,0.7s-2,1.1-2.8,2c-0.8,0.9-1.4,2-1.9,3.4c-0.5,1.4-0.7,3-0.7,4.9v17.2H152V120.5z"/>
	<path class="st0" d="M241,153.7h-6.3v-5.1h-0.1c-0.8,1.8-2.2,3.2-4.1,4.3c-2,1.1-4.2,1.6-6.8,1.6c-1.6,0-3.2-0.2-4.6-0.7
		c-1.4-0.5-2.7-1.2-3.8-2.3c-1.1-1-2-2.3-2.6-4c-0.7-1.6-1-3.5-1-5.7v-21.3h6.3v19.6c0,1.5,0.2,2.9,0.6,4c0.4,1.1,1,2,1.7,2.7
		c0.7,0.7,1.5,1.2,2.4,1.5c0.9,0.3,1.9,0.5,2.8,0.5c1.3,0,2.5-0.2,3.6-0.6s2.1-1.1,2.9-2s1.5-2.1,2-3.5c0.5-1.4,0.7-3.1,0.7-5v-17.1
		h6.3V153.7z"/>
	<path class="st0" d="M250.5,120.5h6.3v5.1h0.1c0.8-1.8,2.2-3.2,4.1-4.3c2-1.1,4.2-1.6,6.8-1.6c1.6,0,3.1,0.2,4.6,0.7
		s2.8,1.2,3.8,2.3s2,2.3,2.6,4c0.7,1.6,1,3.5,1,5.7v21.3h-6.3v-19.6c0-1.5-0.2-2.9-0.6-4c-0.4-1.1-1-2-1.7-2.7
		c-0.7-0.7-1.5-1.2-2.4-1.5s-1.9-0.5-2.8-0.5c-1.3,0-2.5,0.2-3.6,0.6s-2.1,1.1-2.9,2c-0.8,0.9-1.5,2.1-2,3.5c-0.5,1.4-0.7,3.1-0.7,5
		v17.1h-6.3V120.5z"/>
	<path class="st0" d="M288.5,108.6c0-1.3,0.5-2.3,1.4-3.3c0.9-0.9,2-1.4,3.3-1.4c1.3,0,2.3,0.5,3.3,1.4s1.4,2,1.4,3.3
		s-0.5,2.3-1.4,3.3s-2,1.4-3.3,1.4c-1.3,0-2.3-0.5-3.3-1.4C288.9,111,288.5,109.9,288.5,108.6z M289.9,120.5h6.3v33.2h-6.3V120.5z"
		/>
	<path class="st0" d="M330,129.4c-1.2-1.2-2.4-2.1-3.7-2.8c-1.3-0.6-2.8-0.9-4.6-0.9c-1.7,0-3.2,0.3-4.5,0.9
		c-1.3,0.6-2.4,1.5-3.2,2.6c-0.9,1.1-1.5,2.4-2,3.8c-0.4,1.4-0.7,2.9-0.7,4.4s0.3,3,0.8,4.4c0.5,1.4,1.2,2.6,2.2,3.6
		c0.9,1,2.1,1.8,3.4,2.4c1.3,0.6,2.8,0.9,4.4,0.9c1.8,0,3.3-0.3,4.5-0.9s2.4-1.6,3.5-2.8l4.5,4.5c-1.6,1.8-3.5,3.1-5.7,3.9
		s-4.5,1.2-6.9,1.2c-2.6,0-4.9-0.4-7-1.3c-2.1-0.8-4-2-5.5-3.5c-1.5-1.5-2.7-3.3-3.6-5.5c-0.8-2.1-1.3-4.5-1.3-7
		c0-2.6,0.4-4.9,1.3-7.1s2-4,3.5-5.5c1.5-1.5,3.3-2.7,5.5-3.6c2.1-0.9,4.5-1.3,7.1-1.3c2.4,0,4.7,0.4,7,1.3c2.2,0.9,4.1,2.2,5.8,4
		L330,129.4z"/>
	<path class="st0" d="M340.1,124.6c1.8-1.6,3.8-2.9,6.2-3.7c2.3-0.8,4.7-1.2,7-1.2c2.4,0,4.5,0.3,6.3,0.9c1.8,0.6,3.2,1.4,4.3,2.5
		c1.1,1,1.9,2.2,2.5,3.5c0.5,1.3,0.8,2.7,0.8,4.2v16.9c0,1.2,0,2.2,0.1,3.2c0,1,0.1,1.9,0.2,2.8h-5.6c-0.1-1.7-0.2-3.4-0.2-5h-0.1
		c-1.4,2.1-3.1,3.7-5,4.5c-1.9,0.9-4.1,1.3-6.7,1.3c-1.5,0-3-0.2-4.4-0.6c-1.4-0.4-2.6-1-3.7-1.9s-1.9-1.9-2.5-3.1
		c-0.6-1.2-0.9-2.7-0.9-4.3c0-2.1,0.5-3.9,1.4-5.4c1-1.4,2.3-2.6,3.9-3.5c1.7-0.9,3.6-1.6,5.8-2c2.2-0.4,4.6-0.6,7.1-0.6h4.6v-1.4
		c0-0.8-0.2-1.7-0.5-2.5c-0.3-0.8-0.8-1.6-1.5-2.3c-0.7-0.7-1.5-1.2-2.5-1.6c-1-0.4-2.1-0.6-3.5-0.6c-1.2,0-2.3,0.1-3.2,0.4
		c-0.9,0.2-1.7,0.5-2.5,0.9c-0.7,0.3-1.4,0.8-2,1.2c-0.6,0.5-1.2,0.9-1.8,1.3L340.1,124.6z M357.9,137.8c-1.5,0-3,0.1-4.6,0.2
		c-1.6,0.2-3,0.5-4.3,0.9c-1.3,0.5-2.3,1.1-3.2,2c-0.8,0.8-1.2,1.9-1.2,3.2c0,1.9,0.6,3.3,1.9,4.1c1.3,0.8,3,1.3,5.2,1.3
		c1.7,0,3.2-0.3,4.4-0.9c1.2-0.6,2.2-1.3,2.9-2.3c0.7-0.9,1.3-2,1.6-3.1c0.3-1.1,0.5-2.3,0.5-3.4v-2.1H357.9z"/>
	<path class="st0" d="M394.1,126h-9v15c0,0.9,0,1.9,0.1,2.8c0,0.9,0.2,1.7,0.5,2.5c0.3,0.7,0.8,1.3,1.4,1.8c0.6,0.4,1.6,0.7,2.8,0.7
		c0.7,0,1.5-0.1,2.3-0.2c0.8-0.1,1.5-0.4,2.2-0.8v5.7c-0.7,0.4-1.7,0.7-2.9,0.9c-1.2,0.2-2.1,0.2-2.8,0.2c-2.4,0-4.3-0.3-5.6-1
		s-2.3-1.6-2.9-2.6c-0.6-1.1-1-2.3-1.1-3.6c-0.1-1.3-0.2-2.7-0.2-4V126h-7.3v-5.5h7.3v-9.3h6.3v9.3h9V126z"/>
	<path class="st0" d="M401.2,108.6c0-1.3,0.5-2.3,1.4-3.3c0.9-0.9,2-1.4,3.3-1.4c1.3,0,2.3,0.5,3.3,1.4s1.4,2,1.4,3.3
		s-0.5,2.3-1.4,3.3s-2,1.4-3.3,1.4c-1.3,0-2.3-0.5-3.3-1.4C401.7,111,401.2,109.9,401.2,108.6z M402.7,120.5h6.3v33.2h-6.3V120.5z"
		/>
	<path class="st0" d="M423.8,139.4c0,1.4,0.3,2.8,0.9,4c0.6,1.2,1.5,2.2,2.5,3c1,0.8,2.2,1.5,3.6,2c1.4,0.5,2.8,0.7,4.2,0.7
		c2,0,3.7-0.5,5.1-1.4c1.4-0.9,2.8-2.1,4-3.6l4.8,3.6c-3.5,4.5-8.4,6.8-14.7,6.8c-2.6,0-5-0.4-7.1-1.3c-2.1-0.9-3.9-2.1-5.4-3.7
		c-1.5-1.6-2.6-3.4-3.4-5.5c-0.8-2.1-1.2-4.4-1.2-6.9c0-2.5,0.4-4.8,1.3-6.9c0.9-2.1,2.1-4,3.6-5.5c1.5-1.6,3.3-2.8,5.4-3.7
		c2.1-0.9,4.4-1.3,6.9-1.3c2.9,0,5.4,0.5,7.5,1.5c2,1,3.7,2.4,5,4c1.3,1.7,2.3,3.5,2.8,5.6c0.6,2.1,0.9,4.2,0.9,6.3v2.2H423.8z
		 M443.7,134.4c0-1.4-0.3-2.7-0.7-3.8c-0.4-1.2-1-2.2-1.8-3c-0.8-0.9-1.8-1.5-3-2c-1.2-0.5-2.6-0.7-4.2-0.7c-1.5,0-3,0.3-4.2,0.9
		c-1.3,0.6-2.4,1.3-3.3,2.3c-0.9,0.9-1.6,2-2.1,3.1s-0.7,2.3-0.7,3.4H443.7z"/>
</g>
</svg>
