<!-- Generator: Adobe Illustrator 19.0.0, SVG Export Plug-In  -->
<svg version="1.1"
	 xmlns="http://www.w3.org/2000/svg" xmlns:xlink="http://www.w3.org/1999/xlink" xmlns:a="http://ns.adobe.com/AdobeSVGViewerExtensions/3.0/"
	 x="0px" y="0px" width="516.4px" height="1376.6px" viewBox="0 0 516.4 1376.6" style="enable-background:new 0 0 516.4 1376.6;"
	 xml:space="preserve">
<style type="text/css">
	.st0{fill:#323744;}
</style>
<defs>
</defs>
<g>
	<polygon class="st0" points="516.4,1215.5 498.4,1200.5 498.4,987.5 483.4,969.5 483.4,807.4 462.4,782.5 462.4,663.4 444.4,639.4 
		444.4,471.4 423.4,456.4 423.4,390.4 405.3,366.4 405.3,315.4 348.3,315.4 264.3,141.4 264.3,56 258.7,56 257.7,56 252,56 
		252,141.4 168,315.4 111,315.4 111,366.4 93,390.4 93,456.4 72,471.4 72,639.4 54,663.4 54,782.5 33,807.4 33,969.5 18,987.5 
		18,1200.5 0,1215.5 0,1368.5 257.7,1376.6 257.7,1376.6 258.2,1376.6 258.7,1376.6 258.7,1376.6 516.4,1368.5 	"/>
	<polygon class="st0" points="241.1,60 220.3,46.2 210,17.3 225.5,10.4 241.1,28.8 256.6,21.9 263,10.4 263,0 275.7,0 281.5,9.2 
		293,20.8 276.9,30 282.7,46.2 276.9,55.4 268.8,60 	"/>
</g>
</svg>
