<!-- Generator: Adobe Illustrator 19.0.0, SVG Export Plug-In  -->
<svg version="1.1"
	 xmlns="http://www.w3.org/2000/svg" xmlns:xlink="http://www.w3.org/1999/xlink" xmlns:a="http://ns.adobe.com/AdobeSVGViewerExtensions/3.0/"
	 x="0px" y="0px" width="187.7px" height="115.1px" viewBox="0 0 187.7 115.1" style="enable-background:new 0 0 187.7 115.1;"
	 xml:space="preserve">
<style type="text/css">
	.st0{fill:#FF8500;}
</style>
<defs>
</defs>
<path class="st0" d="M182.1,6.4c-5.7,0.2-11.4,12.3-11.4,12.3c-0.7-1.8-1.4-1.8-1.4-1.8c-0.5-9-4.5-12-4.5-12
	c-3.8,2-4.1,6.4-4.1,6.4c-6.6-0.1-13.1-6.4-13.1-6.4c-4.3,5.3-12,6.8-12,6.8c-0.9-6.4-2.6-6.8-2.6-6.8c-3.3,2.7-4.2,10.9-4.2,10.9
	c-0.1,0.1-0.2,0.1-0.3,0.2C118.7,6.2,105.3,0,90.4,0C61.1,0,37.4,23.7,37.4,52.9c0,1.2,0,2.5,0.1,3.7c0.2,2.8,0.6,5.6,1.2,8.3
	c-0.2,11.3-12.8,25.6-19,14.8c-3.7-6.5-13.7-1-17.1,1.1c-1,0.6-1.5,1.7-1.4,2.8c0.2,1.8,0.3,4.8-0.9,7c-0.7,1.3-0.6,2.8,0.5,3.8
	c3.6,3.3,7,1.8,17.2-0.1c13.4-2.8,22-11.3,24.9-17.8c2.4,4.9,5.6,9.3,9.4,13.2c-0.4,1.1-0.9,2.2-1.5,3.3
	c-6.5,12.4,4.4,18.8,4.4,18.8c2.4,1.4,6.7,1.6,9.7,1.1c1.7-0.3,3-1.7,3.2-3.5c0.1-0.4,0.1-1,0.2-1.5c1.6,3.2,4,5.1,4,5.1
	c2.6,0.8,10.4-0.3,10.5-2.3c0,0,1.3-2.1,2.3-5.1c1.7,0.2,3.5,0.3,5.3,0.3c3.1,0,6.1-0.3,9.1-0.8c1,4.2,2.9,7.4,2.9,7.4
	c0,2.1,7.8,3.1,10.4,2.4c0,0,2.1-1.5,3.6-4.3c0.7,0.6,1.1,0.9,1.1,0.9c1.1,1.6,8.5-1.5,10.6-1.7c0,0,5.8-9.4-2.8-17.1
	c2.7-2.3,5.1-4.9,7.2-7.8c9.9,9,28.1,6.4,28.1,6.4c23.2-3.2,24-18.5,18.4-31.5c-5.6-13-1.1-30.8-1.1-30.8c2.8-1.7,7-7.2,7-7.2
	C189.9,15,187.8,6.2,182.1,6.4z"/>
</svg>
