<!-- Generator: Adobe Illustrator 19.0.0, SVG Export Plug-In  -->
<svg version="1.1"
	 xmlns="http://www.w3.org/2000/svg" xmlns:xlink="http://www.w3.org/1999/xlink" xmlns:a="http://ns.adobe.com/AdobeSVGViewerExtensions/3.0/"
	 x="0px" y="0px" width="102.4px" height="93.8px" viewBox="0 0 102.4 93.8" style="enable-background:new 0 0 102.4 93.8;"
	 xml:space="preserve">
<style type="text/css">
	.st0{fill:#FF8500;}
</style>
<defs>
</defs>
<path class="st0" d="M99.5,15.9c0,5.9-6.4,12.8-6.4,12.8C101.9,8.8,91,8.9,91,8.9c-1.4,5.4-3.7,9.7-7,12.8C85.6,14.6,85.1,8,85.1,8
	s-12,2.7-11.2,14.1c0.7,11.4-6.1,13.2-6.8,14.6c-0.7,1.4-15.4,1.8-15.4-17.8c0-19.6-25-10.3-25-10.3S26.4-0.3,23.5,0
	c-2.9,0.4-10.7,6.4-11.8,11.4s1.8,13.2,1.8,13.2L0,30l13.6,6.4C8.5,60.1,22.1,73,39.4,77.8L37,85.2l-6.4,2l1.3,4.1l6.1-1.9l3.7,4.4
	L45,91l-3.9-4.6l2.5-7.6c8.4,1.7,17.3,1.6,25.3,0c0.2,0,0.4-0.1,0.6-0.2l2.5,7.7L68.1,91l3.3,2.8l3.7-4.4l6.1,1.9l1.3-4.1l-6.4-2
	l-2.5-7.6c21.9-7.4,26.6-32.3,26.6-32.3c-4.3,3.6-12.8,4.8-12.8,4.8C111.1,39.3,99.5,15.9,99.5,15.9z"/>
</svg>
